<svg width="23" height="20" viewBox="0 0 23 20" fill="none" xmlns="http://www.w3.org/2000/svg">
<path fill-rule="evenodd" clip-rule="evenodd" d="M0.75 1C0.75 0.585785 1.08578 0.25 1.5 0.25H4H4.5913L4.72929 0.824966L7.5913 12.75H22C22.4142 12.75 22.75 13.0858 22.75 13.5C22.75 13.9142 22.4142 14.25 22 14.25H7H6.4087L6.27071 13.675L3.4087 1.75H1.5C1.08578 1.75 0.75 1.41422 0.75 1ZM9.5 20C10.8807 20 12 18.8807 12 17.5C12 16.1193 10.8807 15 9.5 15C8.11929 15 7 16.1193 7 17.5C7 18.8807 8.11929 20 9.5 20ZM18.5 20C19.8807 20 21 18.8807 21 17.5C21 16.1193 19.8807 15 18.5 15C17.1193 15 16 16.1193 16 17.5C16 18.8807 17.1193 20 18.5 20ZM7.66286 3C7.33067 3 7.09084 3.31795 7.18211 3.63736L9.18211 10.6374C9.24343 10.852 9.43963 11 9.66286 11H20.3371C20.5604 11 20.7566 10.852 20.8179 10.6374L22.8179 3.63736C22.9092 3.31795 22.6693 3 22.3371 3H7.66286Z" fill="white"/>
</svg>
