<svg width="14" height="9" viewBox="0 0 14 9" fill="none" xmlns="http://www.w3.org/2000/svg">
<path fill-rule="evenodd" clip-rule="evenodd" d="M1 0C0.447715 0 0 0.447715 0 1V8C0 8.55229 0.447716 9 1 9H13C13.5523 9 14 8.55229 14 8V1C14 0.447715 13.5523 0 13 0H1ZM1.16005 0.807945C1.05398 0.719554 0.896336 0.733885 0.807945 0.839954C0.719554 0.946023 0.733885 1.10366 0.839954 1.19206L6.19977 5.65857C6.66333 6.04487 7.33667 6.04487 7.80023 5.65857L13.16 1.19206C13.2661 1.10366 13.2804 0.946023 13.1921 0.839954C13.1037 0.733885 12.946 0.719554 12.84 0.807945L7.48014 5.27446C7.202 5.50624 6.798 5.50624 6.51986 5.27446L1.16005 0.807945ZM3.67678 4.82322C3.77441 4.92085 3.77441 5.07915 3.67678 5.17678L1.17678 7.67678C1.07915 7.77441 0.920854 7.77441 0.823223 7.67678C0.725592 7.57915 0.725592 7.42085 0.823223 7.32322L3.32322 4.82322C3.42085 4.72559 3.57915 4.72559 3.67678 4.82322ZM10.3232 5.17678C10.2256 5.07915 10.2256 4.92085 10.3232 4.82322C10.4209 4.72559 10.5791 4.72559 10.6768 4.82322L13.1768 7.32322C13.2744 7.42085 13.2744 7.57915 13.1768 7.67678C13.0791 7.77441 12.9209 7.77441 12.8232 7.67678L10.3232 5.17678Z" fill="white"/>
</svg>
