<svg width="12" height="13" viewBox="0 0 12 13" fill="none" xmlns="http://www.w3.org/2000/svg">
<path fill-rule="evenodd" clip-rule="evenodd" d="M10.7013 3.24279C11.5143 2.90151 12 2.46966 12 2C12 0.895431 9.31371 0 6 0C2.68629 0 0 0.895431 0 2C0 2.46966 0.485659 2.90151 1.29871 3.24279C2.08705 3.03849 3.03911 2.88484 4.09199 2.79981C4.08047 2.69645 4.10126 2.59026 4.15446 2.49689L4.85864 1.26074C4.94706 1.10553 5.11157 1.00927 5.2902 1.00824L6.71283 1.00001C6.89146 0.998977 7.05707 1.09332 7.14728 1.2475L7.86572 2.47542C7.92418 2.57533 7.94522 2.69053 7.92872 2.80149C8.97337 2.88686 9.91813 3.03983 10.7013 3.24279ZM4.58314 4H3.5C3.22386 4 3 4.22386 3 4.5V5H1.88278C1.37846 5 0.953058 5.37554 0.890504 5.87596L0.140504 11.876C0.0658977 12.4728 0.531284 13 1.13278 13H10.8672C11.4687 13 11.9341 12.4728 11.8595 11.876L11.1095 5.87597C11.0469 5.37554 10.6215 5 10.1172 5H9V4.5C9 4.22386 8.77614 4 8.5 4H7.44182L7.16443 4.48694C7.07601 4.64216 6.9115 4.73841 6.73287 4.73944L5.31024 4.74767C5.13161 4.74871 4.966 4.65436 4.87579 4.50018L4.58314 4ZM3.5 6C3.22386 6 3 6.22386 3 6.5V7C3 7.27614 3.22386 7.5 3.5 7.5H4C4.27614 7.5 4.5 7.27614 4.5 7V6.5C4.5 6.22386 4.27614 6 4 6H3.5ZM5.5 6C5.22386 6 5 6.22386 5 6.5V7C5 7.27614 5.22386 7.5 5.5 7.5H6C6.27614 7.5 6.5 7.27614 6.5 7V6.5C6.5 6.22386 6.27614 6 6 6H5.5ZM7 6.5C7 6.22386 7.22386 6 7.5 6H8C8.27614 6 8.5 6.22386 8.5 6.5V7C8.5 7.27614 8.27614 7.5 8 7.5H7.5C7.22386 7.5 7 7.27614 7 7V6.5ZM3.5 8C3.22386 8 3 8.22386 3 8.5V9C3 9.27614 3.22386 9.5 3.5 9.5H4C4.27614 9.5 4.5 9.27614 4.5 9V8.5C4.5 8.22386 4.27614 8 4 8H3.5ZM5 8.5C5 8.22386 5.22386 8 5.5 8H6C6.27614 8 6.5 8.22386 6.5 8.5V9C6.5 9.27614 6.27614 9.5 6 9.5H5.5C5.22386 9.5 5 9.27614 5 9V8.5ZM7.5 8C7.22386 8 7 8.22386 7 8.5V9C7 9.27614 7.22386 9.5 7.5 9.5H8C8.27614 9.5 8.5 9.27614 8.5 9V8.5C8.5 8.22386 8.27614 8 8 8H7.5ZM3 10.5C3 10.2239 3.22386 10 3.5 10H4C4.27614 10 4.5 10.2239 4.5 10.5V11C4.5 11.2761 4.27614 11.5 4 11.5H3.5C3.22386 11.5 3 11.2761 3 11V10.5ZM5.5 10C5.22386 10 5 10.2239 5 10.5V11C5 11.2761 5.22386 11.5 5.5 11.5H6C6.27614 11.5 6.5 11.2761 6.5 11V10.5C6.5 10.2239 6.27614 10 6 10H5.5ZM7 10.5C7 10.2239 7.22386 10 7.5 10H8C8.27614 10 8.5 10.2239 8.5 10.5V11C8.5 11.2761 8.27614 11.5 8 11.5H7.5C7.22386 11.5 7 11.2761 7 11V10.5Z" fill="white"/>
</svg>
