<svg xmlns="http://www.w3.org/2000/svg" xmlns:xlink="http://www.w3.org/1999/xlink" width="377" zoomAndPan="magnify" viewBox="0 0 282.75 165.000002" height="220" preserveAspectRatio="xMidYMid meet" version="1.0"><defs><clipPath id="d21ade6030"><path d="M 0.726562 0 L 281.773438 0 L 281.773438 164.007812 L 0.726562 164.007812 Z M 0.726562 0 " clip-rule="nonzero"/></clipPath><clipPath id="2a116a15c6"><path d="M 36 9 L 246 9 L 246 143.132812 L 36 143.132812 Z M 36 9 " clip-rule="nonzero"/></clipPath><clipPath id="09cfe0e7cd"><path d="M 154.296875 16.242188 L 243.675781 126.960938 C 246.085938 129.953125 246.570312 134.0625 244.914062 137.527344 C 243.253906 140.996094 239.753906 143.203125 235.910156 143.203125 L 46.464844 143.203125 C 42.621094 143.203125 39.121094 140.996094 37.464844 137.527344 C 35.804688 134.0625 36.289062 129.953125 38.703125 126.960938 L 128.078125 16.242188 C 131.277344 12.277344 136.09375 9.976562 141.1875 9.976562 C 146.28125 9.976562 151.097656 12.277344 154.296875 16.242188 Z M 154.296875 16.242188 " clip-rule="nonzero"/></clipPath></defs><g clip-path="url(#d21ade6030)"><path fill="#ffffff" d="M 0.726562 0 L 281.773438 0 L 281.773438 164.007812 L 0.726562 164.007812 Z M 0.726562 0 " fill-opacity="1" fill-rule="nonzero"/></g><g clip-path="url(#2a116a15c6)"><g clip-path="url(#09cfe0e7cd)"><path fill="#000000" d="M 165.871094 27.019531 L 174.300781 37.457031 L 170.820312 40.269531 L 162.390625 29.828125 Z M 175.703125 39.199219 L 184.132812 49.640625 L 180.652344 52.449219 L 172.222656 42.007812 Z M 185.539062 51.378906 L 193.964844 61.820312 L 190.484375 64.632812 L 182.058594 54.191406 Z M 195.371094 63.5625 L 203.800781 74.003906 L 200.320312 76.8125 L 191.890625 66.371094 Z M 205.203125 75.742188 L 213.632812 86.183594 L 210.152344 88.996094 L 201.722656 78.554688 Z M 215.039062 87.925781 L 223.464844 98.367188 L 219.984375 101.175781 L 211.558594 90.734375 Z M 224.871094 100.105469 L 233.300781 110.546875 L 229.820312 113.359375 L 221.390625 102.917969 Z M 234.703125 112.289062 L 243.132812 122.730469 L 239.652344 125.539062 L 231.222656 115.097656 Z M 244.535156 124.46875 L 245.414062 125.558594 C 248.636719 129.550781 249.144531 133.863281 246.929688 138.492188 C 246.78125 138.804688 246.617188 139.113281 246.441406 139.410156 L 242.585938 137.148438 C 242.695312 136.957031 242.800781 136.761719 242.894531 136.5625 C 244.296875 133.628906 243.976562 130.898438 241.933594 128.367188 L 241.054688 127.28125 Z M 244.804688 141.597656 C 242.394531 144.160156 239.429688 145.4375 235.910156 145.4375 L 230.605469 145.4375 L 230.605469 140.964844 L 235.910156 140.964844 C 238.140625 140.964844 240.019531 140.15625 241.546875 138.53125 Z M 228.367188 145.4375 L 214.949219 145.4375 L 214.949219 140.964844 L 228.367188 140.964844 Z M 212.714844 145.4375 L 199.292969 145.4375 L 199.292969 140.964844 L 212.714844 140.964844 Z M 197.058594 145.4375 L 183.640625 145.4375 L 183.640625 140.964844 L 197.058594 140.964844 Z M 181.402344 145.4375 L 167.984375 145.4375 L 167.984375 140.964844 L 181.402344 140.964844 Z M 165.75 145.4375 L 152.328125 145.4375 L 152.328125 140.964844 L 165.75 140.964844 Z M 150.09375 145.4375 L 136.675781 145.4375 L 136.675781 140.964844 L 150.09375 140.964844 Z M 134.4375 145.4375 L 121.019531 145.4375 L 121.019531 140.964844 L 134.4375 140.964844 Z M 118.78125 145.4375 L 105.363281 145.4375 L 105.363281 140.964844 L 118.78125 140.964844 Z M 103.128906 145.4375 L 89.707031 145.4375 L 89.707031 140.964844 L 103.128906 140.964844 Z M 87.472656 145.4375 L 74.054688 145.4375 L 74.054688 140.964844 L 87.472656 140.964844 Z M 71.816406 145.4375 L 58.398438 145.4375 L 58.398438 140.964844 L 71.816406 140.964844 Z M 56.164062 145.4375 L 46.464844 145.4375 C 44.917969 145.4375 43.429688 145.15625 41.996094 144.59375 L 43.632812 140.429688 C 44.542969 140.789062 45.484375 140.964844 46.464844 140.964844 L 56.164062 140.964844 Z M 39.578125 143.3125 C 37.769531 142.078125 36.390625 140.472656 35.445312 138.492188 C 33.910156 135.285156 33.800781 132.027344 35.113281 128.722656 L 39.269531 130.371094 C 38.4375 132.46875 38.507812 134.53125 39.480469 136.5625 C 40.078125 137.816406 40.953125 138.835938 42.101562 139.617188 Z M 36.398438 126.3125 C 36.574219 126.054688 36.761719 125.800781 36.960938 125.558594 L 44.914062 115.707031 L 48.394531 118.515625 L 40.441406 128.367188 C 40.316406 128.523438 40.195312 128.679688 40.085938 128.847656 Z M 46.316406 113.964844 L 54.746094 103.523438 L 58.226562 106.332031 L 49.796875 116.773438 Z M 56.152344 101.785156 L 64.578125 91.34375 L 68.058594 94.152344 L 59.632812 104.59375 Z M 65.984375 89.601562 L 74.414062 79.160156 L 77.894531 81.96875 L 69.464844 92.410156 Z M 75.816406 77.421875 L 84.246094 66.980469 L 87.726562 69.789062 L 79.296875 80.230469 Z M 85.652344 65.238281 L 94.078125 54.796875 L 97.558594 57.609375 L 89.132812 68.050781 Z M 95.484375 53.058594 L 103.914062 42.617188 L 107.394531 45.425781 L 98.964844 55.867188 Z M 105.316406 40.875 L 113.746094 30.433594 L 117.226562 33.246094 L 108.796875 43.6875 Z M 115.152344 28.695312 L 123.578125 18.253906 L 127.058594 21.0625 L 118.632812 31.503906 Z M 124.984375 16.511719 L 126.335938 14.835938 C 129.117188 11.390625 132.667969 9.179688 136.988281 8.207031 L 137.972656 12.570312 C 134.667969 13.316406 131.949219 15.007812 129.816406 17.644531 L 128.464844 19.324219 Z M 139.488281 7.816406 C 140.050781 7.765625 140.621094 7.738281 141.1875 7.738281 C 145.898438 7.738281 150.039062 9.273438 153.613281 12.339844 L 150.703125 15.734375 C 147.964844 13.386719 144.792969 12.210938 141.1875 12.210938 C 140.753906 12.210938 140.316406 12.230469 139.886719 12.269531 Z M 155.425781 14.113281 C 155.632812 14.347656 155.839844 14.589844 156.039062 14.835938 L 164.464844 25.277344 L 160.984375 28.085938 L 152.558594 17.644531 C 152.40625 17.457031 152.25 17.273438 152.085938 17.09375 Z M 155.425781 14.113281 " fill-opacity="1" fill-rule="nonzero"/></g></g><path stroke-linecap="butt" transform="matrix(0.745482, 0, 0, 0.745482, 22.158063, 52.105984)" fill="none" stroke-linejoin="miter" d="M 144.540185 92.813642 C 144.540185 93.97166 144.162913 94.836243 143.403127 95.412632 C 142.643342 95.989021 141.804958 96.277215 140.893215 96.277215 C 139.986713 96.277215 139.164049 95.989021 138.435703 95.412632 C 137.707357 94.836243 137.340564 93.97166 137.340564 92.813642 C 137.340564 88.076773 137.885513 83.518061 138.980652 79.142745 C 140.075791 74.767429 141.443405 70.423553 143.083493 66.111116 C 142.659061 65.319891 142.538544 64.439588 142.7167 63.464967 C 143.083493 62.191672 143.874718 61.400447 145.090375 61.096533 C 146.300791 58.183149 147.563607 55.280245 148.868342 52.39306 C 150.178317 49.505876 151.435893 46.608211 152.651549 43.689588 C 153.867206 40.770964 154.993784 37.82614 156.026044 34.849878 C 157.058304 31.873615 157.907168 28.834474 158.577875 25.732453 C 158.761272 24.820711 159.138544 24.034726 159.714933 23.364019 C 160.291322 22.698552 161.098267 22.363198 162.130527 22.363198 C 163.105148 22.363198 163.985451 22.709031 164.776676 23.411178 C 165.562661 24.108085 165.898014 24.972668 165.777496 26.010168 C 165.5941 29.53138 165.656979 32.769638 165.960893 35.714461 C 166.264807 38.659284 166.720678 41.577908 167.328507 44.465093 C 167.936335 47.352277 168.617522 50.234222 169.377307 53.121406 C 170.137093 56.008591 170.849719 58.880055 171.520426 61.7358 C 172.185893 64.471028 172.793721 67.206255 173.343911 69.936242 C 173.88886 72.67147 174.769163 75.317619 175.98482 77.86945 C 176.592648 79.142745 177.231916 80.374122 177.897383 81.558339 C 178.56809 82.742556 179.296436 83.942493 180.087661 85.158149 C 180.816007 86.253288 181.486714 87.390346 182.094542 88.574564 C 182.697131 89.764021 183.126803 91.053036 183.367838 92.452089 C 183.488356 93.42147 183.352118 94.333213 182.959126 95.187316 C 182.560893 96.03618 181.848267 96.612569 180.816007 96.916483 C 179.967143 97.157518 179.055401 97.037001 178.08078 96.54969 C 177.111398 96.067619 176.52977 95.339273 176.351613 94.364652 C 176.105338 92.965599 175.633747 91.723743 174.93684 90.628604 C 174.239934 89.533465 173.522067 88.412127 172.793721 87.254109 C 171.944858 85.917935 171.169353 84.566041 170.472446 83.198427 C 169.7703 81.830814 169.151992 80.421281 168.601802 78.959349 C 167.993974 77.445018 167.480464 75.909727 167.056032 74.358717 C 166.62636 72.807707 166.233368 71.246217 165.866575 69.663768 C 163.136587 69.480371 160.443279 69.344134 157.80237 69.255056 C 155.161461 69.165977 152.499592 68.966861 149.827243 68.662947 C 148.370552 72.550952 147.139175 76.501836 146.138354 80.510359 C 145.132294 84.518882 144.603064 88.621723 144.540185 92.813642 Z M 153.10742 60.551583 C 152.986903 60.73498 152.913544 60.928856 152.882105 61.143692 C 152.850665 61.353288 152.772067 61.552404 152.651549 61.7358 C 154.595552 61.919197 156.513355 62.023995 158.394479 62.055434 C 160.280842 62.086874 162.193405 62.160232 164.137408 62.28075 C 163.466701 59.367366 162.754075 56.464462 161.994289 53.577277 C 161.234504 50.690093 160.553317 47.760989 159.945489 44.784727 C 158.85035 47.457075 157.729011 50.082265 156.570994 52.665535 C 155.418216 55.248805 154.265438 57.879235 153.10742 60.551583 Z M 153.10742 60.551583 " stroke="#000000" stroke-width="1.749999" stroke-opacity="1" stroke-miterlimit="4"/></svg>