<svg xmlns="http://www.w3.org/2000/svg" xmlns:xlink="http://www.w3.org/1999/xlink" width="363" zoomAndPan="magnify" viewBox="0 0 272.25 155.249994" height="207" preserveAspectRatio="xMidYMid meet" version="1.0"><defs><clipPath id="9d3dbb0799"><path d="M 30.121094 9 L 241 9 L 241 143.308594 L 30.121094 143.308594 Z M 30.121094 9 " clip-rule="nonzero"/></clipPath><clipPath id="7056527170"><path d="M 148.746094 16.261719 L 238.230469 127.117188 C 240.648438 130.109375 241.128906 134.226562 239.46875 137.695312 C 237.8125 141.167969 234.304688 143.378906 230.457031 143.378906 L 40.777344 143.378906 C 36.929688 143.378906 33.425781 141.167969 31.765625 137.695312 C 30.109375 134.226562 30.589844 130.109375 33.007812 127.117188 L 122.492188 16.261719 C 125.695312 12.292969 130.519531 9.988281 135.617188 9.988281 C 140.71875 9.988281 145.542969 12.292969 148.746094 16.261719 Z M 148.746094 16.261719 " clip-rule="nonzero"/></clipPath></defs><g clip-path="url(#9d3dbb0799)"><g clip-path="url(#7056527170)"><path fill="#000000" d="M 160.332031 27.050781 L 168.769531 37.503906 L 165.285156 40.316406 L 156.847656 29.863281 Z M 170.175781 39.246094 L 178.617188 49.703125 L 175.132812 52.515625 L 166.691406 42.058594 Z M 180.023438 51.445312 L 188.460938 61.898438 L 184.976562 64.710938 L 176.539062 54.257812 Z M 189.867188 63.640625 L 198.304688 74.09375 L 194.820312 76.90625 L 186.382812 66.453125 Z M 199.714844 75.835938 L 208.152344 86.289062 L 204.667969 89.105469 L 196.226562 78.648438 Z M 209.558594 88.03125 L 217.996094 98.488281 L 214.511719 101.300781 L 206.074219 90.847656 Z M 219.402344 100.230469 L 227.84375 110.683594 L 224.359375 113.496094 L 215.917969 103.042969 Z M 229.25 112.425781 L 237.6875 122.878906 L 234.203125 125.691406 L 225.765625 115.238281 Z M 239.09375 124.621094 L 239.972656 125.710938 C 243.199219 129.710938 243.707031 134.027344 241.488281 138.664062 C 241.339844 138.976562 241.179688 139.28125 241.003906 139.582031 L 237.140625 137.3125 C 237.25 137.125 237.355469 136.929688 237.449219 136.730469 C 238.855469 133.792969 238.53125 131.058594 236.488281 128.523438 L 235.609375 127.433594 Z M 239.363281 141.769531 C 236.949219 144.335938 233.980469 145.617188 230.457031 145.617188 L 225.144531 145.617188 L 225.144531 141.136719 L 230.457031 141.136719 C 232.691406 141.136719 234.570312 140.324219 236.101562 138.699219 Z M 222.90625 145.617188 L 209.472656 145.617188 L 209.472656 141.136719 L 222.90625 141.136719 Z M 207.230469 145.617188 L 193.796875 145.617188 L 193.796875 141.136719 L 207.230469 141.136719 Z M 191.558594 145.617188 L 178.121094 145.617188 L 178.121094 141.136719 L 191.558594 141.136719 Z M 175.882812 145.617188 L 162.449219 145.617188 L 162.449219 141.136719 L 175.882812 141.136719 Z M 160.207031 145.617188 L 146.773438 145.617188 L 146.773438 141.136719 L 160.207031 141.136719 Z M 144.535156 145.617188 L 131.097656 145.617188 L 131.097656 141.136719 L 144.535156 141.136719 Z M 128.859375 145.617188 L 115.425781 145.617188 L 115.425781 141.136719 L 128.859375 141.136719 Z M 113.1875 145.617188 L 99.75 145.617188 L 99.75 141.136719 L 113.1875 141.136719 Z M 97.511719 145.617188 L 84.078125 145.617188 L 84.078125 141.136719 L 97.511719 141.136719 Z M 81.835938 145.617188 L 68.402344 145.617188 L 68.402344 141.136719 L 81.835938 141.136719 Z M 66.164062 145.617188 L 52.726562 145.617188 L 52.726562 141.136719 L 66.164062 141.136719 Z M 50.488281 145.617188 L 40.777344 145.617188 C 39.234375 145.617188 37.742188 145.335938 36.304688 144.769531 L 37.945312 140.601562 C 38.855469 140.960938 39.796875 141.136719 40.777344 141.136719 L 50.488281 141.136719 Z M 33.886719 143.488281 C 32.074219 142.25 30.691406 140.644531 29.746094 138.664062 C 28.210938 135.449219 28.101562 132.191406 29.414062 128.878906 L 33.574219 130.53125 C 32.742188 132.628906 32.8125 134.695312 33.789062 136.730469 C 34.386719 137.988281 35.261719 139.003906 36.410156 139.789062 Z M 30.699219 126.464844 C 30.878906 126.207031 31.066406 125.957031 31.265625 125.710938 L 39.226562 115.847656 L 42.710938 118.660156 L 34.75 128.523438 C 34.625 128.679688 34.503906 128.839844 34.390625 129.003906 Z M 40.632812 114.105469 L 49.070312 103.652344 L 52.554688 106.464844 L 44.117188 116.917969 Z M 50.476562 101.910156 L 58.917969 91.453125 L 62.402344 94.265625 L 53.960938 104.722656 Z M 60.324219 89.710938 L 68.761719 79.257812 L 72.246094 82.070312 L 63.808594 92.523438 Z M 70.167969 77.515625 L 78.605469 67.0625 L 82.09375 69.875 L 73.652344 80.328125 Z M 80.011719 65.320312 L 88.453125 54.863281 L 91.9375 57.679688 L 83.5 68.132812 Z M 89.859375 53.121094 L 98.296875 42.667969 L 101.78125 45.480469 L 93.34375 55.9375 Z M 99.703125 40.925781 L 108.144531 30.472656 L 111.628906 33.285156 L 103.1875 43.738281 Z M 109.550781 28.730469 L 117.988281 18.277344 L 121.472656 21.089844 L 113.035156 31.542969 Z M 119.394531 16.535156 L 120.75 14.855469 C 123.535156 11.402344 127.089844 9.191406 131.414062 8.214844 L 132.398438 12.585938 C 129.089844 13.332031 126.367188 15.027344 124.234375 17.667969 L 122.878906 19.347656 Z M 133.914062 7.824219 C 134.480469 7.773438 135.050781 7.75 135.617188 7.75 C 140.335938 7.75 144.480469 9.285156 148.058594 12.351562 L 145.144531 15.753906 C 142.402344 13.402344 139.230469 12.226562 135.617188 12.226562 C 135.183594 12.226562 134.746094 12.246094 134.3125 12.285156 Z M 149.871094 14.128906 C 150.082031 14.367188 150.289062 14.609375 150.488281 14.855469 L 158.925781 25.308594 L 155.441406 28.121094 L 147.003906 17.667969 C 146.851562 17.476562 146.691406 17.292969 146.53125 17.113281 Z M 149.871094 14.128906 " fill-opacity="1" fill-rule="nonzero"/></g></g><path stroke-linecap="butt" transform="matrix(0.746394, 0, 0, 0.746394, 16.443171, 47.909295)" fill="none" stroke-linejoin="miter" d="M 165.784284 62.117504 C 165.784284 61.002769 166.626876 60.432318 167.17116 59.704863 C 171.572529 53.916617 175.853528 47.9452 178.930822 41.225392 C 180.071724 38.875553 181.097489 36.368709 181.4586 33.751962 C 182.578568 27.869514 178.564478 24.227001 172.776233 25.640045 C 171.93364 25.817984 171.091047 26.184328 170.269389 26.571607 C 168.196925 27.508403 166.328567 28.895279 164.664316 30.402525 C 159.059243 35.253975 154.778244 41.13119 151.130498 47.557921 C 150.65425 48.217342 150.471078 49.154137 149.717455 49.609451 C 149.356343 49.337309 149.445313 48.970965 149.534282 48.672656 C 149.926794 44.208485 150.382108 39.718146 150.74322 35.253975 C 151.041529 32.061543 151.407873 28.806309 151.680015 25.545842 C 151.795152 23.588515 151.795152 23.588515 149.628485 23.473378 C 148.60272 23.384409 147.576955 23.290206 146.462221 23.290206 C 144.316488 23.290206 144.227519 23.290206 143.473895 25.430705 C 142.175989 28.712106 141.333396 32.155746 140.762945 35.62032 C 138.051995 52.137229 137.324539 68.659372 137.963025 85.359454 C 138.051995 87.138842 137.690884 88.253577 136.000465 89.185139 C 133.770996 90.394076 131.719466 91.990292 130.212219 94.041822 C 127.616406 97.391259 128.343862 100.191178 132.17478 101.876364 C 133.770996 102.629987 135.545151 102.902129 137.230336 103.179504 C 138.256101 103.268473 139.192897 103.472579 139.281866 104.770486 C 139.281866 105.613079 139.920352 105.979423 140.673976 105.979423 C 142.44813 105.979423 144.227519 105.979423 146.006907 105.979423 C 146.823332 105.979423 147.487986 105.613079 147.393783 104.770486 C 147.121641 102.72419 148.513751 102.357845 150.104733 101.970566 C 158.399822 99.735864 165.967456 95.815977 172.504091 90.027731 C 176.879292 86.202047 180.616008 81.711708 182.756507 76.221772 C 183.51013 74.264445 184.719068 73.327649 186.587425 72.574026 C 190.140968 71.166216 193.694511 69.590934 197.22712 67.994718 C 198.729133 67.356232 198.823336 66.791014 197.980743 65.398905 C 197.410293 64.258003 196.682837 64.462109 195.746041 64.828454 C 192.46464 66.220564 189.115203 67.633607 185.744833 69.020483 C 184.719068 69.501965 184.263754 69.203656 183.897409 68.177891 C 182.212224 63.41541 178.475508 61.458083 173.801998 60.908566 C 171.002078 60.636425 168.401031 61.36388 165.784284 62.117504 Z M 149.926794 66.607842 C 153.182028 55.873944 157.46826 45.600594 164.941691 37.007196 C 166.810049 34.772493 168.584203 32.543025 171.002078 30.763636 C 172.027843 30.015247 173.142577 28.712106 174.466651 29.737871 C 175.581386 30.580464 174.738793 31.972574 174.283479 33.087308 C 172.415121 38.509209 169.976313 43.638034 166.899018 48.489483 C 161.592254 56.899709 155.41673 64.739485 149.445313 72.668229 C 149.262141 72.851401 149.078968 73.23868 148.513751 73.23868 C 148.60272 70.888841 149.262141 68.748342 149.926794 66.607842 Z M 159.514557 71.166216 C 161.953365 69.203656 164.277037 67.246329 167.08219 65.854219 C 168.013752 65.398905 168.950548 65.011626 169.976313 64.739485 C 173.257714 63.71372 175.670355 65.283768 176.240806 68.659372 C 176.335009 69.407762 176.240806 70.250355 176.240806 70.983044 C 176.335009 72.301885 175.670355 73.123543 174.466651 73.599791 C 166.328567 76.771289 158.21665 79.754381 150.015764 82.648504 C 149.811657 82.737473 149.534282 82.648504 148.989999 82.648504 C 152.156263 78.362271 155.41673 74.353414 159.514557 71.166216 Z M 172.320919 80.230629 C 166.626876 88.436749 159.059243 94.130791 149.717455 97.506395 C 147.665925 98.233851 147.487986 98.139648 147.393783 95.910179 C 147.393783 94.041822 147.487986 92.173464 147.393783 90.394076 C 147.393783 89.185139 147.760128 88.342546 148.989999 87.981435 C 150.015764 87.594156 150.947326 87.138842 151.884121 86.657361 C 158.399822 84.061547 164.847488 81.439566 171.389356 78.817586 C 171.93364 78.639647 172.504091 78.179099 173.142577 78.456474 C 173.346684 79.204864 172.687263 79.660178 172.320919 80.230629 Z M 138.533476 98.139648 C 138.622446 98.710099 138.805618 99.463722 137.779853 99.463722 C 137.02623 99.463722 136.481946 98.893272 136.387743 98.139648 C 136.387743 96.935944 136.754088 95.815977 137.868822 95.067587 C 138.711415 96.093352 138.533476 97.208086 138.533476 98.139648 Z M 138.533476 98.139648 " stroke="#000000" stroke-width="1.749999" stroke-opacity="1" stroke-miterlimit="4"/></svg>