<svg xmlns="http://www.w3.org/2000/svg" xmlns:xlink="http://www.w3.org/1999/xlink" width="359" zoomAndPan="magnify" viewBox="0 0 269.25 159.000002" height="212" preserveAspectRatio="xMidYMid meet" version="1.0"><defs><clipPath id="a12f69d299"><path d="M 29 9 L 239 9 L 239 143.101562 L 29 143.101562 Z M 29 9 " clip-rule="nonzero"/></clipPath><clipPath id="c79d4174db"><path d="M 147.289062 16.238281 L 236.648438 126.933594 C 239.058594 129.921875 239.542969 134.03125 237.882812 137.496094 C 236.226562 140.964844 232.726562 143.167969 228.886719 143.167969 L 39.480469 143.167969 C 35.640625 143.167969 32.140625 140.964844 30.484375 137.496094 C 28.828125 134.03125 29.308594 129.921875 31.722656 126.933594 L 121.078125 16.238281 C 124.273438 12.277344 129.09375 9.972656 134.183594 9.972656 C 139.273438 9.972656 144.09375 12.277344 147.289062 16.238281 Z M 147.289062 16.238281 " clip-rule="nonzero"/></clipPath></defs><g clip-path="url(#a12f69d299)"><g clip-path="url(#c79d4174db)"><path fill="#000000" d="M 158.863281 27.011719 L 167.289062 37.449219 L 163.808594 40.257812 L 155.382812 29.820312 Z M 168.691406 39.191406 L 177.117188 49.628906 L 173.640625 52.4375 L 165.210938 42 Z M 178.523438 51.367188 L 186.949219 61.808594 L 183.46875 64.617188 L 175.042969 54.179688 Z M 188.355469 63.546875 L 196.78125 73.988281 L 193.300781 76.796875 L 184.875 66.355469 Z M 198.183594 75.726562 L 206.613281 86.164062 L 203.132812 88.972656 L 194.707031 78.535156 Z M 208.015625 87.90625 L 216.441406 98.34375 L 212.964844 101.152344 L 204.535156 90.714844 Z M 217.847656 100.085938 L 226.273438 110.523438 L 222.792969 113.332031 L 214.367188 102.894531 Z M 227.679688 112.261719 L 236.105469 122.703125 L 232.625 125.511719 L 224.199219 115.070312 Z M 237.507812 124.441406 L 238.386719 125.527344 C 241.609375 129.519531 242.113281 133.832031 239.902344 138.460938 C 239.753906 138.773438 239.589844 139.082031 239.414062 139.378906 L 235.558594 137.117188 C 235.667969 136.925781 235.773438 136.730469 235.867188 136.535156 C 237.269531 133.597656 236.949219 130.867188 234.90625 128.335938 L 234.03125 127.25 Z M 237.777344 141.566406 C 235.367188 144.125 232.402344 145.40625 228.886719 145.40625 L 223.582031 145.40625 L 223.582031 140.933594 L 228.886719 140.933594 C 231.113281 140.933594 232.992188 140.121094 234.519531 138.5 Z M 221.34375 145.40625 L 207.929688 145.40625 L 207.929688 140.933594 L 221.34375 140.933594 Z M 205.691406 145.40625 L 192.277344 145.40625 L 192.277344 140.933594 L 205.691406 140.933594 Z M 190.042969 145.40625 L 176.625 145.40625 L 176.625 140.933594 L 190.042969 140.933594 Z M 174.390625 145.40625 L 160.972656 145.40625 L 160.972656 140.933594 L 174.390625 140.933594 Z M 158.738281 145.40625 L 145.324219 145.40625 L 145.324219 140.933594 L 158.738281 140.933594 Z M 143.085938 145.40625 L 129.671875 145.40625 L 129.671875 140.933594 L 143.085938 140.933594 Z M 127.433594 145.40625 L 114.019531 145.40625 L 114.019531 140.933594 L 127.433594 140.933594 Z M 111.785156 145.40625 L 98.367188 145.40625 L 98.367188 140.933594 L 111.785156 140.933594 Z M 96.132812 145.40625 L 82.714844 145.40625 L 82.714844 140.933594 L 96.132812 140.933594 Z M 80.480469 145.40625 L 67.066406 145.40625 L 67.066406 140.933594 L 80.480469 140.933594 Z M 64.828125 145.40625 L 51.414062 145.40625 L 51.414062 140.933594 L 64.828125 140.933594 Z M 49.175781 145.40625 L 39.480469 145.40625 C 37.9375 145.40625 36.449219 145.125 35.015625 144.558594 L 36.652344 140.398438 C 37.558594 140.753906 38.503906 140.933594 39.480469 140.933594 L 49.175781 140.933594 Z M 32.597656 143.28125 C 30.789062 142.046875 29.410156 140.4375 28.464844 138.460938 C 26.933594 135.253906 26.820312 132 28.132812 128.695312 L 32.289062 130.34375 C 31.457031 132.4375 31.527344 134.5 32.5 136.535156 C 33.097656 137.785156 33.972656 138.804688 35.117188 139.585938 Z M 29.417969 126.285156 C 29.597656 126.023438 29.785156 125.773438 29.980469 125.527344 L 37.929688 115.679688 L 41.410156 118.488281 L 33.460938 128.335938 C 33.335938 128.492188 33.214844 128.652344 33.101562 128.816406 Z M 39.335938 113.941406 L 47.761719 103.5 L 51.242188 106.308594 L 42.816406 116.75 Z M 49.167969 101.761719 L 57.59375 91.320312 L 61.074219 94.128906 L 52.644531 104.570312 Z M 58.996094 89.582031 L 67.425781 79.144531 L 70.902344 81.953125 L 62.476562 92.390625 Z M 68.828125 77.402344 L 77.253906 66.964844 L 80.734375 69.773438 L 72.308594 80.210938 Z M 78.660156 65.222656 L 87.085938 54.785156 L 90.566406 57.59375 L 82.140625 68.035156 Z M 88.492188 53.046875 L 96.917969 42.605469 L 100.398438 45.414062 L 91.96875 55.855469 Z M 98.320312 40.867188 L 106.75 30.429688 L 110.226562 33.238281 L 101.800781 43.675781 Z M 108.152344 28.6875 L 116.578125 18.25 L 120.058594 21.058594 L 111.632812 31.496094 Z M 117.984375 16.507812 L 119.335938 14.832031 C 122.117188 11.386719 125.667969 9.179688 129.988281 8.203125 L 130.96875 12.566406 C 127.664062 13.3125 124.945312 15.003906 122.816406 17.640625 L 121.464844 19.316406 Z M 132.484375 7.8125 C 133.046875 7.761719 133.617188 7.738281 134.183594 7.738281 C 138.890625 7.738281 143.035156 9.269531 146.605469 12.335938 L 143.695312 15.730469 C 140.960938 13.382812 137.789062 12.207031 134.183594 12.207031 C 133.75 12.207031 133.3125 12.226562 132.882812 12.265625 Z M 148.417969 14.109375 C 148.628906 14.347656 148.832031 14.585938 149.03125 14.832031 L 157.457031 25.273438 L 153.976562 28.082031 L 145.550781 17.640625 C 145.398438 17.453125 145.242188 17.269531 145.082031 17.089844 Z M 148.417969 14.109375 " fill-opacity="1" fill-rule="nonzero"/></g></g><path stroke-linecap="butt" transform="matrix(0.745312, 0, 0, 0.745312, 15.181164, 53.247108)" fill="none" stroke-linejoin="miter" d="M 140.637436 92.063632 C 142.125906 92.063632 143.378526 91.586693 144.395298 90.632814 C 145.427793 89.657971 145.972866 88.489208 146.035759 87.121284 L 146.035759 42.78166 C 146.035759 41.413735 145.506409 40.265937 144.442468 39.338264 C 143.39425 38.400108 142.125906 37.92841 140.637436 37.92841 L 139.316681 37.92841 L 139.316681 36.995496 L 166.56511 36.995496 C 169.117521 36.995496 171.360707 36.812058 173.289429 36.445182 C 175.21815 36.067823 176.460288 35.753358 177.026326 35.512268 L 177.026326 46.151681 L 175.999072 46.062582 L 175.999072 44.647488 C 175.999072 43.342457 175.558821 42.226104 174.678318 41.298431 C 173.813538 40.355035 172.697186 39.888578 171.329261 39.888578 L 151.916262 39.888578 L 151.916262 63.604512 L 167.885865 63.604512 C 169.133244 63.604512 170.081881 63.232394 170.737018 62.488159 C 171.386913 61.728201 171.717102 60.795287 171.717102 59.689417 L 171.717102 58.457761 L 172.739114 58.457761 L 172.739114 71.534281 L 171.717102 71.534281 L 171.717102 70.32883 C 171.717102 68.583547 171.061965 67.399061 169.756934 66.775371 C 169.253789 66.591933 168.724439 66.471388 168.158401 66.408495 L 151.916262 66.408495 L 151.916262 90.108705 L 166.56511 90.108705 C 169.437227 90.108705 171.85337 89.610802 173.813538 88.625477 C 175.773706 87.624428 177.262175 86.439942 178.278947 85.072017 C 179.311441 83.704093 180.35966 81.895917 181.423601 79.647489 L 182.356515 79.647489 L 177.204523 93.001787 L 139.316681 93.001787 L 139.316681 92.063632 Z M 140.637436 92.063632 " stroke="#000000" stroke-width="1.749994" stroke-opacity="1" stroke-miterlimit="4"/></svg>