<svg xmlns="http://www.w3.org/2000/svg" xmlns:xlink="http://www.w3.org/1999/xlink" width="377" zoomAndPan="magnify" viewBox="0 0 282.75 165.750002" height="221" preserveAspectRatio="xMidYMid meet" version="1.0"><defs><clipPath id="fd7448a4d6"><path d="M 35.234375 10 L 247 10 L 247 143.78125 L 35.234375 143.78125 Z M 35.234375 10 " clip-rule="nonzero"/></clipPath><clipPath id="39c4ad8413"><path d="M 154.25 16.316406 L 244.035156 127.539062 C 246.457031 130.542969 246.941406 134.671875 245.277344 138.152344 C 243.613281 141.636719 240.097656 143.851562 236.238281 143.851562 L 45.925781 143.851562 C 42.066406 143.851562 38.550781 141.636719 36.886719 138.152344 C 35.222656 134.671875 35.703125 130.542969 38.128906 127.539062 L 127.910156 16.316406 C 131.125 12.335938 135.964844 10.019531 141.082031 10.019531 C 146.195312 10.019531 151.039062 12.335938 154.25 16.316406 Z M 154.25 16.316406 " clip-rule="nonzero"/></clipPath></defs><path stroke-linecap="butt" transform="matrix(0.74887, 0, 0, 0.74887, 21.510782, 53.115158)" fill="none" stroke-linejoin="miter" d="M 192.843766 14.070772 L 192.843766 28.264023 L 191.727502 28.264023 C 191.607529 27.445081 191.404098 26.746112 191.111991 26.167115 C 190.840749 25.572469 190.173077 25.280363 189.108975 25.280363 L 140.963548 25.280363 L 140.963548 46.744981 L 174.842697 46.744981 C 175.708585 46.744981 176.308446 46.520685 176.642282 46.082525 C 176.991767 45.639149 177.231712 44.867153 177.351684 43.756105 L 178.467949 43.756105 L 178.467949 58.319705 L 177.351684 58.319705 C 177.231712 56.937415 176.965686 56.029798 176.553607 55.607287 C 176.157177 55.16391 175.552099 54.944831 174.727941 54.944831 L 140.963548 54.944831 L 140.963548 76.795447 L 188.926408 76.795447 C 189.865322 76.795447 190.522562 76.607664 190.887695 76.226882 C 191.263261 75.846101 191.544935 75.037591 191.727502 73.790922 L 192.843766 73.790922 L 192.843766 87.984173 L 191.727502 87.984173 C 191.544935 86.737504 191.263261 85.928994 190.887695 85.548213 C 190.522562 85.183079 189.865322 85.000513 188.926408 85.000513 L 128.637693 85.000513 L 128.637693 83.884248 C 129.821768 83.884248 130.578116 83.748627 130.911952 83.472169 C 131.261436 83.185279 131.438787 82.637579 131.438787 81.834286 L 131.438787 20.309334 C 131.438787 19.443447 131.261436 18.874882 130.911952 18.60364 C 130.578116 18.311534 129.821768 18.170697 128.637693 18.170697 L 128.637693 17.054432 L 189.015083 17.054432 C 189.959213 17.054432 190.595588 16.856217 190.929425 16.459787 C 191.278909 16.052924 191.544935 15.254847 191.727502 14.070772 Z M 192.843766 14.070772 " stroke="#000000" stroke-width="1.749999" stroke-opacity="1" stroke-miterlimit="4"/><g clip-path="url(#fd7448a4d6)"><g clip-path="url(#39c4ad8413)"><path fill="#000000" d="M 165.878906 27.140625 L 174.34375 37.628906 L 170.847656 40.453125 L 162.378906 29.960938 Z M 175.753906 39.378906 L 184.222656 49.867188 L 180.726562 52.6875 L 172.257812 42.199219 Z M 185.632812 51.613281 L 194.101562 62.101562 L 190.601562 64.925781 L 182.136719 54.4375 Z M 195.511719 63.851562 L 203.976562 74.339844 L 200.480469 77.164062 L 192.015625 66.671875 Z M 205.390625 76.089844 L 213.855469 86.578125 L 210.359375 89.398438 L 201.890625 78.910156 Z M 215.265625 88.324219 L 223.734375 98.8125 L 220.238281 101.636719 L 211.769531 91.148438 Z M 225.144531 100.5625 L 233.613281 111.050781 L 230.113281 113.871094 L 221.648438 103.382812 Z M 235.023438 112.800781 L 243.488281 123.289062 L 239.992188 126.109375 L 231.527344 115.621094 Z M 244.902344 125.035156 L 245.78125 126.128906 C 249.019531 130.140625 249.527344 134.472656 247.304688 139.121094 C 247.152344 139.4375 246.992188 139.742188 246.816406 140.042969 L 242.941406 137.769531 C 243.050781 137.578125 243.15625 137.382812 243.25 137.183594 C 244.660156 134.238281 244.335938 131.492188 242.285156 128.949219 L 241.402344 127.859375 Z M 245.167969 142.242188 C 242.746094 144.8125 239.769531 146.101562 236.238281 146.101562 L 230.90625 146.101562 L 230.90625 141.605469 L 236.238281 141.605469 C 238.476562 141.605469 240.363281 140.792969 241.898438 139.160156 Z M 228.660156 146.101562 L 215.179688 146.101562 L 215.179688 141.605469 L 228.660156 141.605469 Z M 212.933594 146.101562 L 199.453125 146.101562 L 199.453125 141.605469 L 212.933594 141.605469 Z M 197.207031 146.101562 L 183.726562 146.101562 L 183.726562 141.605469 L 197.207031 141.605469 Z M 181.480469 146.101562 L 168 146.101562 L 168 141.605469 L 181.480469 141.605469 Z M 165.753906 146.101562 L 152.273438 146.101562 L 152.273438 141.605469 L 165.753906 141.605469 Z M 150.027344 146.101562 L 136.546875 146.101562 L 136.546875 141.605469 L 150.027344 141.605469 Z M 134.300781 146.101562 L 120.820312 146.101562 L 120.820312 141.605469 L 134.300781 141.605469 Z M 118.574219 146.101562 L 105.09375 146.101562 L 105.09375 141.605469 L 118.574219 141.605469 Z M 102.847656 146.101562 L 89.367188 146.101562 L 89.367188 141.605469 L 102.847656 141.605469 Z M 87.121094 146.101562 L 73.640625 146.101562 L 73.640625 141.605469 L 87.121094 141.605469 Z M 71.394531 146.101562 L 57.917969 146.101562 L 57.917969 141.605469 L 71.394531 141.605469 Z M 55.667969 146.101562 L 45.925781 146.101562 C 44.375 146.101562 42.878906 145.816406 41.4375 145.25 L 43.082031 141.070312 C 43.996094 141.425781 44.945312 141.605469 45.925781 141.605469 L 55.667969 141.605469 Z M 39.011719 143.964844 C 37.191406 142.722656 35.808594 141.109375 34.859375 139.121094 C 33.316406 135.898438 33.207031 132.628906 34.523438 129.308594 L 38.699219 130.964844 C 37.867188 133.070312 37.9375 135.144531 38.914062 137.183594 C 39.515625 138.445312 40.390625 139.46875 41.542969 140.253906 Z M 35.816406 126.886719 C 35.996094 126.625 36.183594 126.375 36.382812 126.128906 L 44.371094 116.230469 L 47.867188 119.054688 L 39.878906 128.949219 C 39.75 129.105469 39.632812 129.265625 39.519531 129.429688 Z M 45.78125 114.484375 L 54.246094 103.996094 L 57.742188 106.816406 L 49.277344 117.304688 Z M 55.660156 102.246094 L 64.125 91.757812 L 67.621094 94.582031 L 59.15625 105.070312 Z M 65.535156 90.011719 L 74.003906 79.519531 L 77.5 82.34375 L 69.03125 92.832031 Z M 75.414062 77.773438 L 83.882812 67.285156 L 87.378906 70.105469 L 78.910156 80.59375 Z M 85.292969 65.535156 L 93.757812 55.046875 L 97.253906 57.871094 L 88.789062 68.359375 Z M 95.171875 53.300781 L 103.636719 42.808594 L 107.132812 45.632812 L 98.667969 56.121094 Z M 105.046875 41.0625 L 113.515625 30.574219 L 117.011719 33.394531 L 108.542969 43.882812 Z M 114.925781 28.824219 L 123.394531 18.335938 L 126.890625 21.160156 L 118.421875 31.648438 Z M 124.804688 16.589844 L 126.164062 14.902344 C 128.957031 11.441406 132.523438 9.222656 136.863281 8.242188 L 137.851562 12.625 C 134.53125 13.375 131.800781 15.074219 129.660156 17.726562 L 128.300781 19.410156 Z M 139.371094 7.851562 C 139.941406 7.800781 140.511719 7.773438 141.082031 7.773438 C 145.8125 7.773438 149.972656 9.3125 153.5625 12.394531 L 150.640625 15.804688 C 147.890625 13.445312 144.703125 12.265625 141.082031 12.265625 C 140.644531 12.265625 140.207031 12.285156 139.773438 12.324219 Z M 155.382812 14.175781 C 155.59375 14.414062 155.800781 14.65625 156 14.902344 L 164.464844 25.390625 L 160.96875 28.214844 L 152.503906 17.726562 C 152.351562 17.535156 152.191406 17.351562 152.03125 17.167969 Z M 155.382812 14.175781 " fill-opacity="1" fill-rule="nonzero"/></g></g></svg>