<svg xmlns="http://www.w3.org/2000/svg" xmlns:xlink="http://www.w3.org/1999/xlink" width="368" zoomAndPan="magnify" viewBox="0 0 276 157.5" height="210" preserveAspectRatio="xMidYMid meet" version="1.0"><defs><clipPath id="3e28d1ccfc"><path d="M 32.105469 10 L 243 10 L 243 143.542969 L 32.105469 143.542969 Z M 32.105469 10 " clip-rule="nonzero"/></clipPath><clipPath id="a0250de86c"><path d="M 150.925781 16.289062 L 240.558594 127.328125 C 242.976562 130.324219 243.460938 134.449219 241.800781 137.925781 C 240.136719 141.402344 236.628906 143.613281 232.773438 143.613281 L 42.78125 143.613281 C 38.925781 143.613281 35.414062 141.402344 33.753906 137.925781 C 32.09375 134.449219 32.574219 130.324219 34.996094 127.328125 L 124.628906 16.289062 C 127.835938 12.3125 132.667969 10.003906 137.777344 10.003906 C 142.882812 10.003906 147.714844 12.3125 150.925781 16.289062 Z M 150.925781 16.289062 " clip-rule="nonzero"/></clipPath></defs><g clip-path="url(#3e28d1ccfc)"><g clip-path="url(#a0250de86c)"><path fill="#000000" d="M 162.53125 27.09375 L 170.984375 37.566406 L 167.492188 40.382812 L 159.039062 29.914062 Z M 172.394531 39.3125 L 180.84375 49.785156 L 177.355469 52.601562 L 168.902344 42.128906 Z M 182.253906 51.527344 L 190.707031 62 L 187.214844 64.816406 L 178.761719 54.347656 Z M 192.117188 63.746094 L 200.570312 74.214844 L 197.078125 77.035156 L 188.625 66.5625 Z M 201.976562 75.960938 L 210.429688 86.433594 L 206.9375 89.25 L 198.488281 78.78125 Z M 211.839844 88.179688 L 220.292969 98.648438 L 216.800781 101.46875 L 208.347656 90.996094 Z M 221.699219 100.394531 L 230.152344 110.867188 L 226.664062 113.683594 L 218.210938 103.210938 Z M 231.5625 112.613281 L 240.015625 123.082031 L 236.523438 125.902344 L 228.070312 115.429688 Z M 241.421875 124.828125 L 242.304688 125.917969 C 245.535156 129.921875 246.042969 134.246094 243.824219 138.890625 C 243.671875 139.207031 243.511719 139.511719 243.335938 139.8125 L 239.464844 137.542969 C 239.578125 137.351562 239.679688 137.15625 239.777344 136.957031 C 241.183594 134.015625 240.863281 131.273438 238.8125 128.734375 L 237.933594 127.644531 Z M 241.691406 142.003906 C 239.273438 144.574219 236.300781 145.855469 232.773438 145.855469 L 227.453125 145.855469 L 227.453125 141.371094 L 232.773438 141.371094 C 235.007812 141.371094 236.894531 140.558594 238.425781 138.929688 Z M 225.207031 145.855469 L 211.75 145.855469 L 211.75 141.371094 L 225.207031 141.371094 Z M 209.507812 145.855469 L 196.050781 145.855469 L 196.050781 141.371094 L 209.507812 141.371094 Z M 193.808594 145.855469 L 180.351562 145.855469 L 180.351562 141.371094 L 193.808594 141.371094 Z M 178.109375 145.855469 L 164.652344 145.855469 L 164.652344 141.371094 L 178.109375 141.371094 Z M 162.40625 145.855469 L 148.949219 145.855469 L 148.949219 141.371094 L 162.40625 141.371094 Z M 146.707031 145.855469 L 133.25 145.855469 L 133.25 141.371094 L 146.707031 141.371094 Z M 131.007812 145.855469 L 117.550781 145.855469 L 117.550781 141.371094 L 131.007812 141.371094 Z M 115.308594 145.855469 L 101.851562 145.855469 L 101.851562 141.371094 L 115.308594 141.371094 Z M 99.605469 145.855469 L 86.148438 145.855469 L 86.148438 141.371094 L 99.605469 141.371094 Z M 83.90625 145.855469 L 70.449219 145.855469 L 70.449219 141.371094 L 83.90625 141.371094 Z M 68.207031 145.855469 L 54.75 145.855469 L 54.75 141.371094 L 68.207031 141.371094 Z M 52.507812 145.855469 L 42.78125 145.855469 C 41.230469 145.855469 39.738281 145.574219 38.300781 145.007812 L 39.941406 140.835938 C 40.851562 141.191406 41.796875 141.371094 42.78125 141.371094 L 52.507812 141.371094 Z M 35.875 143.726562 C 34.058594 142.488281 32.679688 140.875 31.730469 138.890625 C 30.191406 135.675781 30.082031 132.40625 31.394531 129.09375 L 35.566406 130.746094 C 34.730469 132.847656 34.804688 134.917969 35.777344 136.957031 C 36.378906 138.214844 37.253906 139.234375 38.402344 140.019531 Z M 32.6875 126.675781 C 32.863281 126.417969 33.050781 126.164062 33.25 125.917969 L 41.226562 116.039062 L 44.714844 118.855469 L 36.742188 128.734375 C 36.613281 128.890625 36.496094 129.050781 36.382812 129.214844 Z M 42.632812 114.292969 L 51.085938 103.820312 L 54.578125 106.640625 L 46.125 117.109375 Z M 52.496094 102.078125 L 60.949219 91.605469 L 64.4375 94.421875 L 55.984375 104.894531 Z M 62.355469 89.859375 L 70.808594 79.390625 L 74.300781 82.207031 L 65.847656 92.679688 Z M 72.21875 77.644531 L 80.671875 67.171875 L 84.160156 69.988281 L 75.710938 80.460938 Z M 82.078125 65.425781 L 90.53125 54.957031 L 94.023438 57.773438 L 85.570312 68.246094 Z M 91.941406 53.210938 L 100.394531 42.738281 L 103.886719 45.558594 L 95.433594 56.027344 Z M 101.804688 40.992188 L 110.253906 30.523438 L 113.746094 33.339844 L 105.292969 43.8125 Z M 111.664062 28.777344 L 120.117188 18.304688 L 123.609375 21.125 L 115.15625 31.59375 Z M 121.527344 16.5625 L 122.882812 14.878906 C 125.671875 11.421875 129.234375 9.207031 133.566406 8.230469 L 134.554688 12.605469 C 131.238281 13.355469 128.511719 15.050781 126.375 17.695312 L 125.015625 19.378906 Z M 136.070312 7.835938 C 136.636719 7.785156 137.207031 7.761719 137.777344 7.761719 C 142.5 7.761719 146.652344 9.296875 150.238281 12.375 L 147.316406 15.777344 C 144.574219 13.425781 141.394531 12.246094 137.777344 12.246094 C 137.339844 12.246094 136.90625 12.265625 136.46875 12.304688 Z M 152.054688 14.152344 C 152.265625 14.390625 152.46875 14.632812 152.667969 14.878906 L 161.121094 25.351562 L 157.632812 28.167969 L 149.179688 17.695312 C 149.027344 17.507812 148.871094 17.324219 148.707031 17.140625 Z M 152.054688 14.152344 " fill-opacity="1" fill-rule="nonzero"/></g></g><path stroke-linecap="butt" transform="matrix(0.747627, 0, 0, 0.747627, 18.404661, 48.224748)" fill="none" stroke-linejoin="miter" d="M 136.094261 95.65931 C 134.850742 95.65931 133.899816 95.304019 133.246708 94.588212 C 132.593599 93.861955 132.269658 92.87968 132.269658 91.651836 L 132.269658 32.569029 C 132.269658 31.262812 132.593599 30.264862 133.246708 29.580405 C 133.899816 28.901172 134.850742 28.556331 136.094261 28.556331 C 137.343004 28.556331 138.288705 28.901172 138.941814 29.580405 C 139.594922 30.264862 139.924089 31.262812 139.924089 32.569029 L 139.924089 58.317178 L 179.413641 58.317178 L 179.413641 32.569029 C 179.413641 31.262812 179.737583 30.264862 180.390691 29.580405 C 181.0438 28.901172 181.994726 28.556331 183.238244 28.556331 C 184.486988 28.556331 185.432689 28.901172 186.085797 29.580405 C 186.738906 30.264862 187.068073 31.262812 187.068073 32.569029 L 187.068073 91.651836 C 187.068073 92.87968 186.738906 93.861955 186.085797 94.588212 C 185.432689 95.304019 184.486988 95.65931 183.238244 95.65931 C 181.994726 95.65931 181.0438 95.304019 180.390691 94.588212 C 179.737583 93.861955 179.413641 92.87968 179.413641 91.651836 L 179.413641 64.947536 L 139.924089 64.947536 L 139.924089 91.651836 C 139.924089 92.87968 139.610597 93.861955 138.988838 94.588212 C 138.367078 95.304019 137.400478 95.65931 136.094261 95.65931 Z M 136.094261 95.65931 " stroke="#000000" stroke-width="1.749999" stroke-opacity="1" stroke-miterlimit="4"/></svg>