<svg xmlns="http://www.w3.org/2000/svg" xmlns:xlink="http://www.w3.org/1999/xlink" width="364" zoomAndPan="magnify" viewBox="0 0 273 161.249994" height="215" preserveAspectRatio="xMidYMid meet" version="1.0"><defs><clipPath id="3f34e78ca3"><path d="M 31 9 L 242 9 L 242 143.332031 L 31 143.332031 Z M 31 9 " clip-rule="nonzero"/></clipPath><clipPath id="2af2699906"><path d="M 149.574219 16.261719 L 239.078125 127.140625 C 241.492188 130.132812 241.976562 134.25 240.316406 137.722656 C 238.65625 141.191406 235.152344 143.402344 231.304688 143.402344 L 41.589844 143.402344 C 37.742188 143.402344 34.234375 141.191406 32.578125 137.722656 C 30.917969 134.25 31.398438 130.132812 33.816406 127.140625 L 123.316406 16.261719 C 126.519531 12.296875 131.347656 9.988281 136.445312 9.988281 C 141.546875 9.988281 146.371094 12.296875 149.574219 16.261719 Z M 149.574219 16.261719 " clip-rule="nonzero"/></clipPath></defs><path stroke-linecap="butt" transform="matrix(0.746528, 0, 0, 0.746528, 17.249651, 53.333942)" fill="none" stroke-linejoin="miter" d="M 146.789433 93.11082 C 147.448735 93.11082 147.815014 93.021866 148.291177 92.744541 C 150.1592 92.179424 152.027224 91.724192 153.874317 91.357913 C 157.427224 90.876517 164.721411 89.761982 167.887109 88.166052 C 168.91269 87.710819 169.184783 86.868377 168.729551 86.209075 C 168.640597 85.931749 168.342341 85.753842 167.887109 85.753842 C 167.410946 85.753842 167.13362 85.842796 166.861527 85.931749 C 163.967922 87.051517 161.074317 87.710819 157.997573 88.166052 C 157.793503 88.260238 157.52141 88.260238 157.249317 88.260238 C 156.584782 88.260238 156.312689 87.710819 156.584782 86.502098 C 160.985364 70.34919 166.019085 54.944538 171.235946 38.995699 C 171.717341 37.493955 172.648737 36.64628 174.129551 36.374187 C 177.865598 35.348606 181.606877 34.41721 185.342924 33.391629 C 186.368505 33.119536 187.116761 32.82128 187.938273 32.366048 C 188.419668 32.093954 188.691761 31.706745 188.597575 31.157326 C 188.597575 30.681164 188.053389 30.016629 187.66618 30.131745 C 187.210947 30.220699 186.823738 30.403838 186.551645 30.498024 C 184.589436 31.24628 182.538273 31.884652 180.48711 32.366048 C 178.346993 32.82128 176.2749 33.391629 174.223737 33.935815 C 173.857458 33.935815 173.402225 33.846862 173.402225 33.391629 C 173.287109 32.732327 173.015016 32.093954 172.355714 31.978838 L 172.078388 31.978838 C 171.806295 31.978838 171.534202 32.093954 171.330132 32.366048 C 171.146993 32.638141 170.963853 32.82128 170.780713 33.119536 L 170.50862 33.663722 C 170.210365 34.689304 169.462109 35.259652 168.253388 35.442792 C 165.652806 36.013141 156.971991 38.60849 155.559201 40.957909 C 155.287108 41.413141 155.376061 41.800351 155.653387 42.072444 C 155.836526 42.344537 156.12955 42.438723 156.495829 42.438723 C 156.767922 42.438723 157.066178 42.344537 157.249317 42.161397 C 160.503968 39.634071 164.240015 38.995699 167.981295 37.970118 L 168.253388 37.970118 C 168.729551 37.970118 168.823737 38.153257 168.729551 38.60849 C 168.640597 39.084653 168.546411 39.450932 168.436527 39.838141 C 168.342341 40.20442 168.159202 40.565467 168.070248 40.957909 C 166.955713 44.306746 165.835946 47.58756 164.810364 50.842212 C 163.695829 54.102096 162.555131 57.38291 161.52955 60.731747 C 160.142922 64.928259 158.840015 69.051516 157.793503 73.242795 C 156.678968 77.434074 155.470247 81.74047 154.261526 85.931749 L 153.602224 87.982912 C 153.419084 88.647447 153.052805 89.008494 152.393503 89.191633 C 150.891758 89.489889 149.410944 89.850936 147.903967 90.311401 C 147.359781 90.515471 146.695246 90.787564 146.035944 91.242796 C 145.669665 91.446866 145.580712 91.813145 145.669665 92.383494 C 145.946991 92.92768 146.3342 93.205006 146.789433 93.11082 Z M 146.789433 93.11082 " stroke="#000000" stroke-width="1.749999" stroke-opacity="1" stroke-miterlimit="4"/><g clip-path="url(#3f34e78ca3)"><g clip-path="url(#2af2699906)"><path fill="#000000" d="M 161.164062 27.054688 L 169.605469 37.511719 L 166.121094 40.324219 L 157.679688 29.867188 Z M 171.011719 39.253906 L 179.453125 49.710938 L 175.964844 52.523438 L 167.527344 42.066406 Z M 180.859375 51.453125 L 189.296875 61.910156 L 185.8125 64.722656 L 177.371094 54.265625 Z M 190.707031 63.652344 L 199.144531 74.105469 L 195.660156 76.921875 L 187.21875 66.464844 Z M 200.550781 75.851562 L 208.992188 86.304688 L 205.507812 89.121094 L 197.066406 78.664062 Z M 210.398438 88.046875 L 218.839844 98.503906 L 215.355469 101.316406 L 206.914062 90.863281 Z M 220.246094 100.246094 L 228.6875 110.703125 L 225.203125 113.515625 L 216.761719 103.0625 Z M 230.09375 112.445312 L 238.535156 122.902344 L 235.046875 125.714844 L 226.609375 115.257812 Z M 239.941406 124.644531 L 240.820312 125.734375 C 244.046875 129.730469 244.554688 134.050781 242.335938 138.6875 C 242.1875 139 242.023438 139.308594 241.847656 139.605469 L 237.984375 137.339844 C 238.097656 137.148438 238.199219 136.953125 238.296875 136.753906 C 239.699219 133.816406 239.378906 131.082031 237.332031 128.546875 L 236.457031 127.457031 Z M 240.207031 141.796875 C 237.792969 144.359375 234.824219 145.644531 231.304688 145.644531 L 225.988281 145.644531 L 225.988281 141.164062 L 231.304688 141.164062 C 233.535156 141.164062 235.417969 140.351562 236.949219 138.726562 Z M 223.75 145.644531 L 210.3125 145.644531 L 210.3125 141.164062 L 223.75 141.164062 Z M 208.074219 145.644531 L 194.636719 145.644531 L 194.636719 141.164062 L 208.074219 141.164062 Z M 192.394531 145.644531 L 178.957031 145.644531 L 178.957031 141.164062 L 192.394531 141.164062 Z M 176.71875 145.644531 L 163.28125 145.644531 L 163.28125 141.164062 L 176.71875 141.164062 Z M 161.042969 145.644531 L 147.605469 145.644531 L 147.605469 141.164062 L 161.042969 141.164062 Z M 145.363281 145.644531 L 131.925781 145.644531 L 131.925781 141.164062 L 145.363281 141.164062 Z M 129.6875 145.644531 L 116.25 145.644531 L 116.25 141.164062 L 129.6875 141.164062 Z M 114.011719 145.644531 L 100.574219 145.644531 L 100.574219 141.164062 L 114.011719 141.164062 Z M 98.332031 145.644531 L 84.894531 145.644531 L 84.894531 141.164062 L 98.332031 141.164062 Z M 82.65625 145.644531 L 69.21875 145.644531 L 69.21875 141.164062 L 82.65625 141.164062 Z M 66.980469 145.644531 L 53.542969 145.644531 L 53.542969 141.164062 L 66.980469 141.164062 Z M 51.300781 145.644531 L 41.589844 145.644531 C 40.042969 145.644531 38.550781 145.359375 37.117188 144.796875 L 38.753906 140.628906 C 39.664062 140.984375 40.609375 141.164062 41.589844 141.164062 L 51.300781 141.164062 Z M 34.695312 143.515625 C 32.882812 142.277344 31.503906 140.667969 30.554688 138.6875 C 29.019531 135.476562 28.910156 132.214844 30.222656 128.902344 L 34.386719 130.554688 C 33.554688 132.652344 33.625 134.71875 34.597656 136.753906 C 35.195312 138.011719 36.070312 139.03125 37.21875 139.816406 Z M 31.507812 126.488281 C 31.6875 126.230469 31.875 125.976562 32.074219 125.734375 L 40.035156 115.867188 L 43.523438 118.679688 L 35.558594 128.546875 C 35.433594 128.703125 35.3125 128.863281 35.199219 129.027344 Z M 41.445312 114.125 L 49.882812 103.667969 L 53.367188 106.484375 L 44.929688 116.9375 Z M 51.289062 101.925781 L 59.730469 91.472656 L 63.214844 94.285156 L 54.777344 104.742188 Z M 61.136719 89.726562 L 69.578125 79.273438 L 73.0625 82.085938 L 64.621094 92.542969 Z M 70.984375 77.53125 L 79.425781 67.074219 L 82.910156 69.886719 L 74.46875 80.34375 Z M 80.832031 65.332031 L 89.273438 54.875 L 92.757812 57.6875 L 84.316406 68.144531 Z M 90.679688 53.132812 L 99.117188 42.675781 L 102.605469 45.488281 L 94.164062 55.945312 Z M 100.527344 40.933594 L 108.964844 30.476562 L 112.449219 33.292969 L 104.011719 43.746094 Z M 110.371094 28.734375 L 118.8125 18.277344 L 122.296875 21.09375 L 113.859375 31.546875 Z M 120.21875 16.535156 L 121.574219 14.855469 C 124.359375 11.40625 127.917969 9.191406 132.242188 8.21875 L 133.226562 12.585938 C 129.914062 13.332031 127.191406 15.027344 125.0625 17.671875 L 123.703125 19.351562 Z M 134.742188 7.824219 C 135.308594 7.773438 135.878906 7.75 136.445312 7.75 C 141.164062 7.75 145.3125 9.285156 148.890625 12.355469 L 145.972656 15.753906 C 143.234375 13.402344 140.058594 12.230469 136.445312 12.230469 C 136.011719 12.230469 135.574219 12.25 135.140625 12.285156 Z M 150.703125 14.132812 C 150.914062 14.371094 151.117188 14.609375 151.316406 14.855469 L 159.757812 25.3125 L 156.273438 28.125 L 147.832031 17.671875 C 147.679688 17.480469 147.523438 17.296875 147.359375 17.117188 Z M 150.703125 14.132812 " fill-opacity="1" fill-rule="nonzero"/></g></g></svg>