<svg xmlns="http://www.w3.org/2000/svg" xmlns:xlink="http://www.w3.org/1999/xlink" width="369" zoomAndPan="magnify" viewBox="0 0 276.75 147.750002" height="197" preserveAspectRatio="xMidYMid meet" version="1.0"><defs><clipPath id="22e4455805"><path d="M 41 10 L 252 10 L 252 143.757812 L 41 143.757812 Z M 41 10 " clip-rule="nonzero"/></clipPath><clipPath id="a484515b9f"><path d="M 159.710938 16.3125 L 249.476562 127.515625 C 251.902344 130.519531 252.386719 134.644531 250.722656 138.128906 C 249.054688 141.609375 245.539062 143.828125 241.679688 143.828125 L 51.40625 143.828125 C 47.546875 143.828125 44.03125 141.609375 42.367188 138.128906 C 40.703125 134.644531 41.1875 130.519531 43.609375 127.515625 L 133.375 16.3125 C 136.589844 12.332031 141.429688 10.019531 146.542969 10.019531 C 151.660156 10.019531 156.5 12.332031 159.710938 16.3125 Z M 159.710938 16.3125 " clip-rule="nonzero"/></clipPath></defs><g clip-path="url(#22e4455805)"><g clip-path="url(#a484515b9f)"><path fill="#000000" d="M 171.335938 27.136719 L 179.800781 37.621094 L 176.304688 40.445312 L 167.839844 29.957031 Z M 181.210938 39.371094 L 189.675781 49.855469 L 186.179688 52.679688 L 177.714844 42.191406 Z M 191.085938 51.605469 L 199.550781 62.089844 L 196.058594 64.914062 L 187.589844 54.425781 Z M 200.964844 63.839844 L 209.429688 74.328125 L 205.933594 77.148438 L 197.46875 66.660156 Z M 210.839844 76.074219 L 219.304688 86.5625 L 215.808594 89.382812 L 207.34375 78.894531 Z M 220.714844 88.308594 L 229.179688 98.796875 L 225.683594 101.617188 L 217.21875 91.128906 Z M 230.589844 100.542969 L 239.058594 111.03125 L 235.5625 113.851562 L 227.097656 103.367188 Z M 240.46875 112.777344 L 248.933594 123.265625 L 245.4375 126.085938 L 236.972656 115.601562 Z M 250.34375 125.011719 L 251.226562 126.105469 C 254.460938 130.117188 254.96875 134.445312 252.746094 139.097656 C 252.597656 139.410156 252.433594 139.71875 252.257812 140.019531 L 248.382812 137.746094 C 248.496094 137.554688 248.597656 137.359375 248.695312 137.160156 C 250.101562 134.210938 249.78125 131.46875 247.730469 128.925781 L 246.847656 127.835938 Z M 250.613281 142.214844 C 248.191406 144.785156 245.214844 146.074219 241.679688 146.074219 L 236.351562 146.074219 L 236.351562 141.582031 L 241.679688 141.582031 C 243.921875 141.582031 245.808594 140.765625 247.339844 139.136719 Z M 234.105469 146.074219 L 220.628906 146.074219 L 220.628906 141.582031 L 234.105469 141.582031 Z M 218.382812 146.074219 L 204.90625 146.074219 L 204.90625 141.582031 L 218.382812 141.582031 Z M 202.65625 146.074219 L 189.179688 146.074219 L 189.179688 141.582031 L 202.65625 141.582031 Z M 186.933594 146.074219 L 173.457031 146.074219 L 173.457031 141.582031 L 186.933594 141.582031 Z M 171.210938 146.074219 L 157.734375 146.074219 L 157.734375 141.582031 L 171.210938 141.582031 Z M 155.488281 146.074219 L 142.011719 146.074219 L 142.011719 141.582031 L 155.488281 141.582031 Z M 139.765625 146.074219 L 126.289062 146.074219 L 126.289062 141.582031 L 139.765625 141.582031 Z M 124.042969 146.074219 L 110.5625 146.074219 L 110.5625 141.582031 L 124.042969 141.582031 Z M 108.316406 146.074219 L 94.839844 146.074219 L 94.839844 141.582031 L 108.316406 141.582031 Z M 92.59375 146.074219 L 79.117188 146.074219 L 79.117188 141.582031 L 92.59375 141.582031 Z M 76.871094 146.074219 L 63.394531 146.074219 L 63.394531 141.582031 L 76.871094 141.582031 Z M 61.148438 146.074219 L 51.40625 146.074219 C 49.855469 146.074219 48.359375 145.789062 46.921875 145.222656 L 48.5625 141.042969 C 49.476562 141.402344 50.425781 141.582031 51.40625 141.582031 L 61.148438 141.582031 Z M 44.492188 143.9375 C 42.671875 142.695312 41.289062 141.082031 40.339844 139.097656 C 38.800781 135.875 38.6875 132.605469 40.007812 129.285156 L 44.183594 130.941406 C 43.347656 133.042969 43.417969 135.117188 44.394531 137.160156 C 44.996094 138.417969 45.871094 139.441406 47.023438 140.226562 Z M 41.296875 126.863281 C 41.476562 126.601562 41.664062 126.351562 41.863281 126.105469 L 49.847656 116.210938 L 53.34375 119.03125 L 45.359375 128.925781 C 45.230469 129.082031 45.113281 129.242188 45 129.40625 Z M 51.261719 114.460938 L 59.726562 103.976562 L 63.222656 106.796875 L 54.757812 117.285156 Z M 61.136719 102.226562 L 69.601562 91.742188 L 73.097656 94.5625 L 64.632812 105.050781 Z M 71.011719 89.992188 L 79.476562 79.507812 L 82.972656 82.328125 L 74.507812 92.816406 Z M 80.886719 77.757812 L 89.355469 67.273438 L 92.847656 70.09375 L 84.382812 80.582031 Z M 90.765625 65.523438 L 99.230469 55.035156 L 102.726562 57.859375 L 94.261719 68.34375 Z M 100.640625 53.289062 L 109.105469 42.800781 L 112.601562 45.625 L 104.136719 56.109375 Z M 110.515625 41.054688 L 118.980469 30.566406 L 122.476562 33.390625 L 114.011719 43.875 Z M 120.394531 28.820312 L 128.859375 18.332031 L 132.355469 21.15625 L 123.890625 31.640625 Z M 130.269531 16.585938 L 131.628906 14.902344 C 134.421875 11.441406 137.988281 9.21875 142.328125 8.242188 L 143.316406 12.625 C 139.992188 13.375 137.261719 15.074219 135.125 17.722656 L 133.765625 19.40625 Z M 144.835938 7.847656 C 145.402344 7.796875 145.972656 7.773438 146.542969 7.773438 C 151.273438 7.773438 155.433594 9.3125 159.023438 12.390625 L 156.097656 15.800781 C 153.351562 13.445312 150.164062 12.265625 146.542969 12.265625 C 146.105469 12.265625 145.671875 12.285156 145.234375 12.324219 Z M 160.84375 14.175781 C 161.054688 14.410156 161.257812 14.652344 161.457031 14.902344 L 169.925781 25.386719 L 166.429688 28.210938 L 157.964844 17.722656 C 157.808594 17.535156 157.652344 17.347656 157.492188 17.167969 Z M 160.84375 14.175781 " fill-opacity="1" fill-rule="nonzero"/></g></g><path stroke-linecap="butt" transform="matrix(0.748733, 0, 0, 0.748733, 18.522787, 38.698258)" fill="none" stroke-linejoin="miter" d="M 176.376931 40.867189 L 168.420783 42.07235 C 154.433614 44.237465 139.30389 46.564312 137.545712 59.528921 C 137.45702 60.003681 137.45702 60.551481 137.45702 61.031459 C 137.342243 64.015667 138.093512 66.911183 139.77865 69.050213 C 141.469006 71.397928 143.973236 72.973507 147.254821 73.448267 C 147.620021 73.542176 148.073913 73.542176 148.55389 73.542176 C 149.67036 73.542176 150.604229 72.696998 150.604229 71.674437 C 150.69292 70.557968 149.85296 69.624099 148.736491 69.624099 L 147.802621 69.53019 C 145.658374 69.232813 144.067145 68.210252 142.950675 66.728583 C 141.834206 65.226044 141.26032 63.264397 141.375097 61.214059 C 141.375097 60.848859 141.375097 60.46279 141.469006 60.09759 C 142.856767 50.028498 156.572644 47.863382 169.083361 45.901735 C 170.951099 45.630443 172.912746 45.353935 174.780484 44.967866 C 172.818837 50.299789 170.951099 56.268204 169.354652 61.485351 C 165.822644 72.973507 164.414015 77.074184 162.634968 81.654838 C 161.518499 84.362537 160.313338 86.986761 158.92036 89.308391 C 154.616214 85.661606 150.239029 83.246067 146.227043 83.246067 C 140.806428 83.246067 136.319683 86.986761 135.954482 93.502977 C 135.954482 99.0175 139.209982 102.001708 145.658374 102.4556 C 150.604229 102.4556 155.550083 100.040061 158.831668 96.210676 C 159.10296 95.939384 159.374252 95.553315 159.65076 95.188115 C 161.998476 97.238454 164.320106 99.674861 166.761731 102.001708 C 174.869176 110.109153 184.124393 119.729571 194.010885 119.729571 C 199.593232 119.729571 205.770333 117.402724 208.091963 112.164709 C 208.185872 111.8882 208.274563 111.616909 208.274563 111.434308 C 208.274563 110.683039 207.638071 109.38397 206.312916 109.38397 C 205.587733 109.38397 204.836464 109.837862 204.559955 110.589131 C 203.057417 113.849847 198.77414 115.717586 194.099577 115.717586 C 185.600846 115.717586 177.3108 106.942346 169.563338 99.194883 C 166.939114 96.690653 164.414015 94.160337 161.904568 91.838707 C 163.568837 89.2197 164.982684 86.324184 166.281753 83.157376 C 168.055583 78.759322 170.111139 72.514398 173.184038 62.716597 C 174.963085 56.633405 177.102114 49.73112 179.361139 44.122688 C 185.966046 42.369727 192.690947 38.81685 192.690947 34.439665 C 192.690947 31.434588 190.458009 29.38425 187.197292 29.38425 C 182.434038 29.38425 178.42727 35.467442 176.376931 40.867189 Z M 181.228877 39.474211 C 182.710547 36.286534 185.146954 33.119727 187.197292 33.119727 C 187.927693 33.119727 188.496362 33.688396 188.496362 34.439665 C 188.496362 35.921334 185.146954 38.63425 181.228877 39.474211 Z M 155.821375 93.685577 C 153.317145 96.575876 149.399068 98.537523 145.658374 98.537523 C 142.491567 98.537523 139.872559 97.144545 139.872559 93.502977 C 140.055159 89.579683 142.856767 87.164144 146.117483 87.164144 C 149.305159 87.164144 152.837167 89.397083 156.755244 92.569108 C 156.390044 92.955177 156.118752 93.320377 155.821375 93.685577 Z M 155.821375 93.685577 " stroke="#000000" stroke-width="1.749999" stroke-opacity="1" stroke-miterlimit="4"/></svg>