<svg xmlns="http://www.w3.org/2000/svg" xmlns:xlink="http://www.w3.org/1999/xlink" width="375" zoomAndPan="magnify" viewBox="0 0 281.25 165.000002" height="220" preserveAspectRatio="xMidYMid meet" version="1.0"><defs><clipPath id="cfc757afda"><path d="M 35 9 L 245 9 L 245 143.132812 L 35 143.132812 Z M 35 9 " clip-rule="nonzero"/></clipPath><clipPath id="c06b779a21"><path d="M 153.105469 16.242188 L 242.480469 126.960938 C 244.894531 129.953125 245.375 134.0625 243.71875 137.527344 C 242.0625 140.996094 238.5625 143.203125 234.71875 143.203125 L 45.269531 143.203125 C 41.429688 143.203125 37.925781 140.996094 36.269531 137.527344 C 34.613281 134.0625 35.09375 129.953125 37.507812 126.960938 L 126.886719 16.242188 C 130.082031 12.277344 134.902344 9.976562 139.996094 9.976562 C 145.085938 9.976562 149.90625 12.277344 153.105469 16.242188 Z M 153.105469 16.242188 " clip-rule="nonzero"/></clipPath></defs><g clip-path="url(#cfc757afda)"><g clip-path="url(#c06b779a21)"><path fill="#000000" d="M 164.679688 27.019531 L 173.105469 37.457031 L 169.625 40.269531 L 161.199219 29.828125 Z M 174.511719 39.199219 L 182.941406 49.640625 L 179.460938 52.449219 L 171.03125 42.007812 Z M 184.34375 51.378906 L 192.773438 61.820312 L 189.292969 64.632812 L 180.863281 54.191406 Z M 194.179688 63.5625 L 202.605469 74.003906 L 199.125 76.8125 L 190.699219 66.371094 Z M 204.011719 75.742188 L 212.441406 86.183594 L 208.960938 88.996094 L 200.53125 78.554688 Z M 213.84375 87.925781 L 222.273438 98.367188 L 218.792969 101.175781 L 210.363281 90.734375 Z M 223.675781 100.105469 L 232.105469 110.546875 L 228.625 113.359375 L 220.195312 102.917969 Z M 233.511719 112.289062 L 241.9375 122.730469 L 238.457031 125.539062 L 230.03125 115.097656 Z M 243.34375 124.46875 L 244.222656 125.558594 C 247.445312 129.550781 247.949219 133.863281 245.738281 138.492188 C 245.585938 138.804688 245.425781 139.113281 245.25 139.410156 L 241.390625 137.148438 C 241.503906 136.957031 241.605469 136.761719 241.703125 136.5625 C 243.105469 133.628906 242.785156 130.898438 240.742188 128.367188 L 239.863281 127.28125 Z M 243.613281 141.597656 C 241.199219 144.160156 238.238281 145.4375 234.71875 145.4375 L 229.410156 145.4375 L 229.410156 140.964844 L 234.71875 140.964844 C 236.949219 140.964844 238.828125 140.15625 240.355469 138.53125 Z M 227.175781 145.4375 L 213.757812 145.4375 L 213.757812 140.964844 L 227.175781 140.964844 Z M 211.519531 145.4375 L 198.101562 145.4375 L 198.101562 140.964844 L 211.519531 140.964844 Z M 195.867188 145.4375 L 182.445312 145.4375 L 182.445312 140.964844 L 195.867188 140.964844 Z M 180.210938 145.4375 L 166.792969 145.4375 L 166.792969 140.964844 L 180.210938 140.964844 Z M 164.554688 145.4375 L 151.136719 145.4375 L 151.136719 140.964844 L 164.554688 140.964844 Z M 148.898438 145.4375 L 135.480469 145.4375 L 135.480469 140.964844 L 148.898438 140.964844 Z M 133.246094 145.4375 L 119.828125 145.4375 L 119.828125 140.964844 L 133.246094 140.964844 Z M 117.589844 145.4375 L 104.171875 145.4375 L 104.171875 140.964844 L 117.589844 140.964844 Z M 101.933594 145.4375 L 88.515625 145.4375 L 88.515625 140.964844 L 101.933594 140.964844 Z M 86.28125 145.4375 L 72.859375 145.4375 L 72.859375 140.964844 L 86.28125 140.964844 Z M 70.625 145.4375 L 57.207031 145.4375 L 57.207031 140.964844 L 70.625 140.964844 Z M 54.96875 145.4375 L 45.269531 145.4375 C 43.726562 145.4375 42.238281 145.15625 40.804688 144.59375 L 42.441406 140.429688 C 43.347656 140.789062 44.292969 140.964844 45.269531 140.964844 L 54.96875 140.964844 Z M 38.386719 143.3125 C 36.574219 142.078125 35.199219 140.472656 34.253906 138.492188 C 32.71875 135.285156 32.609375 132.027344 33.917969 128.722656 L 38.078125 130.371094 C 37.246094 132.46875 37.316406 134.53125 38.289062 136.5625 C 38.886719 137.816406 39.761719 138.835938 40.90625 139.617188 Z M 35.207031 126.3125 C 35.382812 126.054688 35.570312 125.800781 35.769531 125.558594 L 43.71875 115.707031 L 47.199219 118.515625 L 39.25 128.367188 C 39.125 128.523438 39.003906 128.679688 38.890625 128.847656 Z M 45.125 113.964844 L 53.554688 103.523438 L 57.035156 106.332031 L 48.605469 116.773438 Z M 54.957031 101.785156 L 63.386719 91.34375 L 66.867188 94.152344 L 58.4375 104.59375 Z M 64.792969 89.601562 L 73.21875 79.160156 L 76.699219 81.96875 L 68.273438 92.410156 Z M 74.625 77.421875 L 83.054688 66.980469 L 86.535156 69.789062 L 78.105469 80.230469 Z M 84.457031 65.238281 L 92.886719 54.796875 L 96.367188 57.609375 L 87.9375 68.050781 Z M 94.292969 53.058594 L 102.71875 42.617188 L 106.199219 45.425781 L 97.773438 55.867188 Z M 104.125 40.875 L 112.554688 30.433594 L 116.035156 33.246094 L 107.605469 43.6875 Z M 113.957031 28.695312 L 122.386719 18.253906 L 125.867188 21.0625 L 117.4375 31.503906 Z M 123.789062 16.511719 L 125.144531 14.835938 C 127.925781 11.390625 131.476562 9.179688 135.796875 8.207031 L 136.78125 12.570312 C 133.472656 13.316406 130.753906 15.007812 128.625 17.644531 L 127.269531 19.324219 Z M 138.292969 7.816406 C 138.859375 7.765625 139.425781 7.738281 139.996094 7.738281 C 144.703125 7.738281 148.847656 9.273438 152.421875 12.339844 L 149.507812 15.734375 C 146.773438 13.386719 143.601562 12.210938 139.996094 12.210938 C 139.558594 12.210938 139.125 12.230469 138.691406 12.269531 Z M 154.230469 14.113281 C 154.441406 14.347656 154.644531 14.589844 154.84375 14.835938 L 163.273438 25.277344 L 159.792969 28.085938 L 151.363281 17.644531 C 151.210938 17.457031 151.054688 17.273438 150.894531 17.09375 Z M 154.230469 14.113281 " fill-opacity="1" fill-rule="nonzero"/></g></g><path stroke-linecap="butt" transform="matrix(0.745482, 0, 0, 0.745482, 20.9652, 53.259236)" fill="none" stroke-linejoin="miter" d="M 159.187658 19.590073 L 159.187658 20.433697 C 156.572948 20.679972 154.9119 21.691272 154.199274 23.467598 C 153.481408 25.243924 153.125095 27.470881 153.125095 30.14323 L 153.125095 67.283635 C 153.125095 69.211918 153.250852 70.783888 153.491888 71.999544 C 153.748643 73.215201 154.157355 74.179342 154.723264 74.891968 C 155.283933 75.609835 155.996559 76.091905 156.861143 76.3539 C 157.730966 76.594936 158.784186 76.715453 160.031282 76.715453 C 163.023264 76.715453 165.85805 76.285782 168.530398 75.415958 C 171.202747 74.535655 173.65502 73.319999 175.887217 71.774228 C 178.140373 70.207499 180.168214 68.321135 181.975979 66.120377 C 183.783745 63.9039 185.339995 61.425428 186.64473 58.69544 L 187.467394 59.172271 L 179.445108 82.301186 C 179.198833 82.054911 178.737722 81.777196 178.056535 81.457562 C 177.370108 81.153648 176.154451 81.001691 174.409565 81.001691 L 136.787089 81.001691 L 136.787089 80.158067 C 138.914488 79.717916 140.460258 78.769494 141.41392 77.307562 C 142.388541 75.85087 142.875852 73.592473 142.875852 70.542852 L 142.875852 30.782497 C 142.875852 29.535401 142.802493 28.324985 142.666256 27.156487 C 142.545738 25.97227 142.268024 24.91905 141.822632 23.991588 C 141.3982 23.048406 140.790372 22.267661 140.004387 21.644113 C 139.228882 21.020565 138.154703 20.617093 136.787089 20.433697 L 136.787089 19.590073 Z M 159.187658 19.590073 " stroke="#000000" stroke-width="1.749999" stroke-opacity="1" stroke-miterlimit="4"/></svg>