<svg xmlns="http://www.w3.org/2000/svg" xmlns:xlink="http://www.w3.org/1999/xlink" width="357" zoomAndPan="magnify" viewBox="0 0 267.75 158.249993" height="211" preserveAspectRatio="xMidYMid meet" version="1.0"><defs><clipPath id="904426fd8d"><path d="M 28.121094 9 L 239 9 L 239 143.320312 L 28.121094 143.320312 Z M 28.121094 9 " clip-rule="nonzero"/></clipPath><clipPath id="90e1394a69"><path d="M 146.753906 16.261719 L 236.25 127.128906 C 238.664062 130.121094 239.148438 134.238281 237.488281 137.710938 C 235.828125 141.179688 232.324219 143.390625 228.476562 143.390625 L 38.777344 143.390625 C 34.929688 143.390625 31.425781 141.179688 29.765625 137.710938 C 28.105469 134.238281 28.589844 130.121094 31.007812 127.128906 L 120.5 16.261719 C 123.703125 12.292969 128.527344 9.988281 133.628906 9.988281 C 138.726562 9.988281 143.550781 12.292969 146.753906 16.261719 Z M 146.753906 16.261719 " clip-rule="nonzero"/></clipPath></defs><g clip-path="url(#904426fd8d)"><g clip-path="url(#90e1394a69)"><path fill="#000000" d="M 158.34375 27.054688 L 166.78125 37.507812 L 163.296875 40.320312 L 154.859375 29.867188 Z M 168.1875 39.25 L 176.628906 49.707031 L 173.144531 52.519531 L 164.703125 42.0625 Z M 178.035156 51.449219 L 186.476562 61.902344 L 182.988281 64.714844 L 174.550781 54.261719 Z M 187.882812 63.644531 L 196.320312 74.101562 L 192.835938 76.914062 L 184.394531 66.460938 Z M 197.726562 75.84375 L 206.167969 86.296875 L 202.683594 89.113281 L 194.242188 78.65625 Z M 207.574219 88.039062 L 216.011719 98.496094 L 212.527344 101.308594 L 204.089844 90.855469 Z M 217.421875 100.238281 L 225.859375 110.695312 L 222.375 113.507812 L 213.933594 103.050781 Z M 227.265625 112.4375 L 235.707031 122.890625 L 232.21875 125.703125 L 223.78125 115.25 Z M 237.113281 124.632812 L 237.992188 125.722656 C 241.21875 129.722656 241.722656 134.039062 239.507812 138.675781 C 239.359375 138.988281 239.195312 139.292969 239.019531 139.59375 L 235.15625 137.328125 C 235.269531 137.136719 235.371094 136.941406 235.46875 136.742188 C 236.871094 133.804688 236.550781 131.070312 234.503906 128.535156 L 233.628906 127.445312 Z M 237.378906 141.78125 C 234.964844 144.347656 231.996094 145.628906 228.476562 145.628906 L 223.160156 145.628906 L 223.160156 141.152344 L 228.476562 141.152344 C 230.707031 141.152344 232.589844 140.339844 234.121094 138.714844 Z M 220.921875 145.628906 L 207.484375 145.628906 L 207.484375 141.152344 L 220.921875 141.152344 Z M 205.246094 145.628906 L 191.8125 145.628906 L 191.8125 141.152344 L 205.246094 141.152344 Z M 189.570312 145.628906 L 176.136719 145.628906 L 176.136719 141.152344 L 189.570312 141.152344 Z M 173.894531 145.628906 L 160.460938 145.628906 L 160.460938 141.152344 L 173.894531 141.152344 Z M 158.21875 145.628906 L 144.785156 145.628906 L 144.785156 141.152344 L 158.21875 141.152344 Z M 142.542969 145.628906 L 129.109375 145.628906 L 129.109375 141.152344 L 142.542969 141.152344 Z M 126.867188 145.628906 L 113.433594 145.628906 L 113.433594 141.152344 L 126.867188 141.152344 Z M 111.191406 145.628906 L 97.757812 145.628906 L 97.757812 141.152344 L 111.191406 141.152344 Z M 95.515625 145.628906 L 82.082031 145.628906 L 82.082031 141.152344 L 95.515625 141.152344 Z M 79.839844 145.628906 L 66.40625 145.628906 L 66.40625 141.152344 L 79.839844 141.152344 Z M 64.164062 145.628906 L 50.730469 145.628906 L 50.730469 141.152344 L 64.164062 141.152344 Z M 48.488281 145.628906 L 38.777344 145.628906 C 37.234375 145.628906 35.742188 145.347656 34.304688 144.78125 L 35.945312 140.613281 C 36.855469 140.972656 37.796875 141.152344 38.777344 141.152344 L 48.488281 141.152344 Z M 31.882812 143.5 C 30.070312 142.265625 28.691406 140.65625 27.746094 138.675781 C 26.210938 135.460938 26.097656 132.203125 27.414062 128.890625 L 31.574219 130.542969 C 30.742188 132.640625 30.8125 134.707031 31.785156 136.742188 C 32.386719 138 33.261719 139.019531 34.410156 139.800781 Z M 28.699219 126.476562 C 28.878906 126.21875 29.066406 125.96875 29.261719 125.722656 L 37.226562 115.859375 L 40.710938 118.671875 L 32.75 128.535156 C 32.621094 128.691406 32.503906 128.851562 32.390625 129.015625 Z M 38.632812 114.117188 L 47.070312 103.660156 L 50.558594 106.472656 L 42.117188 116.929688 Z M 48.480469 101.917969 L 56.917969 91.460938 L 60.402344 94.277344 L 51.964844 104.730469 Z M 58.324219 89.71875 L 66.765625 79.265625 L 70.25 82.078125 L 61.808594 92.535156 Z M 68.171875 77.523438 L 76.609375 67.066406 L 80.09375 69.882812 L 71.65625 80.335938 Z M 78.015625 65.324219 L 86.457031 54.871094 L 89.941406 57.683594 L 81.503906 68.136719 Z M 87.863281 53.128906 L 96.304688 42.671875 L 99.789062 45.484375 L 91.347656 55.941406 Z M 97.710938 40.929688 L 106.148438 30.476562 L 109.632812 33.289062 L 101.195312 43.742188 Z M 107.554688 28.734375 L 115.996094 18.277344 L 119.480469 21.089844 L 111.039062 31.546875 Z M 117.402344 16.535156 L 118.757812 14.855469 C 121.542969 11.40625 125.097656 9.191406 129.421875 8.21875 L 130.410156 12.585938 C 127.097656 13.332031 124.375 15.027344 122.242188 17.667969 L 120.886719 19.347656 Z M 131.921875 7.824219 C 132.488281 7.773438 133.058594 7.75 133.628906 7.75 C 138.34375 7.75 142.492188 9.285156 146.070312 12.355469 L 143.152344 15.753906 C 140.414062 13.402344 137.238281 12.226562 133.628906 12.226562 C 133.191406 12.226562 132.757812 12.246094 132.324219 12.285156 Z M 147.882812 14.132812 C 148.09375 14.367188 148.296875 14.609375 148.496094 14.855469 L 156.9375 25.3125 L 153.453125 28.125 L 145.011719 17.667969 C 144.859375 17.480469 144.703125 17.296875 144.542969 17.113281 Z M 147.882812 14.132812 " fill-opacity="1" fill-rule="nonzero"/></g></g><path stroke-linecap="butt" transform="matrix(0.746462, 0, 0, 0.746462, 14.440992, 53.329281)" fill="none" stroke-linejoin="miter" d="M 182.041546 30.904655 C 183.077684 30.904655 183.815539 31.14014 184.255113 31.611112 C 184.694686 32.082084 184.914473 32.882735 184.914473 34.007834 C 184.914473 35.1277 184.694686 35.928352 184.255113 36.399323 C 183.815539 36.870295 183.077684 37.105781 182.041546 37.105781 L 179.765183 37.105781 L 180.947845 78.802467 L 183.412597 78.802467 C 184.443501 78.802467 185.181357 79.037953 185.62093 79.508924 C 186.060504 79.979896 186.280291 80.775314 186.280291 81.900413 C 186.280291 83.025512 186.060504 83.820931 185.62093 84.291902 C 185.181357 84.762874 184.443501 84.99836 183.412597 84.99836 L 169.100293 84.99836 C 168.069389 84.99836 167.331533 84.762874 166.89196 84.291902 C 166.452386 83.820931 166.232599 83.025512 166.232599 81.900413 C 166.232599 80.775314 166.452386 79.979896 166.89196 79.508924 C 167.331533 79.037953 168.069389 78.802467 169.100293 78.802467 L 174.160621 78.802467 L 173.155882 41.480584 L 163.862042 67.457284 C 163.464333 68.519587 162.941031 69.278374 162.286904 69.733647 C 161.63801 70.188919 160.764096 70.419172 159.670395 70.419172 C 158.576694 70.419172 157.70278 70.188919 157.048653 69.733647 C 156.394526 69.278374 155.871224 68.519587 155.473515 67.457284 L 146.132578 41.480584 L 145.174936 78.802467 L 150.235264 78.802467 C 151.266168 78.802467 152.004024 79.037953 152.443597 79.508924 C 152.883171 79.979896 153.108191 80.775314 153.108191 81.900413 C 153.108191 83.025512 152.883171 83.820931 152.443597 84.291902 C 152.004024 84.762874 151.266168 84.99836 150.235264 84.99836 L 135.928193 84.99836 C 134.892056 84.99836 134.1542 84.762874 133.714627 84.291902 C 133.275053 83.820931 133.055266 83.025512 133.055266 81.900413 C 133.055266 80.775314 133.275053 79.979896 133.714627 79.508924 C 134.1542 79.037953 134.892056 78.802467 135.928193 78.802467 L 138.387711 78.802467 L 139.523276 37.105781 L 137.294011 37.105781 C 136.257873 37.105781 135.525251 36.870295 135.080444 36.399323 C 134.640871 35.928352 134.421084 35.1277 134.421084 34.007834 C 134.421084 32.882735 134.640871 32.082084 135.080444 31.611112 C 135.525251 31.14014 136.257873 30.904655 137.294011 30.904655 L 146.907065 30.904655 C 147.639687 30.904655 148.215319 31.030247 148.639193 31.270966 C 149.063068 31.516918 149.366583 31.893695 149.549738 32.411764 L 159.670395 60.162457 L 169.738721 32.411764 C 170.073634 31.407024 170.96848 30.904655 172.428492 30.904655 Z M 182.041546 30.904655 " stroke="#000000" stroke-width="1.749994" stroke-opacity="1" stroke-miterlimit="4"/></svg>