<svg xmlns="http://www.w3.org/2000/svg" xmlns:xlink="http://www.w3.org/1999/xlink" width="311" zoomAndPan="magnify" viewBox="0 0 233.25 144.75" height="193" preserveAspectRatio="xMidYMid meet" version="1.0"><defs><g/><clipPath id="230e93273a"><path d="M 10.265625 10 L 221 10 L 221 143.644531 L 10.265625 143.644531 Z M 10.265625 10 " clip-rule="nonzero"/></clipPath><clipPath id="956060d31c"><path d="M 129.078125 16.394531 L 218.707031 127.429688 C 221.128906 130.425781 221.609375 134.550781 219.949219 138.027344 C 218.285156 141.503906 214.777344 143.714844 210.921875 143.714844 L 20.9375 143.714844 C 17.082031 143.714844 13.574219 141.503906 11.910156 138.027344 C 10.25 134.550781 10.734375 130.425781 13.152344 127.429688 L 102.78125 16.394531 C 105.992188 12.421875 110.824219 10.109375 115.929688 10.109375 C 121.035156 10.109375 125.871094 12.421875 129.078125 16.394531 Z M 129.078125 16.394531 " clip-rule="nonzero"/></clipPath></defs><g clip-path="url(#230e93273a)"><g clip-path="url(#956060d31c)"><path fill="#000000" d="M 140.683594 27.203125 L 149.136719 37.671875 L 145.644531 40.488281 L 137.191406 30.019531 Z M 150.542969 39.417969 L 158.996094 49.886719 L 155.507812 52.707031 L 147.054688 42.234375 Z M 160.40625 51.632812 L 168.859375 62.105469 L 165.367188 64.921875 L 156.914062 54.453125 Z M 170.265625 63.851562 L 178.71875 74.320312 L 175.230469 77.136719 L 166.777344 66.667969 Z M 180.128906 76.066406 L 188.582031 86.535156 L 185.089844 89.355469 L 176.636719 78.882812 Z M 189.988281 88.28125 L 198.441406 98.753906 L 194.949219 101.570312 L 186.5 91.097656 Z M 199.851562 100.5 L 208.300781 110.96875 L 204.8125 113.785156 L 196.359375 103.316406 Z M 209.710938 112.714844 L 218.164062 123.183594 L 214.671875 126.003906 L 206.222656 115.53125 Z M 219.574219 124.929688 L 220.453125 126.019531 C 223.683594 130.023438 224.191406 134.347656 221.972656 138.992188 C 221.820312 139.308594 221.660156 139.613281 221.484375 139.914062 L 217.613281 137.644531 C 217.726562 137.453125 217.828125 137.257812 217.925781 137.058594 C 219.332031 134.117188 219.011719 131.375 216.960938 128.835938 L 216.082031 127.746094 Z M 219.839844 142.105469 C 217.421875 144.675781 214.449219 145.957031 210.921875 145.957031 L 205.601562 145.957031 L 205.601562 141.472656 L 210.921875 141.472656 C 213.160156 141.472656 215.042969 140.660156 216.574219 139.03125 Z M 203.359375 145.957031 L 189.902344 145.957031 L 189.902344 141.472656 L 203.359375 141.472656 Z M 187.660156 145.957031 L 174.203125 145.957031 L 174.203125 141.472656 L 187.660156 141.472656 Z M 171.960938 145.957031 L 158.503906 145.957031 L 158.503906 141.472656 L 171.960938 141.472656 Z M 156.257812 145.957031 L 142.804688 145.957031 L 142.804688 141.472656 L 156.257812 141.472656 Z M 140.558594 145.957031 L 127.101562 145.957031 L 127.101562 141.472656 L 140.558594 141.472656 Z M 124.859375 145.957031 L 111.402344 145.957031 L 111.402344 141.472656 L 124.859375 141.472656 Z M 109.160156 145.957031 L 95.703125 145.957031 L 95.703125 141.472656 L 109.160156 141.472656 Z M 93.460938 145.957031 L 80.003906 145.957031 L 80.003906 141.472656 L 93.460938 141.472656 Z M 77.761719 145.957031 L 64.304688 145.957031 L 64.304688 141.472656 L 77.761719 141.472656 Z M 62.0625 145.957031 L 48.605469 145.957031 L 48.605469 141.472656 L 62.0625 141.472656 Z M 46.363281 145.957031 L 32.90625 145.957031 L 32.90625 141.472656 L 46.363281 141.472656 Z M 30.664062 145.957031 L 20.9375 145.957031 C 19.390625 145.957031 17.894531 145.675781 16.457031 145.109375 L 18.097656 140.9375 C 19.011719 141.292969 19.957031 141.472656 20.9375 141.472656 L 30.664062 141.472656 Z M 14.03125 143.828125 C 12.21875 142.589844 10.835938 140.976562 9.886719 138.992188 C 8.351562 135.777344 8.238281 132.511719 9.554688 129.195312 L 13.722656 130.847656 C 12.890625 132.949219 12.960938 135.019531 13.933594 137.058594 C 14.535156 138.316406 15.410156 139.335938 16.5625 140.121094 Z M 10.84375 126.777344 C 11.023438 126.519531 11.210938 126.265625 11.40625 126.019531 L 19.382812 116.140625 L 22.871094 118.957031 L 14.898438 128.835938 C 14.773438 128.992188 14.652344 129.152344 14.539062 129.320312 Z M 20.792969 114.394531 L 29.242188 103.925781 L 32.734375 106.742188 L 24.28125 117.214844 Z M 30.652344 102.179688 L 39.105469 91.710938 L 42.59375 94.527344 L 34.140625 104.996094 Z M 40.511719 89.964844 L 48.964844 79.492188 L 52.457031 82.308594 L 44.003906 92.78125 Z M 50.375 77.746094 L 58.828125 67.277344 L 62.316406 70.09375 L 53.863281 80.566406 Z M 60.234375 65.53125 L 68.6875 55.0625 L 72.179688 57.878906 L 63.726562 68.347656 Z M 70.097656 53.316406 L 78.550781 42.84375 L 82.039062 45.664062 L 73.585938 56.132812 Z M 79.957031 41.097656 L 88.410156 30.628906 L 91.902344 33.445312 L 83.449219 43.917969 Z M 89.820312 28.882812 L 98.269531 18.414062 L 101.761719 21.230469 L 93.308594 31.699219 Z M 99.679688 16.667969 L 101.039062 14.984375 C 103.828125 11.53125 107.386719 9.3125 111.71875 8.335938 L 112.707031 12.710938 C 109.390625 13.460938 106.664062 15.15625 104.527344 17.804688 L 103.171875 19.484375 Z M 114.222656 7.945312 C 114.792969 7.894531 115.359375 7.867188 115.929688 7.867188 C 120.652344 7.867188 124.808594 9.40625 128.390625 12.480469 L 125.472656 15.886719 C 122.726562 13.53125 119.546875 12.355469 115.929688 12.355469 C 115.492188 12.355469 115.058594 12.375 114.625 12.410156 Z M 130.207031 14.261719 C 130.417969 14.496094 130.625 14.738281 130.820312 14.984375 L 139.273438 25.457031 L 135.785156 28.273438 L 127.332031 17.804688 C 127.179688 17.613281 127.023438 17.429688 126.859375 17.246094 Z M 130.207031 14.261719 " fill-opacity="1" fill-rule="nonzero"/></g></g><g fill="#000000" fill-opacity="1"><g transform="translate(61.534009, 112.478148)"><g><path d="M 0.40625 -1.203125 C 0.40625 -1.617188 0.484375 -2.132812 0.640625 -2.75 L 0.40625 -3 L 0.859375 -3.453125 L 1.15625 -3.421875 C 1.664062 -3.421875 2.171875 -3.753906 2.671875 -4.421875 L 2.671875 -3.453125 C 3.171875 -3.953125 3.421875 -4.550781 3.421875 -5.25 C 3.421875 -5.820312 3.28125 -6.382812 3 -6.9375 L 3 -7.09375 C 3 -7.445312 3.175781 -7.671875 3.53125 -7.765625 C 3.445312 -8.335938 3.375 -8.859375 3.3125 -9.328125 C 3.257812 -9.804688 3.234375 -10.222656 3.234375 -10.578125 L 3.296875 -12.421875 L 3.75 -12.765625 C 3.519531 -13.160156 3.359375 -13.597656 3.265625 -14.078125 L 3.5625 -14.34375 L 3.421875 -17.046875 C 3.597656 -17.285156 3.6875 -17.507812 3.6875 -17.71875 C 3.6875 -17.96875 3.597656 -18.179688 3.421875 -18.359375 C 3.660156 -18.703125 3.78125 -19.140625 3.78125 -19.671875 C 3.78125 -20.421875 3.660156 -21.019531 3.421875 -21.46875 L 3.78125 -21.609375 L 3.78125 -23.421875 L 3.421875 -23.375 L 3.5625 -24.359375 L 3.3125 -26.109375 L 3.640625 -26.078125 L 3.640625 -27.140625 C 3.117188 -27.734375 2.503906 -28.03125 1.796875 -28.03125 L 1.609375 -28.03125 L 1.078125 -28.625 L 1.046875 -29.078125 C 1.046875 -29.878906 1.269531 -30.28125 1.71875 -30.28125 C 1.519531 -30.65625 1.234375 -30.859375 0.859375 -30.890625 L 0.859375 -31.71875 C 1.179688 -31.5625 1.503906 -31.484375 1.828125 -31.484375 C 2.410156 -31.484375 2.976562 -31.757812 3.53125 -32.3125 C 4 -32.0625 4.507812 -31.9375 5.0625 -31.9375 L 5.46875 -31.890625 C 5.46875 -31.648438 5.804688 -31.53125 6.484375 -31.53125 L 6.609375 -31.53125 L 6.640625 -32.234375 L 7.28125 -31.984375 C 8.050781 -31.117188 8.4375 -30.203125 8.4375 -29.234375 L 8.359375 -28.515625 C 8.742188 -28.171875 8.9375 -27.8125 8.9375 -27.4375 L 8.859375 -26.828125 C 8.859375 -26.679688 8.882812 -26.554688 8.9375 -26.453125 C 8.988281 -26.359375 9.050781 -26.257812 9.125 -26.15625 C 9.195312 -26.0625 9.257812 -25.957031 9.3125 -25.84375 C 9.363281 -25.726562 9.390625 -25.582031 9.390625 -25.40625 C 9.390625 -24.832031 9.328125 -24.429688 9.203125 -24.203125 C 9.367188 -23.953125 9.484375 -23.726562 9.546875 -23.53125 C 9.609375 -23.332031 9.660156 -23.144531 9.703125 -22.96875 C 9.742188 -22.789062 9.796875 -22.601562 9.859375 -22.40625 C 9.921875 -22.207031 10.035156 -21.984375 10.203125 -21.734375 C 10.359375 -21.484375 10.4375 -21.117188 10.4375 -20.640625 L 10.28125 -19.1875 C 10.351562 -18.945312 10.414062 -18.640625 10.46875 -18.265625 C 10.519531 -17.898438 10.582031 -17.539062 10.65625 -17.1875 C 10.726562 -16.84375 10.816406 -16.546875 10.921875 -16.296875 C 11.023438 -16.046875 11.160156 -15.921875 11.328125 -15.921875 L 11.5625 -15.921875 C 11.5625 -14.984375 11.972656 -14.515625 12.796875 -14.515625 C 13.066406 -14.515625 13.257812 -14.554688 13.375 -14.640625 C 13.488281 -14.734375 13.546875 -14.921875 13.546875 -15.203125 C 13.546875 -15.492188 13.457031 -15.753906 13.28125 -15.984375 C 13.507812 -16.316406 13.625 -16.671875 13.625 -17.046875 C 13.625 -17.335938 13.546875 -17.660156 13.390625 -18.015625 L 13.5 -18.359375 L 13.65625 -18.3125 C 13.9375 -18.3125 14.195312 -18.773438 14.4375 -19.703125 L 14.03125 -20.640625 C 14.507812 -21.035156 14.75 -21.570312 14.75 -22.25 L 14.671875 -22.890625 C 15.003906 -23.285156 15.171875 -23.785156 15.171875 -24.390625 C 15.171875 -24.910156 15.109375 -25.285156 14.984375 -25.515625 L 15.734375 -26.234375 C 15.578125 -26.628906 15.5 -27.03125 15.5 -27.4375 C 15.5 -28.007812 15.6875 -28.5625 16.0625 -29.09375 C 16.0625 -29.65625 15.75 -29.9375 15.125 -29.9375 L 14.984375 -29.9375 L 14.984375 -30.28125 C 16.453125 -31.363281 17.734375 -31.90625 18.828125 -31.90625 C 19.460938 -31.90625 20.039062 -31.71875 20.5625 -31.34375 C 20.9375 -31.5625 21.289062 -31.671875 21.625 -31.671875 C 22.238281 -31.671875 22.800781 -31.347656 23.3125 -30.703125 C 23.238281 -29.453125 22.796875 -28.828125 21.984375 -28.828125 L 21.734375 -28.859375 C 21.234375 -28.679688 20.984375 -28.046875 20.984375 -26.953125 L 21.046875 -26.046875 L 20.671875 -25.890625 C 20.898438 -25.597656 21.015625 -25.285156 21.015625 -24.953125 C 21.015625 -24.609375 20.898438 -24.242188 20.671875 -23.859375 C 20.828125 -23.441406 20.90625 -23.046875 20.90625 -22.671875 C 20.90625 -22.191406 20.753906 -21.664062 20.453125 -21.09375 L 20.421875 -20.5 L 21.0625 -20.5 L 21.203125 -20.078125 C 21.203125 -19.804688 21.023438 -19.59375 20.671875 -19.4375 C 21.054688 -18.664062 21.25 -17.90625 21.25 -17.15625 C 21.25 -16.820312 21.160156 -16.59375 20.984375 -16.46875 L 20.984375 -16.09375 L 21.34375 -16.203125 L 20.984375 -13.703125 L 21.390625 -13.703125 L 21.390625 -10.359375 L 20.984375 -10.84375 L 20.984375 -10.390625 L 21.28125 -9.875 L 20.984375 -7.28125 L 21.3125 -7.328125 L 20.984375 -4.0625 C 21.523438 -3.257812 22.175781 -2.859375 22.9375 -2.859375 L 22.859375 -2.46875 C 22.859375 -2.34375 22.96875 -2.28125 23.1875 -2.28125 L 23.34375 -2.28125 L 23.265625 -1.640625 C 23.265625 -1.273438 23.363281 -0.96875 23.5625 -0.71875 C 23.207031 -0.6875 22.992188 -0.445312 22.921875 0 L 21.8125 -0.15625 C 21.351562 -0.15625 21.113281 -0.0234375 21.09375 0.234375 L 20.671875 0.234375 C 20.347656 0.0234375 19.976562 -0.078125 19.5625 -0.078125 C 19.125 -0.078125 18.632812 0.0546875 18.09375 0.328125 L 17.34375 0.234375 L 16.28125 -0.375 L 16.28125 -2.03125 C 17.351562 -2.375 17.890625 -3.007812 17.890625 -3.9375 L 18.09375 -4.796875 C 18.09375 -5.097656 17.988281 -5.410156 17.78125 -5.734375 C 17.988281 -6.484375 18.09375 -7.035156 18.09375 -7.390625 C 18.09375 -7.671875 18.023438 -7.832031 17.890625 -7.875 L 17.890625 -8.59375 C 18.148438 -8.988281 18.28125 -9.398438 18.28125 -9.828125 C 18.28125 -10.203125 18.21875 -10.503906 18.09375 -10.734375 C 18.269531 -11.078125 18.359375 -11.4375 18.359375 -11.8125 C 18.359375 -12.394531 18.09375 -12.945312 17.5625 -13.46875 C 17.84375 -13.863281 17.984375 -14.304688 17.984375 -14.796875 C 17.984375 -15.234375 17.953125 -15.515625 17.890625 -15.640625 L 18.046875 -16.25 C 18.046875 -16.445312 17.984375 -16.660156 17.859375 -16.890625 C 17.734375 -17.117188 17.570312 -17.234375 17.375 -17.234375 C 17.195312 -17.234375 17.007812 -17.054688 16.8125 -16.703125 C 16.914062 -16.617188 16.96875 -16.484375 16.96875 -16.296875 L 16.328125 -14.375 L 16.484375 -13.59375 L 16.390625 -13.59375 C 16.066406 -13.59375 15.90625 -13.101562 15.90625 -12.125 L 15.953125 -10.84375 C 15.578125 -10.800781 15.3125 -10.664062 15.15625 -10.4375 C 15.007812 -10.207031 14.9375 -9.894531 14.9375 -9.5 C 14.9375 -9 15.023438 -8.582031 15.203125 -8.25 C 14.847656 -7.625 14.671875 -7.148438 14.671875 -6.828125 C 14.671875 -6.554688 14.769531 -6.351562 14.96875 -6.21875 L 14.625 -5.296875 L 14.0625 -5.546875 C 14.0625 -5.398438 14.25 -5.078125 14.625 -4.578125 L 14.140625 -4.421875 C 14.210938 -4.296875 14.25 -3.972656 14.25 -3.453125 C 14.25 -3.171875 14.222656 -2.847656 14.171875 -2.484375 C 14.128906 -2.128906 14.0625 -1.75 13.96875 -1.34375 L 13.703125 -1.078125 L 13.390625 -1.171875 C 13.140625 -1.171875 12.957031 -0.90625 12.84375 -0.375 L 12.390625 -0.53125 C 12.128906 -0.53125 11.890625 -0.351562 11.671875 0 C 11.566406 -0.53125 11.28125 -0.851562 10.8125 -0.96875 L 10.875 -1.5 C 10.875 -2.226562 10.566406 -2.84375 9.953125 -3.34375 L 9.796875 -3.9375 C 9.796875 -4.21875 9.957031 -4.457031 10.28125 -4.65625 L 10.28125 -5.484375 C 9.875 -6.003906 9.5 -6.265625 9.15625 -6.265625 C 8.957031 -6.265625 8.796875 -6.203125 8.671875 -6.078125 L 8.140625 -6.6875 L 8.78125 -7.046875 L 9.3125 -6.90625 C 9.457031 -6.90625 9.53125 -6.957031 9.53125 -7.0625 C 9.53125 -7.132812 9.492188 -7.242188 9.421875 -7.390625 C 9.347656 -7.546875 9.269531 -7.710938 9.1875 -7.890625 C 9.113281 -8.078125 9.039062 -8.265625 8.96875 -8.453125 C 8.894531 -8.648438 8.859375 -8.835938 8.859375 -9.015625 L 9.1875 -10.515625 C 9.1875 -10.765625 9.0625 -10.890625 8.8125 -10.890625 L 8.140625 -10.734375 L 7.609375 -11.21875 C 7.734375 -11.84375 8.195312 -12.28125 9 -12.53125 C 8.851562 -13.3125 8.546875 -13.703125 8.078125 -13.703125 L 7.921875 -13.703125 L 7.921875 -14.78125 C 7.691406 -15.0625 7.578125 -15.398438 7.578125 -15.796875 C 7.578125 -16.128906 7.679688 -16.484375 7.890625 -16.859375 L 7.796875 -17.375 L 7.609375 -17.34375 C 7.335938 -17.34375 7.085938 -17.488281 6.859375 -17.78125 L 6.859375 -16.328125 L 6.5 -16.625 L 6.5 -16.296875 C 6.5 -15.210938 6.769531 -14.660156 7.3125 -14.640625 L 6.859375 -14.1875 L 6.859375 -13.46875 C 6.441406 -12.894531 6.234375 -12.1875 6.234375 -11.34375 L 6.3125 -10.390625 L 6.53125 -10.5 C 6.757812 -10.5 6.984375 -10.113281 7.203125 -9.34375 C 7.054688 -9.25 6.984375 -9.046875 6.984375 -8.734375 C 6.984375 -7.941406 7.128906 -7.269531 7.421875 -6.71875 L 7.125 -6.828125 C 6.832031 -6.828125 6.632812 -6.539062 6.53125 -5.96875 C 6.90625 -5.445312 7.09375 -4.847656 7.09375 -4.171875 L 7.0625 -3.59375 C 8.40625 -3.375 9.117188 -2.5 9.203125 -0.96875 L 8.25 0.234375 L 7.09375 0.03125 C 6.445312 0.03125 5.796875 0.21875 5.140625 0.59375 C 4.367188 0.195312 3.359375 0 2.109375 0 L 1.828125 0 L 1.5 0.421875 C 1.320312 -0.179688 1.023438 -0.484375 0.609375 -0.484375 Z M 17.890625 -21.09375 L 17.90625 -20.5 C 17.976562 -20.5 18.113281 -20.660156 18.3125 -20.984375 Z M 6.640625 -19.921875 C 6.660156 -19.648438 6.722656 -19.515625 6.828125 -19.515625 C 6.910156 -19.515625 6.988281 -19.601562 7.0625 -19.78125 Z M 17.34375 -18.84375 L 17.71875 -18.921875 L 17.453125 -19.1875 Z M 12.5625 -18.921875 L 12.9375 -18.984375 C 13.070312 -18.984375 13.140625 -18.945312 13.140625 -18.875 C 13.140625 -18.769531 13.050781 -18.628906 12.875 -18.453125 L 12.9375 -18.125 C 12.9375 -17.976562 12.890625 -17.90625 12.796875 -17.90625 C 12.703125 -17.90625 12.503906 -18.054688 12.203125 -18.359375 Z M 12.375 -12.09375 C 12.582031 -12.09375 12.703125 -12.140625 12.734375 -12.234375 C 12.773438 -12.328125 12.796875 -12.441406 12.796875 -12.578125 C 12.796875 -12.992188 12.570312 -13.203125 12.125 -13.203125 L 11.5625 -13.125 C 11.65625 -12.4375 11.925781 -12.09375 12.375 -12.09375 Z M 12.375 -12.09375 "/></g></g></g><g fill="#000000" fill-opacity="1"><g transform="translate(89.67526, 112.478148)"><g><path d="M 6.15625 0.046875 C 6.082031 -0.429688 5.71875 -0.734375 5.0625 -0.859375 C 4.9375 -1.085938 4.875 -1.472656 4.875 -2.015625 C 4.875 -2.671875 5.050781 -3.3125 5.40625 -3.9375 C 5.476562 -3.863281 5.5625 -3.828125 5.65625 -3.828125 C 5.757812 -3.828125 5.882812 -3.878906 6.03125 -3.984375 C 6.09375 -3.972656 6.171875 -3.96875 6.265625 -3.96875 C 6.472656 -3.96875 6.722656 -4.035156 7.015625 -4.171875 L 8.484375 -4.171875 L 8.5625 -3.9375 L 9.390625 -4.28125 L 9.296875 -4.46875 C 9.359375 -4.695312 9.625 -4.992188 10.09375 -5.359375 L 9.984375 -6.265625 C 10.179688 -6.617188 10.28125 -6.929688 10.28125 -7.203125 C 10.28125 -7.484375 10.179688 -7.804688 9.984375 -8.171875 L 10.546875 -10.125 C 10.171875 -10.507812 9.984375 -11.070312 9.984375 -11.8125 L 10.203125 -13.3125 L 10.515625 -13.0625 L 10.578125 -13.515625 C 10.578125 -13.984375 10.429688 -14.359375 10.140625 -14.640625 L 10.59375 -16.515625 C 10.3125 -16.535156 10.171875 -16.898438 10.171875 -17.609375 L 10.171875 -17.828125 C 10.117188 -17.878906 10.09375 -17.941406 10.09375 -18.015625 C 10.09375 -18.085938 10.109375 -18.160156 10.140625 -18.234375 L 10.328125 -17.96875 C 10.453125 -18.050781 10.5625 -18.328125 10.65625 -18.796875 C 10.40625 -18.878906 10.28125 -19.171875 10.28125 -19.671875 C 10.28125 -20.441406 10.394531 -21.1875 10.625 -21.90625 L 10.203125 -21.625 L 10.328125 -22.671875 C 10.597656 -22.941406 10.75 -23.363281 10.78125 -23.9375 C 10.550781 -23.945312 10.4375 -24.328125 10.4375 -25.078125 L 10.4375 -25.359375 C 10.363281 -25.390625 10.328125 -25.429688 10.328125 -25.484375 C 10.328125 -25.535156 10.375 -25.609375 10.46875 -25.703125 L 10.203125 -26.203125 C 10.429688 -26.597656 10.546875 -27.046875 10.546875 -27.546875 L 10.546875 -27.921875 L 10.203125 -27.84375 L 10.546875 -28.484375 L 10.4375 -28.828125 L 8.03125 -29.046875 L 7.8125 -28.828125 C 7.601562 -29.171875 7.1875 -29.359375 6.5625 -29.390625 C 6.34375 -28.878906 5.769531 -28.503906 4.84375 -28.265625 C 5.238281 -27.941406 5.4375 -27.523438 5.4375 -27.015625 C 5.4375 -26.867188 5.390625 -26.738281 5.296875 -26.625 C 5.210938 -26.507812 5.113281 -26.429688 5 -26.390625 C 4.894531 -26.359375 4.789062 -26.207031 4.6875 -25.9375 C 4.632812 -25.8125 4.609375 -25.707031 4.609375 -25.625 C 4.609375 -25.507812 4.644531 -25.421875 4.71875 -25.359375 C 4.695312 -25.296875 4.6875 -25.222656 4.6875 -25.140625 C 4.6875 -24.941406 4.773438 -24.691406 4.953125 -24.390625 C 4.734375 -24.035156 4.625 -23.660156 4.625 -23.265625 C 4.625 -22.785156 4.769531 -22.320312 5.0625 -21.875 L 3 -20.96875 L 2.625 -21.171875 L 2.65625 -20.609375 L 1.53125 -20.609375 L 0.828125 -21.765625 L 0.796875 -22.171875 C 0.796875 -22.773438 0.992188 -23.242188 1.390625 -23.578125 L 1.125 -24.140625 C 0.90625 -24.160156 0.796875 -24.28125 0.796875 -24.5 C 0.796875 -24.65625 0.820312 -24.785156 0.875 -24.890625 C 0.9375 -25.003906 0.992188 -25.109375 1.046875 -25.203125 C 1.097656 -25.304688 1.148438 -25.421875 1.203125 -25.546875 C 1.253906 -25.671875 1.28125 -25.828125 1.28125 -26.015625 C 1.28125 -26.378906 1.148438 -26.5625 0.890625 -26.5625 L 0.828125 -27.46875 C 1.117188 -28.019531 1.265625 -28.554688 1.265625 -29.078125 C 1.265625 -29.554688 1.117188 -29.96875 0.828125 -30.3125 L 0.828125 -31.53125 L 1.015625 -31.78125 L 1.078125 -31.625 C 1.234375 -31.625 1.3125 -31.765625 1.3125 -32.046875 L 1.3125 -32.171875 L 1.765625 -32.171875 C 1.941406 -31.804688 2.15625 -31.625 2.40625 -31.625 C 2.65625 -31.625 2.929688 -31.835938 3.234375 -32.265625 L 4.421875 -32.359375 C 4.972656 -32.359375 5.300781 -32.242188 5.40625 -32.015625 L 6.671875 -32.015625 C 7.273438 -32.285156 7.890625 -32.421875 8.515625 -32.421875 C 9.035156 -32.421875 9.785156 -32.242188 10.765625 -31.890625 C 11.242188 -32.148438 11.671875 -32.28125 12.046875 -32.28125 C 12.390625 -32.28125 12.6875 -32.179688 12.9375 -31.984375 L 13.125 -32.234375 C 13.507812 -31.941406 13.8125 -31.796875 14.03125 -31.796875 C 14.175781 -31.796875 14.25 -31.890625 14.25 -32.078125 L 14.21875 -32.265625 L 16.59375 -32.265625 C 16.71875 -31.992188 16.890625 -31.859375 17.109375 -31.859375 L 17.859375 -32.015625 L 17.90625 -32.3125 L 18.65625 -32.015625 L 19.4375 -32.390625 L 19.5625 -32.015625 L 20.03125 -32.015625 C 20.238281 -31.804688 20.457031 -31.703125 20.6875 -31.703125 C 20.925781 -31.703125 21.171875 -31.796875 21.421875 -31.984375 L 22.4375 -31.703125 C 22.59375 -31.335938 22.671875 -30.976562 22.671875 -30.625 C 22.671875 -30.269531 22.59375 -29.90625 22.4375 -29.53125 L 23 -28.9375 L 23 -26.90625 L 22.703125 -26.859375 L 23 -26.109375 L 22.890625 -25.296875 L 23.15625 -25.21875 L 23 -24.5 L 23.375 -24.578125 L 23.234375 -23.6875 L 23.453125 -23.34375 C 22.859375 -22.882812 22.5625 -22.347656 22.5625 -21.734375 C 22.675781 -21.679688 22.734375 -21.628906 22.734375 -21.578125 C 22.734375 -21.546875 22.722656 -21.519531 22.703125 -21.5 C 22.648438 -21.40625 22.625 -21.320312 22.625 -21.25 L 22.625 -21.203125 L 22.109375 -20.421875 L 21.53125 -20.375 L 20.609375 -20.96875 L 20.609375 -21.234375 C 20.597656 -21.242188 20.59375 -21.257812 20.59375 -21.28125 C 20.59375 -21.332031 20.617188 -21.382812 20.671875 -21.4375 C 20.671875 -22.207031 20.195312 -22.769531 19.25 -23.125 C 19.375 -23.300781 19.4375 -23.515625 19.4375 -23.765625 C 19.4375 -24.015625 19.375 -24.257812 19.25 -24.5 C 19.5 -24.851562 19.722656 -25.03125 19.921875 -25.03125 L 20.234375 -24.953125 C 20.285156 -25.023438 20.3125 -25.085938 20.3125 -25.140625 C 20.3125 -25.210938 20.269531 -25.253906 20.1875 -25.265625 C 20.1875 -25.585938 20.085938 -25.75 19.890625 -25.75 C 19.859375 -25.75 19.8125 -25.742188 19.75 -25.734375 L 19.671875 -25.828125 C 19.835938 -26.265625 19.921875 -26.6875 19.921875 -27.09375 L 19.8125 -27.8125 C 19.9375 -27.988281 20 -28.175781 20 -28.375 C 20.050781 -28.414062 20.078125 -28.453125 20.078125 -28.484375 C 20.078125 -28.554688 20.023438 -28.632812 19.921875 -28.71875 C 19.628906 -28.4375 19.40625 -28.296875 19.25 -28.296875 C 19.082031 -28.296875 18.941406 -28.457031 18.828125 -28.78125 L 19 -28.9375 C 18.46875 -29.488281 17.925781 -29.765625 17.375 -29.765625 C 16.78125 -29.765625 16.144531 -29.453125 15.46875 -28.828125 L 14.640625 -29.234375 L 13.875 -29.1875 C 13.6875 -28.71875 13.59375 -28.160156 13.59375 -27.515625 C 13.59375 -27.035156 13.6875 -26.707031 13.875 -26.53125 L 13.875 -26.078125 L 13.4375 -26.078125 L 13.875 -25.625 L 13.875 -24.734375 L 14.328125 -24.5 C 14.109375 -23.882812 13.769531 -23.5 13.3125 -23.34375 C 13.738281 -23.25 13.953125 -23.046875 13.953125 -22.734375 C 13.953125 -22.492188 13.84375 -22.207031 13.625 -21.875 L 13.8125 -21.65625 C 13.726562 -21.257812 13.5625 -20.910156 13.3125 -20.609375 L 13.578125 -19.25 L 13.953125 -19.328125 L 13.578125 -16.953125 L 13.953125 -16.546875 L 13.578125 -16.171875 L 13.953125 -15.84375 L 13.578125 -15.390625 C 13.578125 -15.242188 13.640625 -15.171875 13.765625 -15.171875 C 13.835938 -15.285156 13.96875 -15.34375 14.15625 -15.34375 L 14.25 -15.34375 C 13.90625 -14.84375 13.734375 -14.332031 13.734375 -13.8125 C 13.734375 -13.351562 13.875 -12.925781 14.15625 -12.53125 C 13.800781 -11.957031 13.625 -11.535156 13.625 -11.265625 C 13.625 -11.128906 13.671875 -11.019531 13.765625 -10.9375 C 13.867188 -10.851562 13.921875 -10.738281 13.921875 -10.59375 C 13.921875 -10.363281 13.882812 -10.226562 13.8125 -10.1875 C 13.738281 -10.144531 13.703125 -10.050781 13.703125 -9.90625 C 13.703125 -9.757812 13.625 -9.644531 13.46875 -9.5625 C 13.375 -9.507812 13.328125 -9.453125 13.328125 -9.390625 C 13.328125 -9.335938 13.375 -9.273438 13.46875 -9.203125 C 13.425781 -9.097656 13.40625 -8.992188 13.40625 -8.890625 C 13.40625 -8.566406 13.5625 -8.253906 13.875 -7.953125 C 13.800781 -7.828125 13.765625 -7.554688 13.765625 -7.140625 C 13.765625 -6.609375 13.953125 -6.15625 14.328125 -5.78125 L 14.21875 -4.984375 C 14.394531 -4.609375 14.644531 -4.421875 14.96875 -4.421875 C 15.164062 -4.421875 15.390625 -4.5 15.640625 -4.65625 L 16.59375 -4.65625 C 16.738281 -3.757812 17.234375 -3.3125 18.078125 -3.3125 L 18.65625 -3.375 C 18.976562 -3.019531 19.140625 -2.410156 19.140625 -1.546875 L 19.09375 -1.546875 C 18.664062 -1.546875 18.328125 -1.09375 18.078125 -0.1875 L 17.140625 0.078125 L 14.75 -0.234375 L 14.4375 -0.515625 L 14.140625 0.15625 C 13.835938 -0.320312 13.46875 -0.5625 13.03125 -0.5625 C 12.945312 -0.40625 12.820312 -0.328125 12.65625 -0.328125 L 12.5 -0.328125 C 12.34375 -0.328125 12.191406 -0.296875 12.046875 -0.234375 C 11.867188 -0.148438 11.679688 -0.0703125 11.484375 0 C 11.410156 0.03125 11.332031 0.046875 11.25 0.046875 C 11.132812 0.046875 11.023438 0.015625 10.921875 -0.046875 C 10.816406 0.015625 10.707031 0.046875 10.59375 0.046875 C 10.53125 0.046875 10.472656 0.0390625 10.421875 0.03125 C 10.234375 -0.0195312 10.050781 -0.0820312 9.875 -0.15625 C 9.75 -0.195312 9.617188 -0.21875 9.484375 -0.21875 L 9.3125 -0.21875 C 9.28125 -0.195312 9.253906 -0.1875 9.234375 -0.1875 C 9.085938 -0.1875 8.988281 -0.257812 8.9375 -0.40625 C 8.601562 -0.40625 8.390625 -0.253906 8.296875 0.046875 Z M 6.15625 0.046875 "/></g></g></g><g fill="#000000" fill-opacity="1"><g transform="translate(117.816512, 112.478148)"><g><path d="M 4.34375 -31.828125 C 4.644531 -31.828125 4.835938 -31.882812 4.921875 -32 C 5.015625 -32.113281 5.101562 -32.171875 5.1875 -32.171875 C 5.3125 -32.171875 5.472656 -32.019531 5.671875 -31.71875 L 6.296875 -32.171875 L 6.6875 -31.78125 C 7.382812 -32.03125 8.054688 -32.15625 8.703125 -32.15625 C 9.773438 -32.15625 10.890625 -31.929688 12.046875 -31.484375 L 12.046875 -31.140625 C 12.046875 -29.765625 11.742188 -28.96875 11.140625 -28.75 L 10.59375 -28.890625 C 10.289062 -28.890625 10.015625 -28.765625 9.765625 -28.515625 L 9.234375 -28.625 C 8.910156 -28.625 8.597656 -28.46875 8.296875 -28.15625 L 8.515625 -26.453125 C 8.210938 -26.359375 8.0625 -26.210938 8.0625 -26.015625 L 8.265625 -25.21875 L 8.078125 -24.515625 C 8.078125 -24.203125 8.273438 -23.710938 8.671875 -23.046875 L 8.0625 -23.375 L 8.0625 -19.359375 L 8.40625 -19.296875 L 8.1875 -16.515625 L 8.453125 -16.203125 L 8.1875 -15.71875 C 8.40625 -15.570312 8.515625 -15.421875 8.515625 -15.265625 C 8.515625 -15.140625 8.460938 -15.015625 8.359375 -14.890625 C 8.265625 -14.765625 8.21875 -14.601562 8.21875 -14.40625 C 8.21875 -14.082031 8.28125 -13.785156 8.40625 -13.515625 L 8.1875 -11.859375 C 8.1875 -11.109375 8.335938 -10.445312 8.640625 -9.875 L 8.640625 -8.9375 C 8.535156 -8.832031 8.484375 -8.644531 8.484375 -8.375 C 8.484375 -7.800781 8.679688 -7.0625 9.078125 -6.15625 L 8.140625 -6.390625 L 9.109375 -4.5 L 9.109375 -3.59375 L 9.875 -3.453125 C 10.195312 -3.453125 10.535156 -3.53125 10.890625 -3.6875 C 11.441406 -3.375 11.898438 -3.21875 12.265625 -3.21875 C 12.398438 -3.21875 12.515625 -3.242188 12.609375 -3.296875 C 12.710938 -3.347656 12.804688 -3.398438 12.890625 -3.453125 C 12.984375 -3.503906 13.082031 -3.554688 13.1875 -3.609375 C 13.300781 -3.660156 13.429688 -3.6875 13.578125 -3.6875 C 13.785156 -3.6875 14.003906 -3.644531 14.234375 -3.5625 C 14.472656 -3.488281 14.796875 -3.453125 15.203125 -3.453125 C 15.554688 -3.453125 15.96875 -3.488281 16.4375 -3.5625 C 16.90625 -3.644531 17.441406 -3.757812 18.046875 -3.90625 L 18.203125 -3.484375 L 19.171875 -3.78125 L 19.21875 -4.15625 C 19.21875 -4.5625 19.015625 -4.941406 18.609375 -5.296875 C 19.109375 -5.535156 19.5625 -5.957031 19.96875 -6.5625 C 19.664062 -7.019531 19.515625 -7.394531 19.515625 -7.6875 C 19.515625 -7.8125 19.550781 -7.921875 19.625 -8.015625 C 19.695312 -8.117188 19.773438 -8.210938 19.859375 -8.296875 C 19.953125 -8.390625 20.035156 -8.476562 20.109375 -8.5625 C 20.179688 -8.65625 20.21875 -8.765625 20.21875 -8.890625 L 20 -9.6875 C 20 -10.03125 20.375 -10.28125 21.125 -10.4375 C 21.695312 -10.425781 22 -10.085938 22.03125 -9.421875 C 22.675781 -9.015625 23 -8.140625 23 -6.796875 L 22.921875 -5.515625 C 23.128906 -4.890625 23.234375 -4.265625 23.234375 -3.640625 C 23.234375 -2.390625 22.804688 -1.125 21.953125 0.15625 C 21.398438 -0.226562 21.023438 -0.421875 20.828125 -0.421875 C 20.734375 -0.421875 20.6875 -0.367188 20.6875 -0.265625 L 20.78125 0.078125 C 20.414062 -0.0976562 20.003906 -0.1875 19.546875 -0.1875 C 18.972656 -0.1875 18.398438 0.015625 17.828125 0.421875 L 16.46875 0.421875 C 16.175781 0.0351562 15.835938 -0.15625 15.453125 -0.15625 C 15.054688 -0.15625 14.632812 0.0351562 14.1875 0.421875 L 13.84375 0.421875 L 13.875 -0.234375 C 13.132812 0.078125 12.390625 0.234375 11.640625 0.234375 C 11.066406 0.234375 10.410156 0.109375 9.671875 -0.140625 C 9.023438 0.078125 8.46875 0.1875 8 0.1875 C 7.789062 0.1875 7.601562 0.160156 7.4375 0.109375 C 7.28125 0.0664062 7.117188 0.015625 6.953125 -0.046875 C 6.796875 -0.109375 6.625 -0.160156 6.4375 -0.203125 C 6.25 -0.242188 6.015625 -0.265625 5.734375 -0.265625 C 5.390625 -0.265625 4.976562 -0.234375 4.5 -0.171875 C 4.03125 -0.109375 3.484375 -0.015625 2.859375 0.109375 L 2.515625 -0.375 L 2.25 -0.265625 C 2.125 -0.265625 2.023438 -0.375 1.953125 -0.59375 L 2.015625 -1.046875 C 2.015625 -1.441406 1.953125 -1.789062 1.828125 -2.09375 L 3.078125 -2.890625 L 3.046875 -3.15625 L 3.59375 -3.046875 C 4.125 -3.046875 4.390625 -3.53125 4.390625 -4.5 L 4.390625 -4.875 L 4.796875 -4.953125 C 4.628906 -5.378906 4.546875 -5.816406 4.546875 -6.265625 C 4.546875 -6.921875 4.734375 -7.585938 5.109375 -8.265625 L 4.65625 -8.9375 L 4.765625 -9.71875 C 4.765625 -9.988281 4.707031 -10.226562 4.59375 -10.4375 C 4.476562 -10.65625 4.421875 -10.84375 4.421875 -11 C 4.421875 -11.164062 4.457031 -11.320312 4.53125 -11.46875 C 4.613281 -11.625 4.65625 -11.832031 4.65625 -12.09375 L 4.65625 -12.265625 C 5.007812 -12.398438 5.1875 -12.550781 5.1875 -12.71875 C 5.1875 -12.820312 5.109375 -12.9375 4.953125 -13.0625 C 4.804688 -13.1875 4.734375 -13.410156 4.734375 -13.734375 C 4.734375 -14.128906 4.859375 -14.367188 5.109375 -14.453125 L 4.65625 -15.234375 L 4.734375 -16.28125 C 4.859375 -16.28125 4.921875 -16.40625 4.921875 -16.65625 L 4.6875 -17.984375 L 5 -18.359375 L 4.65625 -18.453125 L 4.6875 -19.40625 C 4.863281 -19.40625 4.953125 -19.488281 4.953125 -19.65625 C 4.953125 -19.832031 4.816406 -20.148438 4.546875 -20.609375 L 4.5 -22.9375 C 4.78125 -23.050781 4.921875 -23.296875 4.921875 -23.671875 C 4.921875 -24.109375 4.726562 -24.710938 4.34375 -25.484375 L 4.359375 -26.125 C 4.523438 -26.175781 4.609375 -26.425781 4.609375 -26.875 C 4.609375 -27.238281 4.535156 -27.550781 4.390625 -27.8125 C 4.242188 -28.082031 4.054688 -28.304688 3.828125 -28.484375 C 3.597656 -28.660156 3.328125 -28.796875 3.015625 -28.890625 C 2.710938 -28.992188 2.394531 -29.0625 2.0625 -29.09375 L 2.09375 -29.203125 C 2.09375 -29.398438 1.78125 -29.519531 1.15625 -29.5625 L 1.15625 -31.03125 C 1.738281 -31.238281 2.304688 -31.617188 2.859375 -32.171875 C 3.304688 -31.941406 3.800781 -31.828125 4.34375 -31.828125 Z M 4.34375 -31.828125 "/></g></g></g><g fill="#000000" fill-opacity="1"><g transform="translate(145.957764, 112.478148)"><g><path d="M 1.953125 -0.375 C 1.742188 -1.21875 1.640625 -2.03125 1.640625 -2.8125 C 1.640625 -3.6875 1.726562 -4.382812 1.90625 -4.90625 L 1.6875 -5.296875 L 1.953125 -5.515625 L 1.984375 -6.15625 C 1.984375 -6.832031 1.859375 -7.191406 1.609375 -7.234375 L 1.609375 -7.546875 C 1.835938 -7.671875 1.953125 -8.179688 1.953125 -9.078125 L 1.953125 -9.265625 C 2.203125 -9.265625 2.398438 -9.367188 2.546875 -9.578125 C 2.847656 -9.390625 3.175781 -9.296875 3.53125 -9.296875 C 3.945312 -9.296875 4.269531 -9.359375 4.5 -9.484375 C 4.851562 -9.015625 5.03125 -8.328125 5.03125 -7.421875 L 4.984375 -6.484375 L 5.296875 -6.375 L 4.984375 -5.84375 C 5.585938 -5.84375 6.203125 -5.632812 6.828125 -5.21875 L 7.125 -5.46875 L 7.515625 -5.1875 L 7.4375 -4.875 C 7.4375 -4.625 7.546875 -4.335938 7.765625 -4.015625 L 9.859375 -4.4375 L 10.96875 -4.15625 L 11.625 -4.234375 C 11.875 -4.234375 12.09375 -4.144531 12.28125 -3.96875 C 12.46875 -3.800781 12.6875 -3.71875 12.9375 -3.71875 C 13.195312 -3.71875 13.515625 -3.851562 13.890625 -4.125 C 14.128906 -4 14.390625 -3.9375 14.671875 -3.9375 C 15.066406 -3.9375 15.316406 -4.140625 15.421875 -4.546875 L 17.265625 -5.1875 L 17.265625 -5.328125 C 17.265625 -5.859375 17.535156 -6.3125 18.078125 -6.6875 L 17.9375 -7.609375 C 17.9375 -8.015625 18.070312 -8.21875 18.34375 -8.21875 L 18.546875 -8.1875 C 18.191406 -9.5625 17.1875 -10.382812 15.53125 -10.65625 C 15.101562 -11.082031 14.582031 -11.296875 13.96875 -11.296875 C 13.582031 -11.296875 13.328125 -11.257812 13.203125 -11.1875 L 12.640625 -11.71875 C 12.242188 -11.4375 11.78125 -11.296875 11.25 -11.296875 L 10.421875 -11.40625 L 10.546875 -10.8125 C 9.742188 -11.457031 8.921875 -11.78125 8.078125 -11.78125 L 7.421875 -11.71875 L 6.9375 -12.390625 L 6.6875 -11.59375 C 6.226562 -12.34375 5.601562 -12.71875 4.8125 -12.71875 L 4.5 -12.6875 L 4.046875 -13.125 L 4.25 -13.546875 L 3.234375 -13.765625 C 2.878906 -14.117188 2.65625 -14.679688 2.5625 -15.453125 L 2.1875 -15.15625 L 2.21875 -15.84375 C 2.21875 -16.707031 2.050781 -17.191406 1.71875 -17.296875 L 1.734375 -18.796875 C 2.128906 -18.796875 2.4375 -19.222656 2.65625 -20.078125 L 2.96875 -19.9375 L 3.453125 -21.25 L 3.671875 -21.203125 C 3.773438 -21.203125 3.828125 -21.28125 3.828125 -21.4375 L 3.796875 -21.6875 L 4.84375 -21.90625 C 4.914062 -22.40625 5.265625 -22.722656 5.890625 -22.859375 L 5.8125 -23.15625 L 6.078125 -23.078125 C 6.222656 -23.078125 6.296875 -23.164062 6.296875 -23.34375 L 6.265625 -23.53125 L 7.125 -23.453125 C 7.445312 -23.453125 7.722656 -23.488281 7.953125 -23.5625 C 8.179688 -23.644531 8.390625 -23.738281 8.578125 -23.84375 C 8.765625 -23.957031 8.929688 -24.050781 9.078125 -24.125 C 9.234375 -24.207031 9.394531 -24.25 9.5625 -24.25 C 9.757812 -24.25 9.953125 -24.195312 10.140625 -24.09375 C 10.328125 -23.988281 10.597656 -23.9375 10.953125 -23.9375 L 11.9375 -24.046875 C 12.613281 -23.628906 13.113281 -23.421875 13.4375 -23.421875 C 13.65625 -23.421875 13.804688 -23.492188 13.890625 -23.640625 L 14.484375 -23.3125 C 14.484375 -22.925781 15.296875 -22.535156 16.921875 -22.140625 L 16.84375 -21.84375 C 16.84375 -21.570312 17.097656 -21.410156 17.609375 -21.359375 C 18.148438 -22.953125 19.3125 -23.75 21.09375 -23.75 C 21.394531 -23.75 21.554688 -23.671875 21.578125 -23.515625 C 21.609375 -23.367188 21.625 -23.195312 21.625 -23 C 21.625 -22.457031 21.5625 -22.054688 21.4375 -21.796875 C 21.675781 -21.453125 21.796875 -21.117188 21.796875 -20.796875 C 21.796875 -20.566406 21.734375 -20.363281 21.609375 -20.1875 L 22.28125 -20.234375 C 21.5625 -19.304688 21.203125 -18.328125 21.203125 -17.296875 C 21.578125 -17.296875 21.765625 -16.960938 21.765625 -16.296875 L 21.6875 -15.46875 L 21.34375 -15.53125 C 21.144531 -15.3125 20.835938 -15.203125 20.421875 -15.203125 L 19.8125 -15.265625 C 19.382812 -16.347656 18.992188 -16.890625 18.640625 -16.890625 L 18.421875 -16.8125 L 18.421875 -16.953125 C 18.421875 -17.210938 18.269531 -17.363281 17.96875 -17.40625 L 18.015625 -17.75 C 18.015625 -17.90625 17.972656 -17.984375 17.890625 -17.984375 L 17.71875 -17.9375 L 17.609375 -18.578125 C 17.054688 -19.078125 16.378906 -19.328125 15.578125 -19.328125 L 15.421875 -19.328125 C 15.078125 -19.984375 14.515625 -20.3125 13.734375 -20.3125 L 13.4375 -20.296875 C 13.03125 -20.703125 12.71875 -20.90625 12.5 -20.90625 C 12.289062 -20.90625 12.175781 -20.742188 12.15625 -20.421875 C 11.3125 -20.847656 10.550781 -21.0625 9.875 -21.0625 C 8.875 -21.0625 8.023438 -20.617188 7.328125 -19.734375 L 7.140625 -19.734375 C 6.535156 -19.734375 6.046875 -19.382812 5.671875 -18.6875 C 5.921875 -18.332031 6.046875 -18.03125 6.046875 -17.78125 C 6.046875 -17.40625 5.84375 -17.066406 5.4375 -16.765625 L 6.578125 -15.359375 L 7.84375 -15.65625 L 7.171875 -15.046875 C 7.566406 -14.816406 7.96875 -14.703125 8.375 -14.703125 C 8.675781 -14.703125 9.007812 -14.78125 9.375 -14.9375 C 10.957031 -14.53125 11.957031 -14.328125 12.375 -14.328125 C 12.757812 -14.328125 12.972656 -14.425781 13.015625 -14.625 L 13.546875 -14.40625 C 13.796875 -13.832031 14.082031 -13.546875 14.40625 -13.546875 L 14.859375 -14.40625 L 14.9375 -13.546875 C 15.164062 -13.671875 15.523438 -13.734375 16.015625 -13.734375 C 16.816406 -13.734375 17.554688 -13.5625 18.234375 -13.21875 L 18.90625 -13.4375 C 19.34375 -12.632812 20.054688 -12.234375 21.046875 -12.234375 L 21.390625 -12.265625 L 20.78125 -11.625 L 21.625 -11.8125 C 21.625 -11.164062 21.945312 -10.601562 22.59375 -10.125 L 22.59375 -9.984375 C 22.59375 -9.585938 22.789062 -9.273438 23.1875 -9.046875 L 23.1875 -7.875 L 22.78125 -7.46875 L 22.671875 -6.6875 L 23.203125 -6.390625 C 22.648438 -6.054688 22.375 -5.503906 22.375 -4.734375 L 22.375 -4.65625 C 21.289062 -4.570312 20.632812 -4.109375 20.40625 -3.265625 L 20.78125 -2.9375 C 20.132812 -2.851562 19.800781 -2.425781 19.78125 -1.65625 L 19.25 -1.765625 L 19.40625 -1.265625 L 18.90625 -1.34375 L 18.640625 0.140625 L 18.421875 -0.796875 L 17.671875 -0.890625 C 16.847656 -0.890625 16.097656 -0.578125 15.421875 0.046875 L 15.015625 0 C 14.585938 0 14.144531 0.203125 13.6875 0.609375 L 13.78125 0.234375 C 13.78125 0.0976562 13.703125 0.03125 13.546875 0.03125 L 13.4375 0.046875 L 13.5 0.21875 C 13.5 0.46875 13.164062 0.59375 12.5 0.59375 L 12.390625 0.59375 C 12.304688 0.0390625 11.957031 -0.28125 11.34375 -0.375 C 11.238281 -0.09375 10.882812 0.046875 10.28125 0.046875 L 10.0625 0.046875 C 9.90625 -0.703125 9.253906 -1.164062 8.109375 -1.34375 L 8.1875 -0.9375 C 8.1875 -0.6875 8.046875 -0.5625 7.765625 -0.5625 L 7.171875 -0.671875 L 7.359375 -1.34375 L 6.484375 -0.796875 C 6.367188 -1.171875 6.207031 -1.359375 6 -1.359375 C 5.832031 -1.359375 5.660156 -1.28125 5.484375 -1.125 L 5.1875 -1.546875 C 4.75 -1.210938 4.40625 -0.710938 4.15625 -0.046875 Z M 1.953125 -0.375 "/></g></g></g></svg>