<svg xmlns="http://www.w3.org/2000/svg" xmlns:xlink="http://www.w3.org/1999/xlink" width="357" zoomAndPan="magnify" viewBox="0 0 267.75 158.249993" height="211" preserveAspectRatio="xMidYMid meet" version="1.0"><defs><clipPath id="0faeede753"><path d="M 28.121094 9 L 239 9 L 239 143.320312 L 28.121094 143.320312 Z M 28.121094 9 " clip-rule="nonzero"/></clipPath><clipPath id="3bd6a4262a"><path d="M 146.753906 16.261719 L 236.25 127.128906 C 238.664062 130.121094 239.148438 134.238281 237.488281 137.710938 C 235.828125 141.179688 232.324219 143.390625 228.476562 143.390625 L 38.777344 143.390625 C 34.929688 143.390625 31.425781 141.179688 29.765625 137.710938 C 28.105469 134.238281 28.589844 130.121094 31.007812 127.128906 L 120.5 16.261719 C 123.703125 12.292969 128.527344 9.988281 133.628906 9.988281 C 138.726562 9.988281 143.550781 12.292969 146.753906 16.261719 Z M 146.753906 16.261719 " clip-rule="nonzero"/></clipPath></defs><path stroke-linecap="butt" transform="matrix(0.746462, 0, 0, 0.746462, 14.441037, 53.329259)" fill="none" stroke-linejoin="miter" d="M 171.517886 28.675418 L 188.881039 28.675418 C 189.566565 28.675418 190.14743 28.926603 190.6341 29.423739 C 191.13647 29.91041 191.387655 30.496508 191.387655 31.182033 L 191.387655 91.471632 C 191.387655 92.151924 191.13647 92.748488 190.6341 93.245625 C 190.14743 93.747994 189.566565 93.999179 188.881039 93.999179 L 173.841346 93.999179 C 172.355169 93.999179 171.114944 93.345052 170.125903 92.042031 L 149.77993 66.086262 L 149.77993 91.471632 C 149.77993 92.151924 149.528745 92.748488 149.026376 93.245625 C 148.529239 93.747994 147.932675 93.999179 147.252383 93.999179 L 129.889229 93.999179 C 129.203704 93.999179 128.612373 93.747994 128.110003 93.245625 C 127.623333 92.748488 127.382614 92.151924 127.382614 91.471632 L 127.382614 31.182033 C 127.382614 30.496508 127.623333 29.91041 128.110003 29.423739 C 128.612373 28.926603 129.203704 28.675418 129.889229 28.675418 L 145.017884 28.675418 C 146.509294 28.675418 147.712888 29.298147 148.639132 30.543605 L 168.990339 58.634445 L 168.990339 31.182033 C 168.990339 30.496508 169.241523 29.91041 169.73866 29.423739 C 170.24103 28.926603 170.832361 28.675418 171.517886 28.675418 Z M 171.517886 28.675418 " stroke="#000000" stroke-width="1.749999" stroke-opacity="1" stroke-miterlimit="4"/><g clip-path="url(#0faeede753)"><g clip-path="url(#3bd6a4262a)"><path fill="#000000" d="M 158.34375 27.054688 L 166.78125 37.507812 L 163.296875 40.320312 L 154.859375 29.867188 Z M 168.1875 39.25 L 176.628906 49.707031 L 173.144531 52.519531 L 164.703125 42.0625 Z M 178.035156 51.449219 L 186.476562 61.902344 L 182.988281 64.714844 L 174.550781 54.261719 Z M 187.882812 63.644531 L 196.320312 74.101562 L 192.835938 76.914062 L 184.394531 66.460938 Z M 197.726562 75.84375 L 206.167969 86.296875 L 202.683594 89.113281 L 194.242188 78.65625 Z M 207.574219 88.039062 L 216.011719 98.496094 L 212.527344 101.308594 L 204.089844 90.855469 Z M 217.421875 100.238281 L 225.859375 110.695312 L 222.375 113.507812 L 213.933594 103.050781 Z M 227.265625 112.4375 L 235.707031 122.890625 L 232.21875 125.703125 L 223.78125 115.25 Z M 237.113281 124.632812 L 237.992188 125.722656 C 241.21875 129.722656 241.722656 134.039062 239.507812 138.675781 C 239.359375 138.988281 239.195312 139.292969 239.019531 139.59375 L 235.15625 137.328125 C 235.269531 137.136719 235.371094 136.941406 235.46875 136.742188 C 236.871094 133.804688 236.550781 131.070312 234.503906 128.535156 L 233.628906 127.445312 Z M 237.378906 141.78125 C 234.964844 144.347656 231.996094 145.628906 228.476562 145.628906 L 223.160156 145.628906 L 223.160156 141.152344 L 228.476562 141.152344 C 230.707031 141.152344 232.589844 140.339844 234.121094 138.714844 Z M 220.921875 145.628906 L 207.488281 145.628906 L 207.488281 141.152344 L 220.921875 141.152344 Z M 205.246094 145.628906 L 191.8125 145.628906 L 191.8125 141.152344 L 205.246094 141.152344 Z M 189.570312 145.628906 L 176.136719 145.628906 L 176.136719 141.152344 L 189.570312 141.152344 Z M 173.894531 145.628906 L 160.460938 145.628906 L 160.460938 141.152344 L 173.894531 141.152344 Z M 158.21875 145.628906 L 144.785156 145.628906 L 144.785156 141.152344 L 158.21875 141.152344 Z M 142.542969 145.628906 L 129.109375 145.628906 L 129.109375 141.152344 L 142.542969 141.152344 Z M 126.867188 145.628906 L 113.433594 145.628906 L 113.433594 141.152344 L 126.867188 141.152344 Z M 111.191406 145.628906 L 97.757812 145.628906 L 97.757812 141.152344 L 111.191406 141.152344 Z M 95.515625 145.628906 L 82.082031 145.628906 L 82.082031 141.152344 L 95.515625 141.152344 Z M 79.839844 145.628906 L 66.40625 145.628906 L 66.40625 141.152344 L 79.839844 141.152344 Z M 64.164062 145.628906 L 50.730469 145.628906 L 50.730469 141.152344 L 64.164062 141.152344 Z M 48.488281 145.628906 L 38.777344 145.628906 C 37.234375 145.628906 35.742188 145.347656 34.304688 144.78125 L 35.945312 140.613281 C 36.855469 140.972656 37.796875 141.152344 38.777344 141.152344 L 48.488281 141.152344 Z M 31.882812 143.5 C 30.070312 142.265625 28.691406 140.65625 27.746094 138.675781 C 26.210938 135.460938 26.097656 132.203125 27.414062 128.890625 L 31.574219 130.542969 C 30.742188 132.640625 30.8125 134.707031 31.785156 136.742188 C 32.386719 138 33.261719 139.019531 34.410156 139.800781 Z M 28.699219 126.476562 C 28.878906 126.21875 29.066406 125.96875 29.261719 125.722656 L 37.226562 115.859375 L 40.710938 118.671875 L 32.75 128.535156 C 32.621094 128.691406 32.503906 128.851562 32.390625 129.015625 Z M 38.632812 114.117188 L 47.070312 103.660156 L 50.558594 106.472656 L 42.117188 116.929688 Z M 48.480469 101.917969 L 56.917969 91.460938 L 60.402344 94.277344 L 51.964844 104.730469 Z M 58.324219 89.71875 L 66.765625 79.265625 L 70.25 82.078125 L 61.808594 92.535156 Z M 68.171875 77.523438 L 76.609375 67.066406 L 80.097656 69.882812 L 71.65625 80.335938 Z M 78.015625 65.324219 L 86.457031 54.871094 L 89.941406 57.683594 L 81.503906 68.136719 Z M 87.863281 53.128906 L 96.304688 42.671875 L 99.789062 45.484375 L 91.347656 55.941406 Z M 97.710938 40.929688 L 106.148438 30.476562 L 109.632812 33.289062 L 101.195312 43.742188 Z M 107.554688 28.734375 L 115.996094 18.277344 L 119.480469 21.089844 L 111.039062 31.546875 Z M 117.402344 16.535156 L 118.757812 14.855469 C 121.542969 11.40625 125.097656 9.191406 129.421875 8.21875 L 130.410156 12.585938 C 127.097656 13.332031 124.375 15.027344 122.242188 17.667969 L 120.886719 19.347656 Z M 131.921875 7.824219 C 132.488281 7.773438 133.058594 7.75 133.628906 7.75 C 138.34375 7.75 142.492188 9.285156 146.070312 12.355469 L 143.152344 15.753906 C 140.414062 13.402344 137.238281 12.226562 133.628906 12.226562 C 133.191406 12.226562 132.757812 12.246094 132.324219 12.285156 Z M 147.882812 14.132812 C 148.09375 14.367188 148.296875 14.609375 148.496094 14.855469 L 156.9375 25.3125 L 153.453125 28.125 L 145.011719 17.667969 C 144.859375 17.480469 144.703125 17.296875 144.542969 17.113281 Z M 147.882812 14.132812 " fill-opacity="1" fill-rule="nonzero"/></g></g></svg>