<svg xmlns="http://www.w3.org/2000/svg" xmlns:xlink="http://www.w3.org/1999/xlink" width="398" zoomAndPan="magnify" viewBox="0 0 298.5 173.999997" height="232" preserveAspectRatio="xMidYMid meet" version="1.0"><defs><clipPath id="f009bbf96a"><path d="M 43.003906 10 L 254 10 L 254 143.90625 L 43.003906 143.90625 Z M 43.003906 10 " clip-rule="nonzero"/></clipPath><clipPath id="a0ef579b48"><path d="M 162 16.457031 L 251.765625 127.664062 C 254.191406 130.664062 254.675781 134.792969 253.011719 138.277344 C 251.347656 141.757812 247.828125 143.976562 243.972656 143.976562 L 53.691406 143.976562 C 49.832031 143.976562 46.316406 141.757812 44.652344 138.277344 C 42.988281 134.792969 43.472656 130.664062 45.898438 127.664062 L 135.664062 16.457031 C 138.875 12.476562 143.71875 10.164062 148.832031 10.164062 C 153.945312 10.164062 158.785156 12.476562 162 16.457031 Z M 162 16.457031 " clip-rule="nonzero"/></clipPath></defs><g clip-path="url(#f009bbf96a)"><g clip-path="url(#a0ef579b48)"><path fill="#000000" d="M 173.625 27.28125 L 182.089844 37.769531 L 178.59375 40.589844 L 170.128906 30.101562 Z M 183.5 39.515625 L 191.964844 50.003906 L 188.46875 52.824219 L 180.003906 42.339844 Z M 193.375 51.75 L 201.839844 62.238281 L 198.34375 65.058594 L 189.878906 54.574219 Z M 203.253906 63.984375 L 211.71875 74.472656 L 208.222656 77.292969 L 199.757812 66.808594 Z M 213.128906 76.222656 L 221.59375 86.707031 L 218.097656 89.53125 L 209.632812 79.042969 Z M 223.003906 88.457031 L 231.46875 98.941406 L 227.972656 101.765625 L 219.507812 91.277344 Z M 232.878906 100.691406 L 241.347656 111.179688 L 237.851562 114 L 229.386719 103.511719 Z M 242.757812 112.925781 L 251.222656 123.414062 L 247.726562 126.234375 L 239.261719 115.746094 Z M 252.632812 125.160156 L 253.515625 126.253906 C 256.753906 130.261719 257.261719 134.59375 255.035156 139.246094 C 254.886719 139.558594 254.722656 139.867188 254.546875 140.167969 L 250.671875 137.890625 C 250.785156 137.703125 250.886719 137.507812 250.984375 137.308594 C 252.390625 134.359375 252.070312 131.617188 250.019531 129.074219 L 249.136719 127.980469 Z M 252.902344 142.363281 C 250.480469 144.933594 247.503906 146.222656 243.972656 146.222656 L 238.640625 146.222656 L 238.640625 141.730469 L 243.972656 141.730469 C 246.210938 141.730469 248.097656 140.914062 249.632812 139.28125 Z M 236.394531 146.222656 L 222.917969 146.222656 L 222.917969 141.730469 L 236.394531 141.730469 Z M 220.671875 146.222656 L 207.191406 146.222656 L 207.191406 141.730469 L 220.671875 141.730469 Z M 204.945312 146.222656 L 191.46875 146.222656 L 191.46875 141.730469 L 204.945312 141.730469 Z M 189.222656 146.222656 L 175.746094 146.222656 L 175.746094 141.730469 L 189.222656 141.730469 Z M 173.5 146.222656 L 160.023438 146.222656 L 160.023438 141.730469 L 173.5 141.730469 Z M 157.777344 146.222656 L 144.296875 146.222656 L 144.296875 141.730469 L 157.777344 141.730469 Z M 142.050781 146.222656 L 128.574219 146.222656 L 128.574219 141.730469 L 142.050781 141.730469 Z M 126.328125 146.222656 L 112.851562 146.222656 L 112.851562 141.730469 L 126.328125 141.730469 Z M 110.605469 146.222656 L 97.128906 146.222656 L 97.128906 141.730469 L 110.605469 141.730469 Z M 94.882812 146.222656 L 81.402344 146.222656 L 81.402344 141.730469 L 94.882812 141.730469 Z M 79.15625 146.222656 L 65.679688 146.222656 L 65.679688 141.730469 L 79.15625 141.730469 Z M 63.433594 146.222656 L 53.691406 146.222656 C 52.140625 146.222656 50.648438 145.9375 49.207031 145.371094 L 50.851562 141.191406 C 51.761719 141.550781 52.710938 141.730469 53.691406 141.730469 L 63.433594 141.730469 Z M 46.777344 144.085938 C 44.960938 142.84375 43.574219 141.230469 42.625 139.246094 C 41.085938 136.023438 40.976562 132.75 42.292969 129.433594 L 46.46875 131.089844 C 45.632812 133.191406 45.703125 135.265625 46.679688 137.308594 C 47.28125 138.566406 48.160156 139.589844 49.308594 140.375 Z M 43.582031 127.011719 C 43.761719 126.75 43.949219 126.496094 44.148438 126.253906 L 52.136719 116.359375 L 55.632812 119.179688 L 47.644531 129.074219 C 47.519531 129.230469 47.398438 129.390625 47.285156 129.554688 Z M 53.546875 114.609375 L 62.011719 104.121094 L 65.507812 106.945312 L 57.042969 117.433594 Z M 63.421875 102.375 L 71.886719 91.886719 L 75.382812 94.710938 L 66.917969 105.195312 Z M 73.300781 90.140625 L 81.765625 79.652344 L 85.261719 82.476562 L 76.792969 92.960938 Z M 83.175781 77.90625 L 91.640625 67.417969 L 95.136719 70.238281 L 86.671875 80.726562 Z M 93.050781 65.671875 L 101.515625 55.183594 L 105.011719 58.003906 L 96.546875 68.492188 Z M 102.929688 53.4375 L 111.394531 42.949219 L 114.890625 45.769531 L 106.421875 56.257812 Z M 112.804688 41.199219 L 121.269531 30.714844 L 124.765625 33.535156 L 116.300781 44.023438 Z M 122.679688 28.964844 L 131.144531 18.480469 L 134.640625 21.300781 L 126.175781 31.789062 Z M 132.558594 16.730469 L 133.917969 15.046875 C 136.710938 11.585938 140.277344 9.367188 144.613281 8.386719 L 145.601562 12.769531 C 142.28125 13.519531 139.550781 15.21875 137.414062 17.867188 L 136.050781 19.550781 Z M 147.121094 7.996094 C 147.691406 7.945312 148.261719 7.917969 148.832031 7.917969 C 153.5625 7.917969 157.722656 9.457031 161.3125 12.539062 L 158.386719 15.949219 C 155.640625 13.589844 152.453125 12.410156 148.832031 12.410156 C 148.394531 12.410156 147.957031 12.429688 147.523438 12.46875 Z M 163.128906 14.320312 C 163.34375 14.558594 163.546875 14.800781 163.746094 15.046875 L 172.210938 25.535156 L 168.714844 28.355469 L 160.25 17.867188 C 160.097656 17.679688 159.941406 17.492188 159.777344 17.3125 Z M 163.128906 14.320312 " fill-opacity="1" fill-rule="nonzero"/></g></g><path stroke-linecap="butt" transform="matrix(0.748746, 0, 0, 0.748746, 29.28094, 53.63789)" fill="none" stroke-linejoin="miter" d="M 182.211373 64.110858 C 175.966555 51.991633 161.405746 53.014176 150.011692 50.030019 C 147.392729 49.37267 143.380812 48.073622 143.746006 44.698186 C 144.132068 42.011401 147.027535 39.575035 148.806552 37.702112 C 152.635872 33.966698 159.720637 27.247128 165.120292 32.396364 C 168.767015 35.834405 174.281445 30.34606 170.634722 26.881934 C 160.65449 17.266897 147.961389 26.60543 140.876624 34.811862 C 137.229901 39.027244 134.334434 44.515589 136.932529 49.941329 C 139.556709 55.06448 145.342426 57.120001 150.674259 58.142544 C 157.007767 59.352901 164.003841 59.352901 169.789558 62.634431 C 175.486585 65.801185 178.016858 71.675592 174.464042 77.466526 C 171.297288 82.683583 164.849005 85.119949 158.96938 84.645197 C 152.155903 84.280003 146.276279 80.085489 141.899168 75.139718 C 138.528948 71.404305 133.014518 76.918735 136.384738 80.63328 C 144.408572 89.794433 157.101674 95.397553 169.153077 90.999573 C 179.587193 87.170253 187.903183 75.139718 182.211373 64.110858 Z M 182.211373 64.110858 " stroke="#000000" stroke-width="1.749999" stroke-opacity="1" stroke-miterlimit="4"/></svg>