<svg xmlns="http://www.w3.org/2000/svg" xmlns:xlink="http://www.w3.org/1999/xlink" width="382" zoomAndPan="magnify" viewBox="0 0 286.5 167.999997" height="224" preserveAspectRatio="xMidYMid meet" version="1.0"><defs><clipPath id="cdc9cdc8aa"><path d="M 37 10 L 248 10 L 248 143.894531 L 37 143.894531 Z M 37 10 " clip-rule="nonzero"/></clipPath><clipPath id="640da75853"><path d="M 155.910156 16.457031 L 245.667969 127.65625 C 248.09375 130.65625 248.578125 134.785156 246.914062 138.265625 C 245.25 141.75 241.734375 143.964844 237.875 143.964844 L 47.609375 143.964844 C 43.75 143.964844 40.234375 141.75 38.570312 138.265625 C 36.90625 134.785156 37.390625 130.65625 39.8125 127.65625 L 129.574219 16.457031 C 132.789062 12.476562 137.628906 10.164062 142.742188 10.164062 C 147.855469 10.164062 152.695312 12.476562 155.910156 16.457031 Z M 155.910156 16.457031 " clip-rule="nonzero"/></clipPath></defs><path stroke-linecap="butt" transform="matrix(0.748693, 0, 0, 0.748693, 23.199503, 53.635)" fill="none" stroke-linejoin="miter" d="M 135.031749 42.294727 C 135.031749 54.623498 144.350067 59.178308 157.132753 62.913983 C 172.920676 67.588794 181.785078 75.060144 177.38679 78.978429 C 169.55022 85.88108 164.698017 63.941816 150.798802 63.941816 C 136.988283 63.941816 134.09783 76.839286 135.485665 87.091522 L 137.536112 87.091522 C 137.536112 82.990627 138.470031 80.371481 143.139624 80.371481 C 147.814436 80.371481 153.871864 87.660221 163.122355 87.660221 C 175.153733 87.660221 184.294658 78.40973 184.294658 67.948797 C 184.294658 54.988717 167.979776 49.379988 160.137989 47.14693 C 144.350067 42.748643 137.082196 35.574686 141.54831 31.833794 C 149.770969 25.025056 152.937945 46.781711 166.83716 46.781711 C 180.762463 46.781711 183.564219 33.884241 182.244211 23.632004 L 180.09985 23.632004 C 180.09985 27.732899 179.165931 30.357263 174.496337 30.357263 C 169.93631 30.357263 165.084106 23.157219 155.833615 23.157219 C 143.984847 23.157219 135.031749 32.016403 135.031749 42.294727 Z M 135.031749 42.294727 " stroke="#000000" stroke-width="1.749999" stroke-opacity="1" stroke-miterlimit="4"/><g clip-path="url(#cdc9cdc8aa)"><g clip-path="url(#640da75853)"><path fill="#000000" d="M 167.53125 27.28125 L 175.996094 37.765625 L 172.5 40.589844 L 164.035156 30.101562 Z M 177.40625 39.515625 L 185.871094 50 L 182.375 52.820312 L 173.910156 42.335938 Z M 187.28125 51.75 L 195.746094 62.234375 L 192.253906 65.054688 L 183.789062 54.570312 Z M 197.160156 63.980469 L 205.625 74.46875 L 202.128906 77.289062 L 193.664062 66.804688 Z M 207.035156 76.214844 L 215.5 86.703125 L 212.003906 89.523438 L 203.539062 79.039062 Z M 216.910156 88.449219 L 225.375 98.9375 L 221.878906 101.757812 L 213.414062 91.273438 Z M 226.785156 100.683594 L 235.25 111.171875 L 231.753906 113.992188 L 223.289062 103.507812 Z M 236.660156 112.917969 L 245.125 123.40625 L 241.628906 126.226562 L 233.164062 115.738281 Z M 246.535156 125.152344 L 247.417969 126.246094 C 250.65625 130.253906 251.164062 134.585938 248.941406 139.234375 C 248.789062 139.550781 248.625 139.855469 248.449219 140.15625 L 244.574219 137.882812 C 244.6875 137.691406 244.792969 137.5 244.886719 137.300781 C 246.296875 134.351562 245.972656 131.605469 243.921875 129.066406 L 243.039062 127.972656 Z M 246.804688 142.351562 C 244.382812 144.925781 241.40625 146.210938 237.875 146.210938 L 232.542969 146.210938 L 232.542969 141.71875 L 237.875 141.71875 C 240.113281 141.71875 242 140.90625 243.535156 139.273438 Z M 230.296875 146.210938 L 216.820312 146.210938 L 216.820312 141.71875 L 230.296875 141.71875 Z M 214.574219 146.210938 L 201.097656 146.210938 L 201.097656 141.71875 L 214.574219 141.71875 Z M 198.851562 146.210938 L 185.375 146.210938 L 185.375 141.71875 L 198.851562 141.71875 Z M 183.128906 146.210938 L 169.652344 146.210938 L 169.652344 141.71875 L 183.128906 141.71875 Z M 167.40625 146.210938 L 153.929688 146.210938 L 153.929688 141.71875 L 167.40625 141.71875 Z M 151.683594 146.210938 L 138.210938 146.210938 L 138.210938 141.71875 L 151.683594 141.71875 Z M 135.964844 146.210938 L 122.488281 146.210938 L 122.488281 141.71875 L 135.964844 141.71875 Z M 120.242188 146.210938 L 106.765625 146.210938 L 106.765625 141.71875 L 120.242188 141.71875 Z M 104.519531 146.210938 L 91.042969 146.210938 L 91.042969 141.71875 L 104.519531 141.71875 Z M 88.796875 146.210938 L 75.320312 146.210938 L 75.320312 141.71875 L 88.796875 141.71875 Z M 73.074219 146.210938 L 59.597656 146.210938 L 59.597656 141.71875 L 73.074219 141.71875 Z M 57.351562 146.210938 L 47.609375 146.210938 C 46.058594 146.210938 44.5625 145.929688 43.125 145.363281 L 44.765625 141.179688 C 45.679688 141.539062 46.628906 141.71875 47.609375 141.71875 L 57.351562 141.71875 Z M 40.695312 144.078125 C 38.878906 142.835938 37.492188 141.222656 36.542969 139.234375 C 35.003906 136.015625 34.894531 132.742188 36.210938 129.421875 L 40.386719 131.082031 C 39.550781 133.183594 39.621094 135.257812 40.597656 137.300781 C 41.199219 138.558594 42.074219 139.582031 43.226562 140.367188 Z M 37.5 127.003906 C 37.679688 126.742188 37.867188 126.488281 38.066406 126.242188 L 46.050781 116.351562 L 49.546875 119.171875 L 41.5625 129.066406 C 41.4375 129.222656 41.316406 129.382812 41.203125 129.546875 Z M 47.464844 114.601562 L 55.929688 104.117188 L 59.421875 106.9375 L 50.957031 117.425781 Z M 57.339844 102.367188 L 65.804688 91.882812 L 69.300781 94.703125 L 60.835938 105.191406 Z M 67.214844 90.136719 L 75.679688 79.648438 L 79.175781 82.46875 L 70.710938 92.957031 Z M 77.089844 77.902344 L 85.554688 67.414062 L 89.050781 70.234375 L 80.585938 80.722656 Z M 86.964844 65.667969 L 95.429688 55.179688 L 98.925781 58.003906 L 90.460938 68.488281 Z M 96.839844 53.433594 L 105.304688 42.945312 L 108.800781 45.769531 L 100.335938 56.253906 Z M 106.71875 41.199219 L 115.183594 30.710938 L 118.675781 33.535156 L 110.210938 44.019531 Z M 116.59375 28.964844 L 125.058594 18.476562 L 128.554688 21.300781 L 120.089844 31.785156 Z M 126.46875 16.730469 L 127.828125 15.046875 C 130.621094 11.585938 134.1875 9.367188 138.527344 8.386719 L 139.515625 12.769531 C 136.191406 13.519531 133.460938 15.21875 131.324219 17.867188 L 129.964844 19.550781 Z M 141.035156 7.996094 C 141.601562 7.945312 142.171875 7.917969 142.742188 7.917969 C 147.472656 7.917969 151.632812 9.457031 155.222656 12.539062 L 152.296875 15.949219 C 149.546875 13.589844 146.363281 12.410156 142.742188 12.410156 C 142.304688 12.410156 141.867188 12.429688 141.433594 12.46875 Z M 157.039062 14.320312 C 157.25 14.558594 157.457031 14.800781 157.65625 15.046875 L 166.121094 25.53125 L 162.625 28.355469 L 154.160156 17.867188 C 154.007812 17.679688 153.851562 17.492188 153.6875 17.3125 Z M 157.039062 14.320312 " fill-opacity="1" fill-rule="nonzero"/></g></g></svg>