<svg xmlns="http://www.w3.org/2000/svg" xmlns:xlink="http://www.w3.org/1999/xlink" width="409" zoomAndPan="magnify" viewBox="0 0 306.75 177.750001" height="237" preserveAspectRatio="xMidYMid meet" version="1.0"><defs><clipPath id="a93f5fb9c3"><path d="M 49 10 L 260 10 L 260 143.796875 L 49 143.796875 Z M 49 10 " clip-rule="nonzero"/></clipPath><clipPath id="48cb26be51"><path d="M 167.949219 16.316406 L 257.742188 127.550781 C 260.167969 130.554688 260.648438 134.683594 258.984375 138.167969 C 257.320312 141.652344 253.804688 143.867188 249.945312 143.867188 L 59.613281 143.867188 C 55.753906 143.867188 52.238281 141.652344 50.574219 138.167969 C 48.90625 134.683594 49.390625 130.554688 51.816406 127.550781 L 141.609375 16.316406 C 144.820312 12.335938 149.664062 10.023438 154.777344 10.023438 C 159.894531 10.023438 164.738281 12.335938 167.949219 16.316406 Z M 167.949219 16.316406 " clip-rule="nonzero"/></clipPath></defs><g clip-path="url(#a93f5fb9c3)"><g clip-path="url(#48cb26be51)"><path fill="#000000" d="M 179.578125 27.144531 L 188.042969 37.632812 L 184.546875 40.457031 L 176.082031 29.964844 Z M 189.457031 39.382812 L 197.921875 49.871094 L 194.425781 52.695312 L 185.960938 42.203125 Z M 199.335938 51.621094 L 207.804688 62.109375 L 204.304688 64.933594 L 195.839844 54.441406 Z M 209.214844 63.859375 L 217.683594 74.347656 L 214.183594 77.171875 L 205.71875 66.679688 Z M 219.09375 76.097656 L 227.5625 86.585938 L 224.0625 89.410156 L 215.597656 78.917969 Z M 228.972656 88.335938 L 237.441406 98.824219 L 233.941406 101.644531 L 225.476562 91.15625 Z M 238.851562 100.570312 L 247.320312 111.0625 L 243.820312 113.882812 L 235.355469 103.394531 Z M 248.730469 112.808594 L 257.199219 123.300781 L 253.699219 126.121094 L 245.234375 115.632812 Z M 258.609375 125.046875 L 259.488281 126.140625 C 262.730469 130.152344 263.234375 134.484375 261.011719 139.136719 C 260.863281 139.449219 260.699219 139.757812 260.523438 140.058594 L 256.648438 137.785156 C 256.757812 137.59375 256.863281 137.398438 256.957031 137.199219 C 258.367188 134.25 258.046875 131.503906 255.992188 128.964844 L 255.113281 127.871094 Z M 258.878906 142.253906 C 256.457031 144.828125 253.476562 146.113281 249.945312 146.113281 L 244.613281 146.113281 L 244.613281 141.621094 L 249.945312 141.621094 C 252.183594 141.621094 254.070312 140.804688 255.605469 139.175781 Z M 242.363281 146.113281 L 228.882812 146.113281 L 228.882812 141.621094 L 242.363281 141.621094 Z M 226.636719 146.113281 L 213.15625 146.113281 L 213.15625 141.621094 L 226.636719 141.621094 Z M 210.910156 146.113281 L 197.429688 146.113281 L 197.429688 141.621094 L 210.910156 141.621094 Z M 195.179688 146.113281 L 181.699219 146.113281 L 181.699219 141.621094 L 195.179688 141.621094 Z M 179.453125 146.113281 L 165.972656 146.113281 L 165.972656 141.621094 L 179.453125 141.621094 Z M 163.726562 146.113281 L 150.246094 146.113281 L 150.246094 141.621094 L 163.726562 141.621094 Z M 147.996094 146.113281 L 134.515625 146.113281 L 134.515625 141.621094 L 147.996094 141.621094 Z M 132.269531 146.113281 L 118.789062 146.113281 L 118.789062 141.621094 L 132.269531 141.621094 Z M 116.542969 146.113281 L 103.0625 146.113281 L 103.0625 141.621094 L 116.542969 141.621094 Z M 100.8125 146.113281 L 87.332031 146.113281 L 87.332031 141.621094 L 100.8125 141.621094 Z M 85.085938 146.113281 L 71.605469 146.113281 L 71.605469 141.621094 L 85.085938 141.621094 Z M 69.359375 146.113281 L 59.613281 146.113281 C 58.0625 146.113281 56.566406 145.832031 55.125 145.265625 L 56.769531 141.082031 C 57.683594 141.441406 58.632812 141.621094 59.613281 141.621094 L 69.359375 141.621094 Z M 52.699219 143.980469 C 50.878906 142.738281 49.496094 141.125 48.546875 139.136719 C 47.003906 135.914062 46.894531 132.640625 48.210938 129.320312 L 52.386719 130.976562 C 51.554688 133.082031 51.625 135.15625 52.601562 137.199219 C 53.203125 138.457031 54.078125 139.480469 55.230469 140.269531 Z M 49.503906 126.898438 C 49.679688 126.640625 49.871094 126.386719 50.066406 126.140625 L 58.058594 116.242188 L 61.554688 119.066406 L 53.566406 128.964844 C 53.4375 129.117188 53.320312 129.28125 53.207031 129.445312 Z M 59.46875 114.496094 L 67.9375 104.003906 L 71.433594 106.828125 L 62.964844 117.316406 Z M 69.347656 102.257812 L 77.816406 91.765625 L 81.3125 94.589844 L 72.84375 105.078125 Z M 79.226562 90.019531 L 87.695312 79.527344 L 91.191406 82.351562 L 82.722656 92.839844 Z M 89.105469 77.78125 L 97.574219 67.289062 L 101.070312 70.113281 L 92.601562 80.601562 Z M 98.984375 65.542969 L 107.453125 55.054688 L 110.949219 57.875 L 102.480469 68.363281 Z M 108.863281 53.304688 L 117.332031 42.816406 L 120.828125 45.636719 L 112.359375 56.128906 Z M 118.742188 41.066406 L 127.210938 30.578125 L 130.707031 33.398438 L 122.238281 43.890625 Z M 128.621094 28.828125 L 137.089844 18.339844 L 140.585938 21.160156 L 132.117188 31.652344 Z M 138.5 16.589844 L 139.859375 14.90625 C 142.65625 11.441406 146.222656 9.222656 150.5625 8.246094 L 151.550781 12.628906 C 148.226562 13.378906 145.496094 15.078125 143.355469 17.726562 L 141.996094 19.414062 Z M 153.070312 7.851562 C 153.636719 7.800781 154.207031 7.773438 154.777344 7.773438 C 159.511719 7.773438 163.671875 9.316406 167.261719 12.394531 L 164.335938 15.804688 C 161.589844 13.449219 158.402344 12.269531 154.777344 12.269531 C 154.339844 12.269531 153.90625 12.289062 153.46875 12.328125 Z M 169.082031 14.179688 C 169.292969 14.414062 169.5 14.65625 169.699219 14.90625 L 178.164062 25.394531 L 174.667969 28.21875 L 166.203125 17.726562 C 166.050781 17.539062 165.890625 17.351562 165.730469 17.171875 Z M 169.082031 14.179688 " fill-opacity="1" fill-rule="nonzero"/></g></g><path stroke-linecap="butt" transform="matrix(0.748947, 0, 0, 0.748947, 33.608436, 53.506764)" fill="none" stroke-linejoin="miter" d="M 193.35616 36.432777 C 192.672908 36.37019 191.911422 36.281523 191.076917 36.156348 C 190.242411 36.02074 189.444415 35.973799 188.682929 36.02074 C 187.93709 36.052034 187.285133 36.239798 186.721841 36.589247 C 186.179413 36.923049 185.835179 37.465478 185.699572 38.206101 C 185.151928 38.513825 184.552127 38.852843 183.90017 39.233586 C 183.242997 39.598682 182.507589 39.849034 181.688731 39.984641 C 181.386222 40.104601 181.041989 40.151542 180.661246 40.120248 C 180.29615 40.09417 179.894544 40.078523 179.456429 40.078523 C 178.089926 40.198483 176.473072 40.33409 174.60065 40.485344 C 172.733444 40.636599 170.897532 40.782637 169.087699 40.918244 C 168.905151 41.04342 168.800838 41.278125 168.769544 41.627574 C 168.73825 41.961376 168.66523 42.185649 168.540055 42.310825 C 168.722603 43.739916 168.842563 45.189869 168.905151 46.660685 C 168.967739 48.121069 168.936445 49.623179 168.816485 51.172229 C 168.753897 51.552973 168.753897 51.933716 168.816485 52.314459 C 168.873857 52.679555 168.905151 53.039435 168.905151 53.404531 C 168.905151 54.030411 168.816485 54.61978 168.633937 55.183071 C 168.451388 55.746362 168.289703 56.309653 168.154096 56.867729 C 168.091508 57.796116 168.091508 58.599328 168.154096 59.282579 C 168.216684 59.971046 168.122802 60.753395 167.882882 61.629625 C 167.757706 61.937349 167.710765 62.218995 167.742059 62.474562 C 167.773353 62.719698 167.757706 63.027422 167.700334 63.408165 C 167.637746 63.773261 167.538648 64.133142 167.403041 64.482591 C 167.277865 64.816393 167.189199 65.171058 167.126611 65.551801 C 167.069239 65.854309 167.069239 66.151602 167.126611 66.438463 C 167.189199 66.714893 167.220493 67.00697 167.220493 67.330341 C 167.100533 68.253512 166.928416 69.171468 166.71979 70.084209 C 166.505948 70.981302 166.328615 71.894042 166.193008 72.817214 C 166.073048 73.380505 166.026107 73.959443 166.057401 74.548812 C 166.088695 75.143398 166.073048 75.722336 166.01046 76.285627 C 165.953088 76.645507 165.859206 77.005388 165.739246 77.354837 C 165.619286 77.704286 165.525404 78.058951 165.462816 78.424047 C 165.462816 78.742202 165.525404 79.091651 165.645364 79.472394 C 165.77054 79.837491 165.8905 80.233881 166.01046 80.656349 C 166.01046 80.797172 165.994813 80.922348 165.968735 81.047523 C 165.937441 81.167484 165.953088 81.287444 166.01046 81.407404 C 166.135636 81.913323 166.318184 82.398379 166.558104 82.867788 C 166.818887 83.321551 167.006651 83.832685 167.126611 84.395976 C 167.126611 84.651544 167.110964 84.901895 167.084886 85.147031 C 167.053592 85.392167 167.069239 85.642519 167.126611 85.898086 C 167.267434 86.581338 167.423904 87.280236 167.606452 87.994781 C 167.789 88.709326 167.658608 89.408225 167.220493 90.091476 C 165.671442 89.971516 164.440547 89.580341 163.527806 88.928384 C 162.630713 88.276427 161.723189 87.608822 160.794801 86.925571 L 159.67865 86.925571 C 159.543043 86.800395 159.459593 86.649141 159.428299 86.466593 C 159.397005 86.268398 159.350064 86.080634 159.292691 85.898086 C 158.103521 84.093468 157.216859 81.7725 156.622274 78.950829 C 156.048552 76.108294 155.819063 73.291839 155.939023 70.496246 C 156.001611 68.128336 156.152865 65.974269 156.398001 64.049691 C 156.653568 62.119897 156.872626 60.190104 157.055174 58.26031 C 157.055174 58.14035 157.133409 58.046468 157.284663 57.98388 C 157.435917 57.926508 157.388976 57.832626 157.149056 57.712666 C 157.086468 57.592706 157.117762 57.498824 157.237722 57.441451 C 157.362898 57.363217 157.451564 57.264119 157.514152 57.144159 C 157.832307 55.53252 158.202619 54.046057 158.630303 52.679555 C 159.068418 51.29219 159.543043 49.889177 160.043746 48.460087 C 160.101119 47.093584 160.382764 45.946139 160.883467 45.022968 C 161.384171 44.078933 161.665816 42.957567 161.728404 41.648436 C 161.530209 41.345928 161.227701 41.252046 160.815664 41.377222 C 160.419274 41.497182 160.132413 41.465888 159.949864 41.28334 C 159.511749 41.784043 158.786773 42.008317 157.785366 41.945729 C 156.799607 41.867494 155.871219 41.898788 155.00542 42.034395 C 154.749853 42.034395 154.541226 42.081336 154.389972 42.175218 C 154.238718 42.263884 154.071817 42.310825 153.889269 42.310825 C 151.64132 42.493373 149.476821 42.227374 147.395774 41.512829 C 145.314726 40.798284 143.520539 39.9377 142.018429 38.936294 C 141.15263 38.936294 140.547613 38.696373 140.198164 38.206101 C 139.859147 37.705398 139.441894 37.204695 138.941191 36.703992 C 138.758642 36.458856 138.539585 36.291955 138.284018 36.203288 C 138.038882 36.109407 137.887627 35.905996 137.82504 35.587841 C 137.642491 35.467881 137.454728 35.358352 137.256533 35.269686 C 137.073985 35.175804 136.860143 35.066275 136.620222 34.925452 C 138.487428 34.925452 140.208596 34.685532 141.78894 34.200475 C 143.384932 33.694557 144.986139 33.193853 146.597778 32.69315 C 148.845727 32.009899 151.119754 31.404882 153.409428 30.872885 C 155.719965 30.340888 158.119168 29.829753 160.612253 29.344697 C 162.542047 28.963954 164.638742 28.666661 166.902338 28.458035 C 169.181581 28.228546 171.434745 28.165958 173.667047 28.275487 C 175.899349 28.364153 178.074279 28.630152 180.186621 29.073483 C 182.309394 29.495951 184.187031 30.173987 185.814317 31.097158 C 186.862664 31.66045 187.911012 32.208094 188.959359 32.740091 C 190.018138 33.272088 191.050838 33.877105 192.05746 34.560356 C 192.359969 34.742904 192.678124 34.982824 193.011926 35.269686 C 193.361375 35.5409 193.47612 35.932074 193.35616 36.432777 Z M 193.35616 36.432777 " stroke="#000000" stroke-width="1.749999" stroke-opacity="1" stroke-miterlimit="4"/></svg>