<svg xmlns="http://www.w3.org/2000/svg" xmlns:xlink="http://www.w3.org/1999/xlink" width="365" zoomAndPan="magnify" viewBox="0 0 273.75 161.249994" height="215" preserveAspectRatio="xMidYMid meet" version="1.0"><defs><clipPath id="1ebbc40c9f"><path d="M 31 9 L 242 9 L 242 143.332031 L 31 143.332031 Z M 31 9 " clip-rule="nonzero"/></clipPath><clipPath id="335e5cd92c"><path d="M 149.550781 16.261719 L 239.050781 127.140625 C 241.46875 130.132812 241.949219 134.25 240.289062 137.722656 C 238.632812 141.191406 235.125 143.402344 231.277344 143.402344 L 41.5625 143.402344 C 37.714844 143.402344 34.210938 141.191406 32.550781 137.722656 C 30.890625 134.25 31.375 130.132812 33.789062 127.140625 L 123.292969 16.261719 C 126.496094 12.296875 131.320312 9.988281 136.421875 9.988281 C 141.519531 9.988281 146.347656 12.296875 149.550781 16.261719 Z M 149.550781 16.261719 " clip-rule="nonzero"/></clipPath></defs><path stroke-linecap="butt" transform="matrix(0.746528, 0, 0, 0.746528, 17.223994, 53.333894)" fill="none" stroke-linejoin="miter" d="M 187.66392 22.387622 C 187.66392 22.753901 187.527873 23.062622 187.25578 23.32425 C 186.983687 23.580646 186.654036 23.800413 186.277292 23.983553 C 185.895315 24.166692 185.508106 24.334134 185.115664 24.485878 C 184.71799 24.637623 184.383106 24.773669 184.111013 24.894018 C 183.870315 25.014367 183.661013 25.150413 183.493571 25.302157 C 183.331361 25.453902 183.16392 25.616111 182.996478 25.783553 C 182.829036 25.950995 182.645896 26.092274 182.447059 26.217855 C 182.248222 26.338204 182.002292 26.442855 181.693571 26.537041 C 181.301129 26.625995 180.950547 26.673088 180.647059 26.673088 C 180.343571 26.673088 180.05578 26.694018 179.783687 26.741111 C 179.506361 26.782972 179.265664 26.898088 179.051129 27.081227 C 178.841826 27.264367 178.627291 27.583553 178.412756 28.038786 C 178.234849 28.431227 178.104036 28.896925 178.025547 29.430646 C 177.952291 29.959135 177.837175 30.466693 177.685431 30.953321 C 177.533687 31.439949 177.313919 31.853321 177.026128 32.182972 C 176.738338 32.517856 176.288338 32.685298 175.681361 32.685298 C 175.681361 33.020181 175.796477 33.360298 176.021477 33.710879 C 176.25171 34.06146 176.492407 34.401577 176.754035 34.736461 C 177.010431 35.071344 177.245896 35.411461 177.460431 35.762042 C 177.669733 36.112623 177.774384 36.45274 177.774384 36.787623 C 177.774384 37.153903 177.701128 37.504484 177.549384 37.834135 C 177.39764 38.169019 177.319152 38.5196 177.319152 38.885879 L 177.277291 41.664368 C 177.245896 42.271345 177.361012 42.873089 177.617408 43.464368 C 177.873803 44.055647 178.004617 44.673089 178.004617 45.311461 C 178.004617 45.672508 177.931361 46.033554 177.774384 46.378903 C 177.62264 46.729485 177.549384 47.100996 177.549384 47.498671 C 177.549384 48.775415 177.680198 50.041694 177.936594 51.302741 C 178.192989 52.563788 178.323803 53.861462 178.323803 55.200997 C 178.323803 56.080067 178.245315 57.02716 178.09357 58.047509 C 177.941826 59.062625 177.58078 59.920765 176.999966 60.621928 C 177.031361 61.045765 177.125547 61.406811 177.277291 61.694602 C 177.429035 61.982393 177.58078 62.285881 177.732524 62.605067 C 177.884268 62.924253 178.025547 63.274835 178.166826 63.651579 C 178.302873 64.033556 178.370896 64.525416 178.370896 65.132393 C 178.370896 65.681812 178.31857 66.403905 178.208687 67.298672 C 178.104036 68.19344 177.915663 69.062045 177.638338 69.894021 C 177.366245 70.731231 176.994733 71.458556 176.523803 72.081231 C 176.052873 72.703905 175.451128 73.017859 174.723803 73.017859 C 174.661012 73.017859 174.608686 73.007394 174.561593 72.996929 C 174.519733 72.981231 174.467407 72.970766 174.404617 72.970766 L 174.357524 73.242859 L 174.357524 73.384138 C 174.357524 73.807975 174.488338 74.184719 174.744733 74.519603 C 175.006361 74.854487 175.131942 75.236464 175.131942 75.660301 C 175.131942 75.874836 175.006361 76.146929 174.744733 76.481813 C 174.488338 76.816696 174.174384 77.162045 173.813337 77.528324 C 173.447058 77.894603 173.075547 78.245185 172.69357 78.574836 C 172.316826 78.90972 172.002872 79.197511 171.762175 79.443441 C 171.490081 79.715534 171.280779 79.982394 171.144733 80.23879 C 171.008686 80.500418 170.87264 80.725418 170.736593 80.924255 C 170.600547 81.123092 170.417407 81.290534 170.187174 81.426581 C 169.962174 81.562627 169.622058 81.677743 169.161593 81.766697 C 168.371477 81.918441 167.675546 82.148674 167.06857 82.452162 C 166.461593 82.75565 165.865081 83.064371 165.2895 83.383557 C 164.713918 83.702743 164.091244 83.974837 163.421476 84.205069 C 162.751709 84.435302 161.951127 84.545185 161.009267 84.545185 C 160.491243 84.545185 159.988918 84.487627 159.50229 84.362046 C 159.015662 84.241697 158.529034 84.100418 158.042406 83.932976 C 157.561011 83.765534 157.063918 83.619023 156.561592 83.498674 C 156.064499 83.378325 155.567406 83.315534 155.080778 83.315534 C 154.688336 83.315534 154.301127 83.341697 153.91915 83.383557 C 153.542406 83.43065 153.155196 83.451581 152.757522 83.451581 C 152.454033 83.451581 152.218568 83.435883 152.051126 83.40972 C 151.883685 83.378325 151.695312 83.257976 151.480778 83.043441 C 151.329033 82.860302 151.093568 82.69286 150.774382 82.541115 C 150.455196 82.389371 150.11508 82.248092 149.748801 82.106813 C 149.387754 81.970767 149.021475 81.850418 148.655196 81.745767 C 148.294149 81.635883 147.990661 81.552162 147.744731 81.494604 C 147.200545 81.34286 146.672056 81.039371 146.174963 80.584139 C 145.672638 80.128906 145.217405 79.600418 144.804033 79.009138 C 144.395893 78.417859 144.029614 77.800417 143.710428 77.162045 C 143.391242 76.528906 143.145312 75.948092 142.962172 75.430068 C 142.595893 74.399254 142.339498 73.342278 142.187754 72.26437 C 142.036009 71.186463 141.910428 70.108556 141.821475 69.030649 C 141.732521 67.952742 141.633102 66.874835 141.523219 65.791696 C 141.418567 64.713788 141.230195 63.646347 140.95287 62.578905 C 140.832521 62.155067 140.70694 61.720765 140.56566 61.28123 C 140.429614 60.841695 140.361591 60.391695 140.361591 59.936463 C 140.361591 59.601579 140.392986 59.27716 140.455777 58.957974 C 140.513335 58.638788 140.576126 58.314369 140.638916 57.979486 C 140.879614 56.702741 141.067986 55.410299 141.204033 54.107392 C 141.345312 52.799253 141.413335 51.491113 141.413335 50.188206 C 141.413335 48.456229 141.329614 46.73995 141.162172 45.034136 C 140.99473 43.333554 140.911009 41.617275 140.911009 39.885298 C 140.911009 39.550414 140.911009 39.231228 140.911009 38.92774 C 140.911009 38.624252 140.926707 38.305065 140.95287 37.975414 C 141.01566 37.363205 141.146474 36.771926 141.345312 36.196344 C 141.538916 35.620763 141.638335 35.024251 141.638335 34.417274 C 141.638335 34.207972 141.60694 34.009135 141.549381 33.825995 C 141.486591 33.642856 141.4238 33.444019 141.366242 33.234716 C 140.999963 32.4446 140.79066 31.722507 140.72787 31.068437 C 140.665079 30.414367 140.607521 29.666111 140.54473 28.813204 C 140.424381 27.505065 140.157521 26.578902 139.749381 26.034716 C 139.336009 25.485297 138.823218 25.092855 138.200544 24.846925 C 137.57787 24.606227 136.892404 24.402157 136.149381 24.234716 C 135.401125 24.067274 134.621474 23.680064 133.799962 23.073088 C 133.559265 22.921343 133.349962 22.727739 133.187753 22.502739 C 133.020311 22.272506 132.93659 22.021343 132.93659 21.74925 C 132.93659 21.262622 133.198218 20.823087 133.731939 20.430645 C 134.26566 20.032971 134.893567 19.713785 135.626125 19.473087 C 136.353451 19.227157 137.080776 19.038785 137.813335 18.902738 C 138.54066 18.766692 139.100544 18.698669 139.498219 18.698669 C 139.984846 18.698669 140.445312 18.756227 140.884847 18.876576 C 141.329614 19.002157 141.790079 19.059715 142.276707 19.059715 C 143.249963 19.059715 144.191824 18.944599 145.102289 18.719599 C 146.012754 18.489366 146.954614 18.379483 147.92787 18.379483 C 148.320312 18.379483 148.932522 18.452738 149.748801 18.604483 C 150.570312 18.756227 151.391824 18.975994 152.213336 19.263785 C 153.029615 19.556808 153.751708 19.902157 154.374382 20.315529 C 154.997057 20.723669 155.31101 21.189366 155.31101 21.702157 C 155.31101 22.371925 155.106941 23.005064 154.693569 23.596343 C 154.285429 24.187623 153.777871 24.757971 153.170894 25.302157 C 152.558685 25.851576 151.899382 26.41146 151.187754 26.992274 C 150.470894 27.567855 149.811591 28.19053 149.204615 28.860297 C 148.597638 29.524832 148.084847 30.278321 147.676708 31.11553 C 147.268568 31.947507 147.064498 32.884135 147.064498 33.914949 C 147.064498 34.527158 147.085428 35.139368 147.132521 35.762042 C 147.174382 36.384716 147.200545 37.002158 147.200545 37.609135 C 147.200545 38.823089 147.085428 40.021345 146.855196 41.209135 C 146.630196 42.391694 146.51508 43.61088 146.51508 44.856229 C 146.51508 45.855647 146.661591 46.76088 146.949382 47.566694 C 147.237173 48.372508 147.378452 49.000415 147.378452 49.455648 C 147.378452 49.942276 147.326126 50.392276 147.221475 50.800415 C 147.116824 51.213787 147.064498 51.642857 147.064498 52.09809 C 147.064498 52.312625 147.069731 52.511462 147.085428 52.694601 C 147.101126 52.872508 147.106359 53.071346 147.106359 53.285881 C 147.106359 53.772509 147.038335 54.16495 146.902289 54.468439 C 146.766242 54.771927 146.619731 55.049253 146.467986 55.289951 C 146.316242 55.530648 146.164498 55.760881 146.012754 55.975416 C 145.86101 56.184718 145.787754 56.430648 145.787754 56.702741 C 145.939498 56.582392 146.091242 56.472509 146.242986 56.383555 C 146.394731 56.294602 146.562173 56.247509 146.745312 56.247509 C 146.954614 56.247509 147.122056 56.320765 147.242405 56.472509 C 147.367987 56.624253 147.462173 56.80216 147.540661 57.000997 C 147.613917 57.194602 147.671475 57.409137 147.697638 57.639369 C 147.729033 57.864369 147.744731 58.052741 147.744731 58.204486 C 147.744731 58.994602 147.859847 59.769021 148.084847 60.532974 C 148.31508 61.291695 148.430196 62.066114 148.430196 62.85623 C 148.430196 63.55216 148.367405 64.258556 148.247056 64.975416 C 148.126708 65.687044 148.063917 66.409137 148.063917 67.136463 C 148.063917 67.837626 148.116242 68.481231 148.226126 69.077742 C 148.330777 69.669021 148.733684 70.145184 149.429615 70.511463 C 149.555196 70.574254 149.691243 70.752161 149.842987 71.055649 C 149.994731 71.359138 150.151708 71.688789 150.31915 72.03937 C 150.486591 72.384719 150.664498 72.735301 150.842405 73.085882 C 151.025545 73.436464 151.208685 73.687626 151.391824 73.839371 C 151.758103 74.174254 152.150545 74.446347 152.574382 74.65565 C 153.003452 74.870185 153.432522 75.074254 153.877289 75.273092 C 154.316824 75.471929 154.740662 75.681231 155.148801 75.911464 C 155.562173 76.136464 155.933685 76.450417 156.268569 76.842859 C 156.540662 77.177743 156.891243 77.475999 157.31508 77.732394 C 157.738918 77.994022 158.157522 78.266115 158.570894 78.553906 C 158.979034 78.841697 159.334848 79.15565 159.638336 79.490534 C 159.941825 79.820185 160.093569 80.233557 160.093569 80.720185 C 160.093569 80.322511 160.15636 80.003325 160.276709 79.762627 C 160.308104 79.85158 160.323802 79.987627 160.323802 80.170766 C 160.323802 80.416697 160.261011 80.599836 160.140662 80.720185 C 160.229615 80.625999 160.339499 80.474255 160.459848 80.264953 C 160.580197 80.050418 160.700546 79.835883 160.826127 79.62658 C 160.946476 79.412045 161.066825 79.228906 161.187174 79.077162 C 161.312755 78.925418 161.448802 78.852162 161.600546 78.852162 C 161.809848 78.852162 162.008685 78.925418 162.191825 79.077162 C 162.374964 79.228906 162.463918 79.427743 162.463918 79.668441 C 162.463918 79.971929 162.40636 80.264953 162.280778 80.537046 C 162.16043 80.809139 162.087174 81.096929 162.055778 81.400418 C 162.359267 81.400418 162.667988 81.332394 162.987174 81.196348 C 163.30636 81.060301 163.604616 80.887627 163.876709 80.673092 C 164.148802 80.458557 164.373802 80.207394 164.536011 79.919604 C 164.703453 79.631813 164.787174 79.323092 164.787174 78.988208 C 164.787174 78.590534 164.67729 78.339371 164.447058 78.23472 C 164.222058 78.130069 163.9395 78.077743 163.604616 78.077743 C 163.358686 78.077743 163.12322 78.093441 162.89822 78.119603 C 162.667988 78.150999 162.432523 78.166697 162.191825 78.166697 L 162.055778 78.166697 C 162.207523 77.711464 162.432523 77.329487 162.736011 77.025999 C 163.044732 76.72251 163.390081 76.471348 163.787755 76.277743 C 164.180197 76.078906 164.593569 75.911464 165.017407 75.775417 C 165.441244 75.639371 165.854616 75.492859 166.247058 75.341115 C 166.88543 75.100417 167.403453 74.770766 167.795895 74.362626 C 168.19357 73.949254 168.554616 73.520185 168.8895 73.064952 C 169.224384 72.609719 169.559267 72.144022 169.894151 71.673091 C 170.229035 71.202161 170.637174 70.767859 171.123802 70.375417 C 171.155198 70.160882 171.170895 69.962045 171.170895 69.784138 C 171.170895 69.600998 171.170895 69.417859 171.170895 69.234719 C 171.170895 68.596347 171.144733 67.96844 171.102872 67.345765 C 171.055779 66.723091 171.034849 66.089951 171.034849 65.451579 C 171.034849 64.755649 171.129035 64.054486 171.327872 63.358556 C 171.526709 62.657393 171.626128 61.95623 171.626128 61.2603 C 171.626128 60.653323 171.54764 60.067276 171.395895 59.507393 C 171.244151 58.942276 171.170895 58.35623 171.170895 57.749253 C 171.170895 57.205067 171.244151 56.666113 171.395895 56.132392 C 171.54764 55.603904 171.626128 55.059718 171.626128 54.515532 C 171.626128 53.636462 171.54764 52.778322 171.395895 51.941113 C 171.244151 51.103904 171.170895 50.261462 171.170895 49.413787 C 171.170895 48.257392 171.270314 47.132392 171.463919 46.038787 C 171.662756 44.945182 171.762175 43.83588 171.762175 42.71088 C 171.762175 41.256228 171.631361 39.82774 171.374965 38.430647 C 171.11857 37.033554 170.987756 35.605065 170.987756 34.145181 C 170.987756 33.930647 170.992988 33.653321 171.008686 33.302739 C 171.024384 32.952158 171.071477 32.601577 171.144733 32.256228 C 171.223221 31.905646 171.338337 31.602158 171.490081 31.34053 C 171.641826 31.084135 171.866826 30.953321 172.170314 30.953321 C 171.898221 30.927158 171.558105 30.733553 171.144733 30.382972 C 170.736593 30.037623 170.338919 29.639949 169.962174 29.200414 C 169.580198 28.760879 169.245314 28.321344 168.957523 27.876576 C 168.669732 27.437041 168.528453 27.096925 168.528453 26.850995 C 168.371477 26.88239 168.230198 26.908553 168.094151 26.924251 C 167.958104 26.934716 167.811593 26.945181 167.659849 26.945181 C 167.236011 26.945181 166.833104 26.866692 166.451128 26.714948 C 166.074383 26.563204 165.702872 26.406227 165.336593 26.238785 C 164.970314 26.071344 164.593569 25.914367 164.195895 25.75739 C 163.803453 25.605646 163.374383 25.53239 162.919151 25.53239 L 162.694151 25.53239 C 162.573802 24.773669 162.380197 24.041111 162.123802 23.345181 C 161.867406 22.644018 161.736592 21.900994 161.736592 21.110878 C 161.736592 20.503901 161.893569 20.017273 162.212755 19.650994 C 162.531941 19.289948 162.934848 19.00739 163.421476 18.808552 C 163.908104 18.614948 164.43136 18.484134 164.996476 18.421343 C 165.55636 18.363785 166.063918 18.332389 166.519151 18.332389 C 167.372058 18.332389 168.209267 18.379483 169.025546 18.468436 C 169.847058 18.557389 170.684267 18.604483 171.531942 18.604483 C 172.170314 18.604483 172.761593 18.463203 173.311012 18.17018 C 173.860431 17.882389 174.436012 17.74111 175.042989 17.74111 C 175.377872 17.74111 175.728454 17.809134 176.0895 17.94518 C 176.45578 18.081227 176.827291 18.238203 177.209268 18.421343 C 177.586012 18.604483 177.973222 18.78239 178.370896 18.944599 C 178.763338 19.112041 179.145315 19.227157 179.506361 19.289948 C 180.087175 19.378901 180.699385 19.425994 181.353454 19.425994 C 182.007524 19.425994 182.651129 19.45739 183.289501 19.514948 C 183.927873 19.577738 184.53485 19.692855 185.115664 19.860297 C 185.691245 20.027738 186.224966 20.320762 186.706362 20.744599 C 186.952292 20.959134 187.172059 21.205064 187.370897 21.477157 C 187.569734 21.74925 187.66392 22.052739 187.66392 22.387622 Z M 187.66392 22.387622 " stroke="#000000" stroke-width="1.749999" stroke-opacity="1" stroke-miterlimit="4"/><g clip-path="url(#1ebbc40c9f)"><g clip-path="url(#335e5cd92c)"><path fill="#000000" d="M 161.136719 27.054688 L 169.578125 37.511719 L 166.09375 40.324219 L 157.652344 29.867188 Z M 170.984375 39.253906 L 179.425781 49.710938 L 175.941406 52.523438 L 167.5 42.066406 Z M 180.832031 51.453125 L 189.273438 61.910156 L 185.789062 64.722656 L 177.347656 54.265625 Z M 190.679688 63.652344 L 199.121094 74.105469 L 195.632812 76.921875 L 187.195312 66.464844 Z M 200.527344 75.851562 L 208.96875 86.304688 L 205.480469 89.121094 L 197.042969 78.664062 Z M 210.375 88.046875 L 218.8125 98.503906 L 215.328125 101.316406 L 206.886719 90.863281 Z M 220.222656 100.246094 L 228.660156 110.703125 L 225.175781 113.515625 L 216.734375 103.0625 Z M 230.066406 112.445312 L 238.507812 122.902344 L 235.023438 125.714844 L 226.582031 115.257812 Z M 239.914062 124.644531 L 240.792969 125.734375 C 244.023438 129.730469 244.527344 134.050781 242.3125 138.6875 C 242.160156 139 242 139.308594 241.824219 139.605469 L 237.960938 137.339844 C 238.070312 137.148438 238.175781 136.953125 238.269531 136.753906 C 239.675781 133.816406 239.355469 131.082031 237.308594 128.546875 L 236.429688 127.457031 Z M 240.183594 141.796875 C 237.769531 144.359375 234.800781 145.644531 231.277344 145.644531 L 225.964844 145.644531 L 225.964844 141.164062 L 231.277344 141.164062 C 233.511719 141.164062 235.390625 140.351562 236.921875 138.726562 Z M 223.722656 145.644531 L 210.285156 145.644531 L 210.285156 141.164062 L 223.722656 141.164062 Z M 208.046875 145.644531 L 194.609375 145.644531 L 194.609375 141.164062 L 208.046875 141.164062 Z M 192.371094 145.644531 L 178.933594 145.644531 L 178.933594 141.164062 L 192.371094 141.164062 Z M 176.691406 145.644531 L 163.253906 145.644531 L 163.253906 141.164062 L 176.691406 141.164062 Z M 161.015625 145.644531 L 147.578125 145.644531 L 147.578125 141.164062 L 161.015625 141.164062 Z M 145.339844 145.644531 L 131.902344 145.644531 L 131.902344 141.164062 L 145.339844 141.164062 Z M 129.660156 145.644531 L 116.222656 145.644531 L 116.222656 141.164062 L 129.660156 141.164062 Z M 113.984375 145.644531 L 100.546875 145.644531 L 100.546875 141.164062 L 113.984375 141.164062 Z M 98.308594 145.644531 L 84.871094 145.644531 L 84.871094 141.164062 L 98.308594 141.164062 Z M 82.628906 145.644531 L 69.191406 145.644531 L 69.191406 141.164062 L 82.628906 141.164062 Z M 66.953125 145.644531 L 53.515625 145.644531 L 53.515625 141.164062 L 66.953125 141.164062 Z M 51.277344 145.644531 L 41.5625 145.644531 C 40.019531 145.644531 38.527344 145.359375 37.089844 144.796875 L 38.730469 140.628906 C 39.640625 140.984375 40.582031 141.164062 41.5625 141.164062 L 51.277344 141.164062 Z M 34.667969 143.515625 C 32.855469 142.277344 31.476562 140.667969 30.53125 138.6875 C 28.996094 135.476562 28.882812 132.214844 30.195312 128.902344 L 34.359375 130.554688 C 33.527344 132.652344 33.597656 134.71875 34.570312 136.753906 C 35.171875 138.011719 36.046875 139.03125 37.195312 139.816406 Z M 31.484375 126.488281 C 31.660156 126.230469 31.851562 125.976562 32.046875 125.734375 L 40.011719 115.867188 L 43.496094 118.679688 L 35.53125 128.546875 C 35.40625 128.703125 35.289062 128.863281 35.175781 129.027344 Z M 41.417969 114.125 L 49.859375 103.667969 L 53.34375 106.484375 L 44.902344 116.9375 Z M 51.265625 101.925781 L 59.703125 91.472656 L 63.191406 94.285156 L 54.75 104.742188 Z M 61.113281 89.726562 L 69.550781 79.273438 L 73.039062 82.085938 L 64.597656 92.542969 Z M 70.957031 77.53125 L 79.398438 67.074219 L 82.882812 69.886719 L 74.445312 80.34375 Z M 80.804688 65.332031 L 89.246094 54.875 L 92.730469 57.6875 L 84.292969 68.144531 Z M 90.652344 53.132812 L 99.09375 42.675781 L 102.578125 45.488281 L 94.136719 55.945312 Z M 100.5 40.933594 L 108.941406 30.476562 L 112.425781 33.292969 L 103.984375 43.746094 Z M 110.347656 28.734375 L 118.789062 18.277344 L 122.273438 21.09375 L 113.832031 31.546875 Z M 120.195312 16.535156 L 121.550781 14.855469 C 124.335938 11.40625 127.890625 9.191406 132.214844 8.21875 L 133.203125 12.585938 C 129.890625 13.332031 127.167969 15.027344 125.035156 17.671875 L 123.679688 19.351562 Z M 134.71875 7.824219 C 135.285156 7.773438 135.851562 7.75 136.421875 7.75 C 141.136719 7.75 145.285156 9.285156 148.863281 12.355469 L 145.949219 15.753906 C 143.207031 13.402344 140.03125 12.230469 136.421875 12.230469 C 135.984375 12.230469 135.550781 12.25 135.117188 12.285156 Z M 150.675781 14.132812 C 150.886719 14.371094 151.09375 14.609375 151.292969 14.855469 L 159.730469 25.3125 L 156.246094 28.125 L 147.804688 17.671875 C 147.652344 17.480469 147.496094 17.296875 147.335938 17.117188 Z M 150.675781 14.132812 " fill-opacity="1" fill-rule="nonzero"/></g></g></svg>